<?xml version="1.0" encoding="UTF-8"?>
<svg id="Layer_1" data-name="Layer 1" xmlns="http://www.w3.org/2000/svg" viewBox="0 0 230 230">
  <defs>
    <style>
      .cls-1 {
        font-family: Poppins-SemiBold, Poppins;
        font-size: 80px;
        font-weight: 600;
      }

      .cls-1, .cls-2 {
        fill: #2d2d2d;
      }

      .cls-2, .cls-3, .cls-4 {
        stroke-width: 0px;
      }

      .cls-3, .cls-5 {
        fill: #80edb6;
      }

      .cls-4 {
        fill: #fff;
      }

      .cls-5 {
        stroke: #2d2d2d;
        stroke-linejoin: round;
        stroke-width: 5px;
      }
    </style>
  </defs>
  <g>
    <polygon class="cls-5" points="155.52 211.77 115 194.36 74.48 211.77 74.48 104.89 155.52 104.89 155.52 211.77"/>
    <g>
      <path class="cls-4" d="M92.62,160.49c-10.4,0-20.1-5.6-25.3-14.61l-22.38-38.76c-5.2-9.01-5.2-20.2,0-29.21l22.38-38.76c5.2-9.01,14.9-14.61,25.3-14.61h44.76c10.4,0,20.1,5.6,25.3,14.61l22.38,38.76c5.2,9.01,5.2,20.2,0,29.21l-22.38,38.76c-5.2,9.01-14.9,14.61-25.3,14.61h-44.76Z"/>
      <path class="cls-2" d="M137.38,34.53c6.86,0,13.21,3.66,16.64,9.61l22.38,38.76c3.43,5.94,3.43,13.27,0,19.21l-22.38,38.76c-3.43,5.94-9.77,9.61-16.64,9.61h-44.76c-6.86,0-13.21-3.66-16.64-9.61l-22.38-38.76c-3.43-5.94-3.43-13.27,0-19.21l22.38-38.76c3.43-5.94,9.77-9.61,16.64-9.61h44.76M137.38,14.53h-44.76c-13.96,0-26.98,7.51-33.96,19.61l-22.38,38.76c-6.98,12.09-6.98,27.12,0,39.21l22.38,38.76c6.98,12.09,19.99,19.61,33.96,19.61h44.76c13.96,0,26.98-7.51,33.96-19.61l22.38-38.76c6.98-12.09,6.98-27.12,0-39.21l-22.38-38.76c-6.98-12.09-19.99-19.61-33.96-19.61h0Z"/>
    </g>
    <path class="cls-3" d="M140.52,29.1c6.86,0,13.21,3.66,16.64,9.61l25.52,44.2c3.43,5.94,3.43,13.27,0,19.21l-25.52,44.2c-3.43,5.94-9.77,9.61-16.64,9.61h-51.03c-6.86,0-13.21-3.66-16.64-9.61l-25.52-44.2c-3.43-5.94-3.43-13.27,0-19.21l25.52-44.2c3.43-5.94,9.77-9.61,16.64-9.61h51.03M140.52,23.1h-51.03c-8.98,0-17.34,4.83-21.83,12.61l-25.52,44.2c-4.49,7.78-4.49,17.44,0,25.21l25.52,44.2c4.49,7.78,12.86,12.61,21.83,12.61h51.03c8.98,0,17.34-4.83,21.83-12.61l25.52-44.2c4.49-7.78,4.49-17.44,0-25.21l-25.52-44.2c-4.49-7.78-12.86-12.61-21.83-12.61h0Z"/>
    <text class="cls-1" transform="translate(100.52 122.11)"><tspan x="0" y="0">1</tspan></text>
  </g>
  <polygon class="cls-3" points="23.05 30.34 4.61 35.76 23.05 41.18 28.47 59.62 33.89 41.18 52.33 35.76 33.89 30.34 28.47 11.9 23.05 30.34"/>
  <polygon class="cls-3" points="56.95 9.28 48.05 11.9 56.95 14.52 59.57 23.42 62.19 14.52 71.09 11.9 62.19 9.28 59.57 .38 56.95 9.28"/>
  <polygon class="cls-3" points="188.05 160.98 179.15 163.59 188.05 166.21 190.67 175.11 193.28 166.21 202.19 163.59 193.28 160.98 190.67 152.07 188.05 160.98"/>
</svg>