<?xml version="1.0" encoding="UTF-8"?>
<svg id="Layer_1" data-name="Layer 1" xmlns="http://www.w3.org/2000/svg" viewBox="0 0 230 230">
  <defs>
    <style>
      .cls-1 {
        font-family: Poppins-SemiBold, Poppins;
        font-size: 80px;
        font-weight: 600;
      }

      .cls-1, .cls-2 {
        fill: #2d2d2d;
      }

      .cls-2, .cls-3, .cls-4, .cls-5 {
        stroke-width: 0px;
      }

      .cls-3 {
        fill: #80edb6;
      }

      .cls-6 {
        stroke: #2d2d2d;
        stroke-linejoin: round;
        stroke-width: 5px;
      }

      .cls-6, .cls-4 {
        fill: #83daeb;
      }

      .cls-5 {
        fill: #fff;
      }
    </style>
  </defs>
  <g>
    <polygon class="cls-6" points="155.52 211.77 115 194.36 74.48 211.77 74.48 104.89 155.52 104.89 155.52 211.77"/>
    <g>
      <path class="cls-5" d="M92.62,160.49c-10.4,0-20.1-5.6-25.3-14.61l-22.38-38.76c-5.2-9.01-5.2-20.2,0-29.21l22.38-38.76c5.2-9.01,14.89-14.61,25.3-14.61h44.76c10.4,0,20.1,5.6,25.3,14.61l22.38,38.76c5.2,9.01,5.2,20.2,0,29.21l-22.38,38.76c-5.2,9.01-14.89,14.61-25.3,14.61h-44.76Z"/>
      <path class="cls-2" d="M137.38,34.53c6.86,0,13.21,3.66,16.64,9.61l22.38,38.76c3.43,5.94,3.43,13.27,0,19.21l-22.38,38.76c-3.43,5.94-9.77,9.61-16.64,9.61h-44.76c-6.86,0-13.21-3.66-16.64-9.61l-22.38-38.76c-3.43-5.94-3.43-13.27,0-19.21l22.38-38.76c3.43-5.94,9.77-9.61,16.64-9.61h44.76M137.38,14.53h-44.76c-13.96,0-26.98,7.51-33.96,19.61l-22.38,38.76c-6.98,12.09-6.98,27.12,0,39.21l22.38,38.76c6.98,12.09,19.99,19.61,33.96,19.61h44.76c13.96,0,26.98-7.51,33.96-19.61l22.38-38.76c6.98-12.09,6.98-27.12,0-39.21l-22.38-38.76c-6.98-12.09-19.99-19.61-33.96-19.61h0Z"/>
    </g>
    <path class="cls-4" d="M140.52,29.1c6.86,0,13.21,3.66,16.64,9.61l25.52,44.2c3.43,5.94,3.43,13.27,0,19.21l-25.52,44.2c-3.43,5.94-9.77,9.61-16.64,9.61h-51.03c-6.86,0-13.21-3.66-16.64-9.61l-25.52-44.2c-3.43-5.94-3.43-13.27,0-19.21l25.52-44.2c3.43-5.94,9.77-9.61,16.64-9.61h51.03M140.52,23.1h-51.03c-8.98,0-17.34,4.83-21.83,12.61l-25.52,44.2c-4.49,7.78-4.49,17.44,0,25.21l25.52,44.2c4.49,7.78,12.86,12.61,21.83,12.61h51.03c8.98,0,17.34-4.83,21.83-12.61l25.52-44.2c4.49-7.78,4.49-17.44,0-25.21l-25.52-44.2c-4.49-7.78-12.86-12.61-21.83-12.61h0Z"/>
    <text class="cls-1" transform="translate(92.04 122.11)"><tspan x="0" y="0">2</tspan></text>
  </g>
  <polygon class="cls-3" points="203.35 38 194.45 40.62 203.35 43.24 205.97 52.14 208.59 43.24 217.49 40.62 208.59 38 205.97 29.1 203.35 38"/>
  <polygon class="cls-3" points="30.95 151.27 12.51 156.69 30.95 162.11 36.37 180.55 41.79 162.11 60.23 156.69 41.79 151.27 36.37 132.83 30.95 151.27"/>
  <polygon class="cls-3" points="51.7 175.13 44.01 177.39 51.7 179.65 53.96 187.34 56.22 179.65 63.91 177.39 56.22 175.13 53.96 167.44 51.7 175.13"/>
</svg>