<?xml version="1.0" encoding="UTF-8"?>
<svg version="1.1" xmlns="http://www.w3.org/2000/svg" width="230" height="230">
<path d="M0 0 C1.24950439 -0.00287018 2.49900879 -0.00574036 3.78637695 -0.00869751 C7.08370034 -0.01124603 10.38059041 0.00071539 13.67785645 0.01757812 C15.68609207 0.02343339 17.6939344 0.01759454 19.70214844 0.00732422 C23.59328122 -0.01130507 27.48384231 -0.0089382 31.375 0 C32.5606958 -0.00607269 33.7463916 -0.01214539 34.96801758 -0.0184021 C44.25948163 0.05948018 52.42303553 1.48191638 60.375 6.5234375 C61.64923828 7.30074219 61.64923828 7.30074219 62.94921875 8.09375 C70.85887322 14.75094849 75.59159557 24.06036572 80.5625 32.9609375 C81.26716331 34.21142591 81.97240865 35.4615865 82.67822266 36.71142578 C84.05992759 39.16026226 85.43773216 41.61122785 86.8125 44.06396484 C88.41254604 46.90946339 90.02751336 49.74508948 91.65625 52.57421875 C92.28104248 53.66464478 92.28104248 53.66464478 92.91845703 54.77709961 C93.65052201 56.05454206 94.38559209 57.33027001 95.12451172 58.60375977 C98.92767993 65.30131476 100.07018759 70.94714405 100.125 78.5234375 C100.15787109 79.30203125 100.19074219 80.080625 100.22460938 80.8828125 C100.33211697 92.88456926 93.35114718 103.20000964 87.4375 113.2109375 C86.44387451 114.91008301 86.44387451 114.91008301 85.43017578 116.64355469 C83.52296156 119.89936534 81.60555575 123.149007 79.6875 126.3984375 C78.75193281 128.00091031 77.8169471 129.60372291 76.8828125 131.20703125 C68.01910097 146.28710684 68.01910097 146.28710684 62.57324219 148.8828125 C59.29290648 151.74242156 59.23187815 152.22779653 58.91455078 156.35058594 C58.873608 158.40261365 58.86505703 160.45545318 58.8828125 162.5078125 C58.86225296 164.13073212 58.86225296 164.13073212 58.84127808 165.78643799 C58.80389879 169.24085775 58.80769862 172.69384377 58.8125 176.1484375 C58.79437894 178.49090797 58.77357813 180.83335935 58.75 183.17578125 C58.69807482 188.9168075 58.67995001 194.65719807 58.6875 200.3984375 C53.17780955 200.85560396 49.53042551 199.3376301 44.65625 197.08203125 C43.10815137 196.39370373 41.55997182 195.7055582 40.01171875 195.01757812 C37.59365668 193.92706508 35.17796528 192.8315928 32.76416016 191.73168945 C30.42124959 190.66887432 28.07065034 189.62476758 25.71875 188.58203125 C25.00295776 188.24876328 24.28716553 187.9154953 23.54968262 187.5721283 C17.60067653 184.94768324 14.19599494 185.42793726 8.07226562 187.79711914 C6.74340127 188.37815796 5.41733841 188.96563479 4.09375 189.55859375 C2.63681073 190.19357045 1.17977658 190.8283295 -0.27734375 191.46289062 C-2.55005566 192.46208746 -4.82113475 193.46476992 -7.09033203 194.47192383 C-9.29579863 195.44775812 -11.50680819 196.41004652 -13.71875 197.37109375 C-14.39079468 197.67418961 -15.06283936 197.97728546 -15.75524902 198.28956604 C-19.77260422 200.02637331 -22.94186426 200.72589716 -27.3125 200.3984375 C-27.30726318 199.79788544 -27.30202637 199.19733337 -27.29663086 198.57858276 C-27.24986892 192.3161087 -27.25899983 186.05546828 -27.30029297 179.79296875 C-27.30839371 177.45736263 -27.30234012 175.12166212 -27.28173828 172.78613281 C-27.2545541 169.42387824 -27.27861298 166.06525123 -27.3125 162.703125 C-27.2930835 161.66227753 -27.27366699 160.62143005 -27.25366211 159.54904175 C-27.28106163 154.05364827 -27.28106163 154.05364827 -30.03463745 149.52713013 C-32.12731411 147.95728101 -32.12731411 147.95728101 -34.3427124 146.62252808 C-41.76322097 142.01118083 -46.11395167 130.69982065 -50.1875 123.2734375 C-51.40856252 121.06624488 -52.62991688 118.85921369 -53.8515625 116.65234375 C-54.43969727 115.5864502 -55.02783203 114.52055664 -55.63378906 113.42236328 C-57.11985846 110.74545002 -58.62550608 108.08183962 -60.1484375 105.42578125 C-60.5623877 104.70213379 -60.97633789 103.97848633 -61.40283203 103.23291016 C-62.14734605 101.93479118 -62.89541768 100.63870249 -63.64794922 99.34521484 C-67.50867921 92.57896745 -68.69455903 86.93661201 -68.75 79.2734375 C-68.78287109 78.49484375 -68.81574219 77.71625 -68.84960938 76.9140625 C-68.95711697 64.91230574 -61.97614718 54.59686536 -56.0625 44.5859375 C-55.40008301 43.45317383 -54.73766602 42.32041016 -54.05517578 41.15332031 C-52.14796156 37.89750966 -50.23055575 34.647868 -48.3125 31.3984375 C-47.37693281 29.79596469 -46.4419471 28.19315209 -45.5078125 26.58984375 C-36.61212244 11.45536221 -36.61212244 11.45536221 -29.125 6.7109375 C-28.26519531 6.15019531 -27.40539062 5.58945312 -26.51953125 5.01171875 C-17.82690971 0.63893836 -9.62751425 -0.04930855 0 0 Z " fill="#2D2E2E" transform="translate(99.3125,13.6015625)"/>
<path d="M0 0 C1.61263985 -0.01925285 1.61263985 -0.01925285 3.25785828 -0.03889465 C5.00157463 -0.04997505 5.00157463 -0.04997505 6.78051758 -0.0612793 C8.57686394 -0.07338692 8.57686394 -0.07338692 10.40950012 -0.08573914 C12.94730176 -0.09957983 15.48512202 -0.11030204 18.02294922 -0.11816406 C21.89237069 -0.13535288 25.76093253 -0.17923837 29.63012695 -0.22338867 C32.09691755 -0.23351781 34.56371541 -0.24203322 37.03051758 -0.2487793 C38.7590522 -0.27504143 38.7590522 -0.27504143 40.52250671 -0.30183411 C48.10712786 -0.28149287 53.86574733 0.60581258 59.56762695 5.86499023 C59.96401367 6.44490723 60.36040039 7.02482422 60.76879883 7.62231445 C61.24575195 8.31873047 61.72270508 9.01514648 62.21411133 9.73266602 C65.35166544 14.76683137 68.3170276 19.88946444 71.23754883 25.05200195 C72.51797759 27.29986578 73.79921661 29.54726827 75.08129883 31.79418945 C75.69489258 32.8728125 76.30848633 33.95143555 76.94067383 35.06274414 C79.06046079 38.73665752 81.25859517 42.35773543 83.4934082 45.96264648 C86.55911564 51.41907632 87.52099324 55.98198778 86.73754883 62.17700195 C85.85256063 64.90583061 84.55618348 67.26766931 83.11254883 69.73950195 C82.72156006 70.44131592 82.33057129 71.14312988 81.92773438 71.86621094 C80.55222161 74.31579375 79.14533152 76.74582954 77.73754883 79.17700195 C76.56928353 81.22891647 75.40133082 83.28100899 74.23364258 85.33325195 C73.00778275 87.4698201 71.77992685 89.60524428 70.55004883 91.73950195 C69.96852051 92.75020752 69.38699219 93.76091309 68.7878418 94.80224609 C66.24528968 99.15435257 63.65942598 103.481362 60.81176758 107.6418457 C60.40917725 108.23473389 60.00658691 108.82762207 59.59179688 109.43847656 C53.00566819 115.61356839 45.83529316 115.7698 37.17114258 115.70825195 C35.9782814 115.71207886 34.78542023 115.71590576 33.55641174 115.71984863 C31.04427238 115.72256098 28.53210444 115.71524753 26.02001953 115.69848633 C22.1836841 115.6770502 18.34921742 115.69832306 14.51293945 115.72387695 C12.06566971 115.72123393 9.61840113 115.71610948 7.17114258 115.70825195 C6.02931015 115.71634888 4.88747772 115.7244458 3.71104431 115.73278809 C-3.7482028 115.6452818 -8.46469972 114.85217561 -13.97949219 109.51538086 C-18.08416735 103.69271703 -21.66415828 97.57820159 -25.16650391 91.37963867 C-26.18840083 89.57242856 -27.21980826 87.77092281 -28.25268555 85.9699707 C-42.79464176 60.48437243 -42.79464176 60.48437243 -41.26245117 53.17700195 C-37.55525298 44.84723826 -32.94718214 36.96059918 -28.32495117 29.11450195 C-27.74293945 28.11612305 -27.16092773 27.11774414 -26.5612793 26.08911133 C-11.34264538 0.11799852 -11.34264538 0.11799852 0 0 Z " fill="#FDFDFD" transform="translate(92.262451171875,34.822998046875)"/>
<path d="M0 0 C1.29814133 -0.0066568 2.59628265 -0.0133136 3.9337616 -0.02017212 C6.67470628 -0.03210148 9.41552536 -0.03585749 12.15649414 -0.03466797 C15.6430847 -0.0344651 19.12885724 -0.06175204 22.6152544 -0.09621239 C25.97267951 -0.12399808 29.32996175 -0.12263492 32.6875 -0.125 C34.54578178 -0.14655655 34.54578178 -0.14655655 36.44160461 -0.16854858 C45.84077748 -0.11944786 54.66178627 1.40397139 61.54296875 8.3359375 C63.47265625 11.09375 63.47265625 11.09375 65.41796875 14.4609375 C65.7845459 15.08983887 66.15112305 15.71874023 66.52880859 16.36669922 C67.37729625 17.82645196 68.22083428 19.28908813 69.06054688 20.75390625 C70.76676353 23.72573553 72.49059472 26.68703537 74.21484375 29.6484375 C78.017109 36.19631275 81.81474716 42.74554153 85.54296875 49.3359375 C86.19458984 50.47732178 86.84621094 51.61870605 87.51757812 52.79467773 C88.14728516 53.92333252 88.77699219 55.0519873 89.42578125 56.21484375 C89.99441895 57.22619385 90.56305664 58.23754395 91.14892578 59.27954102 C93.87978246 65.2668606 94.40630135 71.02490526 92.54296875 77.3359375 C89.01193019 85.74720086 84.24238305 93.53946426 79.54296875 101.3359375 C78.69090988 102.78409959 77.84042075 104.23318756 76.9921875 105.68359375 C75.572934 108.09509325 74.12789798 110.48733601 72.65625 112.8671875 C71.13344718 115.33544732 69.68818505 117.83547054 68.2734375 120.3671875 C63.21950592 129.31900679 58.58436799 135.87296711 48.54296875 139.3359375 C45.56584167 139.60336304 45.56584167 139.60336304 42.22729492 139.62646484 C40.97216599 139.63922455 39.71703705 139.65198425 38.4238739 139.66513062 C37.06123001 139.6681888 35.69858404 139.67041628 34.3359375 139.671875 C32.92735155 139.67830865 31.51876692 139.68503743 30.11018372 139.69204712 C27.16058253 139.70400271 24.2110983 139.7077298 21.26147461 139.70654297 C17.49888758 139.70634005 13.73705818 139.73362052 9.97465038 139.76808739 C7.06538004 139.79042868 4.15628983 139.7943783 1.24694252 139.79332352 C-0.13922418 139.79566945 -1.52539661 139.80443575 -2.91147804 139.81998825 C-13.35163345 139.9261517 -20.64555858 138.79542007 -28.45703125 131.3359375 C-29.93693988 129.20271028 -31.24442648 127.14530887 -32.51953125 124.8984375 C-33.08426147 123.93031128 -33.08426147 123.93031128 -33.66040039 122.94262695 C-34.93672276 120.74644651 -36.1970804 118.54154683 -37.45703125 116.3359375 C-38.42281461 114.66124924 -39.38897412 112.98677787 -40.35546875 111.3125 C-42.40303359 107.75979133 -44.42618586 104.19443056 -46.4375 100.62109375 C-48.36764614 97.20363268 -50.36393172 93.84685256 -52.4453125 90.51953125 C-57.33921193 82.56315031 -61.09791279 75.76956797 -60.3671875 66.10546875 C-58.51543931 58.43621122 -54.52484786 52.01931935 -50.45703125 45.3359375 C-49.62913104 43.91881101 -48.80487853 42.49954689 -47.984375 41.078125 C-46.34713993 38.25129572 -44.69126864 35.43704376 -43.015625 32.6328125 C-41.23659286 29.65518062 -39.48124075 26.66522135 -37.7421875 23.6640625 C-37.29673584 22.89771484 -36.85128418 22.13136719 -36.39233398 21.34179688 C-35.54395591 19.88120187 -34.69823864 18.41905677 -33.85571289 16.95507812 C-29.36399895 9.25339323 -24.76597366 3.17978025 -15.73330688 0.73968506 C-10.55011977 -0.1796672 -5.24790899 0.00938207 0 0 Z M-20.18945312 18.02392578 C-24.5221893 24.18250299 -28.25111528 30.66007593 -31.95703125 37.2109375 C-33.23746001 39.45880133 -34.51869904 41.70620382 -35.80078125 43.953125 C-36.414375 45.03174805 -37.02796875 46.11037109 -37.66015625 47.22167969 C-39.77994321 50.89559307 -41.9780776 54.51667097 -44.21289062 58.12158203 C-47.03600617 63.14624019 -48.18217207 67.55986376 -47.45703125 73.3359375 C-46.28637582 76.79492017 -46.28637582 76.79492017 -44.39453125 80.2109375 C-44.05309082 80.86513672 -43.71165039 81.51933594 -43.35986328 82.19335938 C-39.66722951 89.15490778 -35.74264294 95.99522505 -31.83203125 102.8359375 C-31.199021 103.94565918 -30.56601074 105.05538086 -29.91381836 106.19873047 C-23.04076151 119.15427717 -23.04076151 119.15427717 -11.45703125 127.3359375 C-7.3085061 127.90792101 -3.20613164 127.89684768 0.9765625 127.8671875 C2.16846695 127.8710144 3.3603714 127.87484131 4.58839417 127.87878418 C7.10231371 127.88149918 9.61626171 127.87416702 12.13012695 127.85742188 C15.96434984 127.83602744 19.79669484 127.85723008 23.63085938 127.8828125 C26.0794312 127.88016878 28.52800185 127.8750429 30.9765625 127.8671875 C32.6862748 127.87933289 32.6862748 127.87933289 34.43052673 127.89172363 C41.93686889 127.80392237 47.69542336 126.85427007 53.35766602 121.67651367 C57.77953009 115.22482244 61.64512793 108.45927071 65.48046875 101.6484375 C66.16424596 100.44569759 66.84848865 99.2432222 67.53320312 98.04101562 C69.21960814 95.07343722 70.89086639 92.09776663 72.55160522 89.11575317 C73.22055494 87.91477376 73.89135534 86.71482356 74.56387329 85.51583862 C75.54836882 83.75669503 76.52239664 81.991706 77.49609375 80.2265625 C78.06360352 79.20208008 78.63111328 78.17759766 79.21582031 77.12207031 C81.21061831 72.93431558 81.76686335 69.82997064 80.54296875 65.3359375 C76.90433495 56.98611642 72.22212188 49.11006651 67.60546875 41.2734375 C67.02345703 40.27505859 66.44144531 39.27667969 65.84179688 38.24804688 C64.09420432 35.26572115 62.32484968 32.29789152 60.54296875 29.3359375 C59.94081543 28.32805176 59.33866211 27.32016602 58.71826172 26.28173828 C58.12287598 25.31091309 57.52749023 24.34008789 56.9140625 23.33984375 C56.12213501 22.0396228 56.12213501 22.0396228 55.31420898 20.71313477 C52.12670314 16.43515484 48.55666789 14.02786446 43.54296875 12.3359375 C40.86859828 12.02402793 40.86859828 12.02402793 38.03759766 12.04541016 C36.9594278 12.03265045 35.88125793 12.01989075 34.77041626 12.00674438 C33.61512421 12.00451874 32.45983215 12.00229309 31.26953125 12 C30.07242523 11.9933432 28.87531921 11.9866864 27.64193726 11.97982788 C25.11189305 11.96971141 22.58182222 11.96501055 20.05175781 11.96533203 C16.18900408 11.9609613 12.32739525 11.92463518 8.46484375 11.88671875 C6.00391015 11.88084989 3.54297113 11.87688096 1.08203125 11.875 C-0.64483414 11.85344345 -0.64483414 11.85344345 -2.40658569 11.83145142 C-9.92689205 11.87412131 -14.64495406 12.62163342 -20.18945312 18.02392578 Z " fill="#80D4E5" transform="translate(98.45703125,22.6640625)"/>
<path d="M0 0 C1.75288582 -0.02882263 1.75288582 -0.02882263 3.54118347 -0.05822754 C4.79643326 -0.06672729 6.05168304 -0.07522705 7.3449707 -0.08398438 C8.64594193 -0.09538452 9.94691315 -0.10678467 11.28730774 -0.11853027 C14.04018707 -0.13949614 16.7929506 -0.15121543 19.54589844 -0.15820312 C23.04858956 -0.16913796 26.54971197 -0.21713328 30.05191326 -0.27414703 C33.42039743 -0.32070175 36.78868204 -0.32431899 40.1574707 -0.33398438 C41.40259933 -0.35867798 42.64772797 -0.38337158 43.93058777 -0.40881348 C52.07905825 -0.36751768 57.70937832 1.09366341 64.08325195 6.32226562 C66.02370509 8.44532008 67.05708637 10.28640161 68.45825195 12.88476562 C68.81145508 13.51970947 69.1646582 14.15465332 69.52856445 14.80883789 C70.30614273 16.20804606 71.07366237 17.61288023 71.83227539 19.02246094 C73.67204867 22.40471393 75.60607018 25.73096339 77.53198242 29.06469727 C79.07942796 31.75312208 80.60601215 34.45259095 82.13012695 37.15429688 C83.97885682 40.41978214 85.87606703 43.64204624 87.84887695 46.83398438 C88.27040039 47.53273682 88.69192383 48.23148926 89.1262207 48.95141602 C89.89596631 50.22420532 90.68340767 51.48657322 91.4934082 52.73413086 C94.6617113 58.05690974 95.14191851 63.24714828 94.08325195 69.32226562 C92.46460326 73.48942503 90.28060936 77.19849839 87.95825195 81.00976562 C87.33313721 82.07614258 86.70802246 83.14251953 86.06396484 84.24121094 C84.75149225 86.47672856 83.42946541 88.70666182 82.09838867 90.93115234 C80.09561914 94.30145386 78.14674535 97.69759484 76.2121582 101.10742188 C74.9822637 103.26269758 73.75181489 105.41765709 72.52075195 107.57226562 C71.95018066 108.57733154 71.37960938 109.58239746 70.79174805 110.61791992 C66.61233007 117.82460202 62.23042977 124.31933863 54.08325195 127.32226562 C49.54882806 127.90009806 45.05149052 127.85914996 40.4855957 127.81835938 C38.52415367 127.82054222 38.52415367 127.82054222 36.52308655 127.82276917 C33.76518427 127.82414811 31.00780526 127.81167969 28.25 127.78881836 C24.72721292 127.76040632 21.20529226 127.76318496 17.68244076 127.77590847 C14.30423609 127.7845609 10.92628579 127.76941135 7.5480957 127.75585938 C5.65884621 127.76026283 5.65884621 127.76026283 3.73143005 127.76475525 C2.55323196 127.75207108 1.37503387 127.7393869 0.16113281 127.72631836 C-1.38605186 127.71821388 -1.38605186 127.71821388 -2.9644928 127.70994568 C-9.03920245 126.9122356 -12.95630476 123.81925341 -16.91674805 119.32226562 C-18.24746496 117.3907356 -19.51274022 115.4128764 -20.7175293 113.40039062 C-21.05528885 112.83910461 -21.3930484 112.2778186 -21.74104309 111.69952393 C-25.62399295 105.21260147 -29.37087898 98.64598972 -33.10424805 92.07226562 C-34.13718262 90.26032117 -35.17068186 88.44870088 -36.20462036 86.6373291 C-37.18765567 84.90795105 -38.16047948 83.17278111 -39.13305664 81.4375 C-40.21531485 79.54732552 -41.33418338 77.67668666 -42.5168457 75.84765625 C-46.15909601 70.08257487 -47.0950727 65.08976881 -45.91674805 58.32226562 C-44.67015353 54.85615814 -42.95757764 51.83471458 -41.04174805 48.69726562 C-40.54433105 47.84044189 -40.04691406 46.98361816 -39.53442383 46.10083008 C-38.01592373 43.49510702 -36.46744038 40.90892048 -34.91674805 38.32226562 C-34.03381568 36.80952935 -33.15346497 35.29528228 -32.27612305 33.77929688 C-30.25211549 30.29059368 -28.19457024 26.82329314 -26.12524414 23.36132812 C-24.88854182 21.27467403 -23.67610706 19.17531657 -22.4675293 17.07226562 C-21.67986694 15.71804192 -20.89211043 14.36387297 -20.10424805 13.00976562 C-19.75539551 12.39319092 -19.40654297 11.77661621 -19.04711914 11.14135742 C-14.53016402 3.45134355 -8.82915934 0.11767295 0 0 Z M-12.64916992 12.01025391 C-16.9819061 18.16883112 -20.71083208 24.64640406 -24.41674805 31.19726562 C-25.69717681 33.44512945 -26.97841583 35.69253194 -28.26049805 37.93945312 C-28.8740918 39.01807617 -29.48768555 40.09669922 -30.11987305 41.20800781 C-32.23966001 44.88192119 -34.43779439 48.5029991 -36.67260742 52.10791016 C-39.49572296 57.13256831 -40.64188887 61.54619189 -39.91674805 67.32226562 C-38.74609262 70.7812483 -38.74609262 70.7812483 -36.85424805 74.19726562 C-36.51280762 74.85146484 -36.17136719 75.50566406 -35.81958008 76.1796875 C-32.12694631 83.1412359 -28.20235974 89.98155318 -24.29174805 96.82226562 C-23.65873779 97.9319873 -23.02572754 99.04170898 -22.37353516 100.18505859 C-15.50047831 113.1406053 -15.50047831 113.1406053 -3.91674805 121.32226562 C0.2317771 121.89424913 4.33415157 121.88317581 8.5168457 121.85351562 C9.70875015 121.85734253 10.9006546 121.86116943 12.12867737 121.8651123 C14.64259692 121.86782731 17.15654491 121.86049515 19.67041016 121.84375 C23.50463305 121.82235557 27.33697804 121.84355821 31.17114258 121.86914062 C33.6197144 121.86649691 36.06828506 121.86137103 38.5168457 121.85351562 C40.226558 121.86566101 40.226558 121.86566101 41.97080994 121.87805176 C49.47715209 121.79025049 55.23570657 120.8405982 60.89794922 115.6628418 C65.3198133 109.21115056 69.18541113 102.44559883 73.02075195 95.63476562 C73.70452916 94.43202572 74.38877185 93.22955032 75.07348633 92.02734375 C76.75989134 89.05976535 78.4311496 86.08409476 80.09188843 83.1020813 C80.76083814 81.90110188 81.43163854 80.70115169 82.10415649 79.50216675 C83.08865202 77.74302315 84.06267984 75.97803412 85.03637695 74.21289062 C85.60388672 73.1884082 86.17139648 72.16392578 86.75610352 71.10839844 C88.75090151 66.92064371 89.30714656 63.81629877 88.08325195 59.32226562 C84.44461815 50.97244455 79.76240508 43.09639464 75.14575195 35.25976562 C74.56374023 34.26138672 73.98172852 33.26300781 73.38208008 32.234375 C71.63448752 29.25204927 69.86513288 26.28421964 68.08325195 23.32226562 C67.48109863 22.31437988 66.87894531 21.30649414 66.25854492 20.26806641 C65.66315918 19.29724121 65.06777344 18.32641602 64.4543457 17.32617188 C63.66241821 16.02595093 63.66241821 16.02595093 62.85449219 14.69946289 C59.66698635 10.42148296 56.0969511 8.01419258 51.08325195 6.32226562 C48.40888148 6.01035606 48.40888148 6.01035606 45.57788086 6.03173828 C44.499711 6.01897858 43.42154114 6.00621887 42.31069946 5.99307251 C41.15540741 5.99084686 40.00011536 5.98862122 38.80981445 5.98632812 C37.61270844 5.97967133 36.41560242 5.97301453 35.18222046 5.96615601 C32.65217626 5.95603954 30.12210542 5.95133867 27.59204102 5.95166016 C23.72928728 5.94728943 19.86767845 5.9109633 16.00512695 5.87304688 C13.54419335 5.86717802 11.08325433 5.86320909 8.62231445 5.86132812 C6.89544907 5.83977158 6.89544907 5.83977158 5.13369751 5.81777954 C-2.38660884 5.86044943 -7.10467085 6.60796155 -12.64916992 12.01025391 Z " fill="#343737" transform="translate(90.916748046875,28.677734375)"/>
<path d="M0 0 C2.31 0.33 4.62 0.66 7 1 C9.15961207 1.08588293 11.32134751 1.12781051 13.48266602 1.12939453 C14.72407852 1.13254669 15.96549103 1.13569885 17.24452209 1.13894653 C18.58098385 1.1371566 19.91744527 1.13510561 21.25390625 1.1328125 C22.64200355 1.1334872 24.03010073 1.13445861 25.41819763 1.13571167 C28.31714002 1.13718032 31.21605146 1.13506061 34.11499023 1.13037109 C37.81913747 1.12466896 41.52321231 1.12796116 45.22735691 1.13394356 C48.09019002 1.13756713 50.95300613 1.13640243 53.81583977 1.13381577 C55.18130438 1.13315174 56.54677058 1.13395646 57.91223335 1.13629532 C59.82373141 1.13885198 61.73523494 1.1342605 63.64672852 1.12939453 C64.73147964 1.12859894 65.81623077 1.12780334 66.93385315 1.12698364 C70.50842191 1.04213389 70.50842191 1.04213389 76 0 C76 13.2 76 26.4 76 40 C73.03 38.824375 70.06 37.64875 67 36.4375 C66.01813721 36.04949219 65.03627441 35.66148437 64.0246582 35.26171875 C59.75461115 33.55846772 55.52355577 31.81592738 51.35546875 29.875 C50.64841797 29.54830322 49.94136719 29.22160645 49.21289062 28.88500977 C47.89854898 28.27013996 46.59068004 27.64116445 45.29101562 26.99584961 C40.71613944 24.86448537 37.88063433 25.0218015 33 26 C29.78561288 27.15243829 29.78561288 27.15243829 26.62109375 28.65234375 C24.86829102 29.44608398 24.86829102 29.44608398 23.08007812 30.25585938 C21.86566089 30.81591965 20.65146981 31.37647056 19.4375 31.9375 C17.04226168 33.03418814 14.64443449 34.12492965 12.24609375 35.21484375 C11.19091553 35.70073975 10.1357373 36.18663574 9.04858398 36.68725586 C6.09849113 37.95758895 3.0471486 38.9842838 0 40 C0 26.8 0 13.6 0 0 Z " fill="#81D7E7" transform="translate(77,168)"/>
<path d="M0 0 C1.27746094 -0.00773437 2.55492188 -0.01546875 3.87109375 -0.0234375 C8.46572365 0.47249081 11.7730632 1.74282962 15.20703125 4.875 C19.66575365 10.60125218 20.42091947 15.27536603 19.5625 22.375 C16.0518966 33.45480684 7.10403294 41.05368605 -1.4375 48.375 C5.8225 48.705 13.0825 49.035 20.5625 49.375 C20.5625 52.345 20.5625 55.315 20.5625 58.375 C7.6925 58.375 -5.1775 58.375 -18.4375 58.375 C-18.4375 49.375 -18.4375 49.375 -15.62109375 46.1171875 C-14.39273083 45.13545981 -13.14273372 44.18033109 -11.875 43.25 C-10.58203352 42.22168431 -9.29035193 41.19175083 -8 40.16015625 C-7.06994141 39.43723389 -7.06994141 39.43723389 -6.12109375 38.69970703 C0.90510056 33.17126586 6.78340705 26.65551891 8.125 17.5625 C7.76976718 14.35395024 7.76976718 14.35395024 6 11.9375 C2.65743717 9.79483152 0.45754791 9.87926663 -3.4375 10.375 C-6.77866896 12.44882901 -7.38419413 15.72894121 -8.4375 19.375 C-11.7375 19.375 -15.0375 19.375 -18.4375 19.375 C-18.14304231 12.11171043 -17.80692057 8.37832372 -12.4375 3.375 C-8.26967652 0.28417162 -5.14368903 -0.03107969 0 0 Z " fill="#303030" transform="translate(114.4375,62.625)"/>
<path d="M0 0 C2.70740662 2.70740662 3.1010554 5.2626766 4.125 8.9375 C4.47820313 10.18402344 4.83140625 11.43054688 5.1953125 12.71484375 C6 16 6 16 6 19 C6.61746094 19.10957031 7.23492187 19.21914062 7.87109375 19.33203125 C13.77712501 20.4377266 19.35197559 21.95361435 25 24 C24.67 24.66 24.34 25.32 24 26 C22.05777629 26.35351417 20.11504397 26.70449246 18.16967773 27.0402832 C10.95007302 28.35977008 10.95007302 28.35977008 5.61035156 32.99462891 C3.26330278 38.11555987 2.04788588 43.4857153 1 49 C0.34 48.67 -0.32 48.34 -1 48 C-1.37197249 46.0413652 -1.74085254 44.08207078 -2.09082031 42.11938477 C-3.3585617 34.99573853 -3.3585617 34.99573853 -7.88037109 29.74072266 C-11.61387734 28.19430487 -15.39276676 27.39869465 -19.359375 26.69140625 C-20.56078125 26.46324219 -21.7621875 26.23507813 -23 26 C-23.33 25.34 -23.66 24.68 -24 24 C-21.39741676 23.16142312 -18.79314353 22.32896656 -16.1875 21.5 C-15.44951172 21.26152344 -14.71152344 21.02304688 -13.95117188 20.77734375 C-10.86744804 19.80059864 -8.25504191 19 -5 19 C-4.9175 18.0925 -4.835 17.185 -4.75 16.25 C-3.9731113 10.62625347 -1.88196771 5.33078295 0 0 Z " fill="#80EDB6" transform="translate(36,132)"/>
<path d="M0 0 C0.66 0 1.32 0 2 0 C2.66 2.97 3.32 5.94 4 9 C6.97 9.66 9.94 10.32 13 11 C12.67 11.66 12.34 12.32 12 13 C10.329375 13.2784375 10.329375 13.2784375 8.625 13.5625 C4.93115 14.57384552 4.93115 14.57384552 3.87109375 17.12890625 C3.13303861 19.40725038 2.5056196 21.65970356 2 24 C1.34 24 0.68 24 0 24 C-0.185625 23.07767578 -0.185625 23.07767578 -0.375 22.13671875 C-1.52702031 17.1833674 -1.52702031 17.1833674 -4.98046875 13.734375 C-7.42318945 12.80866734 -7.42318945 12.80866734 -11 12 C-8.23776722 9.23776722 -5.79293383 9.42143709 -2 9 C-1.34 6.03 -0.68 3.06 0 0 Z " fill="#80EDB6" transform="translate(205,29)"/>
<path d="M0 0 C0.66 0 1.32 0 2 0 C2.185625 1.093125 2.37125 2.18625 2.5625 3.3125 C3.57516528 6.9490498 3.57516528 6.9490498 5.69140625 8.1328125 C7.83650143 9.05926212 7.83650143 9.05926212 11 10 C9 12 9 12 6.5 12.6875 C3.59129963 13.85619103 3.59129963 13.85619103 2.6875 17.625 C2.460625 18.73875 2.23375 19.8525 2 21 C1.34 21 0.68 21 0 21 C-0.185625 19.906875 -0.37125 18.81375 -0.5625 17.6875 C-1.57516528 14.0509502 -1.57516528 14.0509502 -3.69140625 12.8671875 C-5.83650143 11.94073788 -5.83650143 11.94073788 -9 11 C-8.67 10.34 -8.34 9.68 -8 9 C-7.030625 8.773125 -6.06125 8.54625 -5.0625 8.3125 C-4.051875 7.879375 -3.04125 7.44625 -2 7 C-0.53977565 3.47548841 -0.53977565 3.47548841 0 0 Z " fill="#80EDB6" transform="translate(53,167)"/>
</svg>
