<?xml version="1.0" encoding="UTF-8"?>
<svg id="Layer_1" data-name="Layer 1" xmlns="http://www.w3.org/2000/svg" viewBox="0 0 230 230">
  <defs>
    <style>
      .cls-1 {
        font-family: Poppins-SemiBold, Poppins;
        font-size: 80px;
        font-weight: 600;
      }

      .cls-1, .cls-2 {
        fill: #2d2d2d;
      }

      .cls-2, .cls-3, .cls-4, .cls-5 {
        stroke-width: 0px;
      }

      .cls-3, .cls-6 {
        fill: #ac80ed;
      }

      .cls-4 {
        fill: #80edb6;
      }

      .cls-6 {
        stroke: #2d2d2d;
        stroke-linejoin: round;
        stroke-width: 5px;
      }

      .cls-5 {
        fill: #fff;
      }
    </style>
  </defs>
  <g>
    <polygon class="cls-6" points="155.52 211.77 115 194.36 74.48 211.77 74.48 104.89 155.52 104.89 155.52 211.77"/>
    <g>
      <path class="cls-5" d="M92.62,160.49c-10.4,0-20.1-5.6-25.3-14.61l-22.38-38.76c-5.2-9.01-5.2-20.2,0-29.21l22.38-38.76c5.2-9.01,14.89-14.61,25.3-14.61h44.76c10.4,0,20.1,5.6,25.3,14.61l22.38,38.76c5.2,9.01,5.2,20.2,0,29.21l-22.38,38.76c-5.2,9.01-14.89,14.61-25.3,14.61h-44.76Z"/>
      <path class="cls-2" d="M137.38,34.53c6.86,0,13.21,3.66,16.64,9.61l22.38,38.76c3.43,5.94,3.43,13.27,0,19.21l-22.38,38.76c-3.43,5.94-9.77,9.61-16.64,9.61h-44.76c-6.86,0-13.21-3.66-16.64-9.61l-22.38-38.76c-3.43-5.94-3.43-13.27,0-19.21l22.38-38.76c3.43-5.94,9.77-9.61,16.64-9.61h44.76M137.38,14.53h-44.76c-13.96,0-26.98,7.51-33.96,19.61l-22.38,38.76c-6.98,12.09-6.98,27.12,0,39.21l22.38,38.76c6.98,12.09,19.99,19.61,33.96,19.61h44.76c13.96,0,26.98-7.51,33.96-19.61l22.38-38.76c6.98-12.09,6.98-27.12,0-39.21l-22.38-38.76c-6.98-12.09-19.99-19.61-33.96-19.61h0Z"/>
    </g>
    <path class="cls-3" d="M140.52,29.1c6.86,0,13.21,3.66,16.64,9.61l25.52,44.2c3.43,5.94,3.43,13.27,0,19.21l-25.52,44.2c-3.43,5.94-9.77,9.61-16.64,9.61h-51.03c-6.86,0-13.21-3.66-16.64-9.61l-25.52-44.2c-3.43-5.94-3.43-13.27,0-19.21l25.52-44.2c3.43-5.94,9.77-9.61,16.64-9.61h51.03M140.52,23.1h-51.03c-8.98,0-17.34,4.83-21.83,12.61l-25.52,44.2c-4.49,7.78-4.49,17.44,0,25.21l25.52,44.2c4.49,7.78,12.86,12.61,21.83,12.61h51.03c8.98,0,17.34-4.83,21.83-12.61l25.52-44.2c4.49-7.78,4.49-17.44,0-25.21l-25.52-44.2c-4.49-7.78-12.86-12.61-21.83-12.61h0Z"/>
    <text class="cls-1" transform="translate(91.04 122.11)"><tspan x="0" y="0">3</tspan></text>
  </g>
  <polygon class="cls-4" points="38.94 162.88 30.03 165.49 38.94 168.11 41.55 177.01 44.17 168.11 53.07 165.49 44.17 162.88 41.55 153.97 38.94 162.88"/>
  <polygon class="cls-4" points="192.63 21.25 174.19 26.67 192.63 32.09 198.05 50.53 203.47 32.09 221.91 26.67 203.47 21.25 198.05 2.81 192.63 21.25"/>
  <polygon class="cls-4" points="208.05 56.94 199.32 59.51 208.05 62.08 210.61 70.81 213.18 62.08 221.91 59.51 213.18 56.94 210.61 48.21 208.05 56.94"/>
</svg>