<svg width="20" height="20" viewBox="0 0 26 26" fill="none" xmlns="http://www.w3.org/2000/svg">
<path d="M14 7C14 6.44772 13.5523 6 13 6C12.4477 6 12 6.44771 12 7H14ZM12 19C12 19.5523 12.4477 20 13 20C13.5523 20 14 19.5523 14 19H12ZM19 14C19.5523 14 20 13.5523 20 13C20 12.4477 19.5523 12 19 12V14ZM7 12C6.44772 12 6 12.4477 6 13C6 13.5523 6.44772 14 7 14V12ZM24 13C24 19.0751 19.0751 24 13 24V26C20.1797 26 26 20.1797 26 13H24ZM13 24C6.92487 24 2 19.0751 2 13H0C0 20.1797 5.8203 26 13 26V24ZM2 13C2 6.92487 6.92487 2 13 2V0C5.8203 0 0 5.8203 0 13H2ZM13 2C19.0751 2 24 6.92487 24 13H26C26 5.8203 20.1797 0 13 0V2ZM12 7L12 13H14L14 7H12ZM12 13V19H14V13H12ZM19 12H13V14H19V12ZM13 12H7V14H13V12Z" fill="currentColor"/>
</svg>
