<svg viewBox="0 0 265 272" fill="none" xmlns="http://www.w3.org/2000/svg">
<path d="M135.595 165.259L135.345 165.552C134.121 166.951 128.541 172.648 119.877 172.635C114.297 172.631 107.338 170.317 99.2071 162.821L98.4553 162.632C98.4553 162.632 98.2925 162.671 97.967 162.739C96.9905 162.941 94.6209 163.355 91.6327 163.355C87.9838 163.358 83.4201 162.739 79.3025 160.432C75.1849 158.124 71.4644 154.162 69.4007 147.252C69.2738 146.825 68.8246 146.578 68.395 146.702L68.102 146.777C67.5031 146.917 66.0448 147.21 64.3196 147.206C62.6856 147.21 60.8205 146.946 59.1929 146.109C57.5654 145.266 56.1494 143.886 55.2901 141.471L54.7953 140.973L54.0955 141.048L53.8383 141.198C52.5982 141.901 47.0353 144.781 40.3722 144.775C33.8621 144.752 26.3171 142.138 20.2399 131.93L19.7418 131.556L19.5954 131.514C18.8109 131.289 15.0611 130.072 11.2072 126.875C7.35319 123.672 3.38845 118.523 2.07016 110.284C1.76419 108.367 1.62752 106.535 1.62752 104.796C1.62752 97.6711 3.90279 92.0431 6.17806 88.1859C7.31733 86.2589 8.45654 84.7746 9.30611 83.7818C9.72927 83.2838 10.0809 82.9095 10.3251 82.6589L10.6016 82.3821L10.6928 82.2976C10.9305 82.0795 11.0182 81.7409 10.9141 81.435L10.8295 81.1486C10.6635 80.5529 10.3217 79.0848 10.3217 77.2555C10.3217 75.3447 10.6895 73.0598 11.9785 70.905C13.2675 68.7501 15.4712 66.6896 19.3088 65.2281C19.6116 65.1109 19.8167 64.8245 19.833 64.5022C19.833 64.5022 19.846 64.167 19.9241 63.529C20.1943 61.2993 21.2456 55.6225 25.0377 50.3689C28.8396 45.1185 35.3107 40.2327 46.7489 39.4352C47.0809 39.4124 47.3674 39.1845 47.4683 38.8655L47.5724 38.5596C48.129 36.9939 50.9674 29.7287 57.8258 22.8931C64.6906 16.0608 75.5332 9.62555 92.3096 9.61903C96.1441 9.61903 100.291 9.95752 104.773 10.7062L105.47 10.4946L105.877 10.1333C107.83 8.45042 116.586 1.61813 128.773 1.6279C135.354 1.63115 142.958 3.59396 151.164 9.46606L151.984 9.54092L152.101 9.48878C152.691 9.23489 155.425 8.1608 158.797 8.16405C163.084 8.19334 168.321 9.77524 172.058 17.06C172.224 17.3855 172.582 17.5613 172.94 17.4897L173.272 17.4344C173.953 17.3302 175.639 17.1122 177.989 17.1122C186.006 17.1317 201.536 19.5795 211.493 37.4496C211.653 37.7361 211.968 37.8988 212.294 37.863L212.616 37.8402C212.837 37.8272 213.169 37.8142 213.592 37.8142C215.764 37.8109 220.34 38.169 225.05 40.6884C229.76 43.211 234.643 47.856 237.537 56.6283L238.002 57.1263L238.145 57.1914C238.917 57.5365 242.572 59.3105 246 62.9691C249.427 66.6376 252.64 72.1418 252.643 80.1199L252.64 80.5561L252.988 81.2332L253.057 81.282C253.822 81.8581 260.507 87.1508 260.504 97.899C260.504 100.454 260.126 103.325 259.199 106.531L259.271 107.16L259.397 107.394C259.99 108.533 262.428 113.67 262.421 119.942C262.421 122.767 261.933 125.824 260.576 128.88C258.108 134.427 255.729 137.744 253.997 139.664C253.128 140.621 252.422 141.233 251.947 141.598L251.406 141.972L251.283 142.047L251.26 142.06L251.331 142.2L251.263 142.06H251.26L251.331 142.2L251.263 142.06C250.983 142.197 250.807 142.487 250.814 142.799V142.975C250.814 144.202 250.703 151.702 248.229 160.314C245.759 168.934 240.938 178.617 231.616 184.385C225.649 188.083 218.296 189.405 210.907 189.405C202.366 189.405 193.802 187.64 187.389 185.873C184.183 184.988 181.514 184.105 179.649 183.441C177.781 182.781 176.736 182.344 176.732 182.344C176.316 182.172 175.841 182.371 175.668 182.784C175.496 183.201 175.694 183.676 176.111 183.848C176.16 183.861 193.385 191.022 210.907 191.032C218.482 191.029 226.137 189.691 232.475 185.769C242.289 179.685 247.259 169.591 249.795 160.764C252.331 151.926 252.441 144.3 252.441 142.975V142.776L251.628 142.786L251.992 143.515C252.178 143.424 257.015 140.901 262.063 129.541C263.528 126.247 264.049 122.956 264.049 119.942C264.042 112.296 260.722 106.424 260.69 106.359L259.98 106.759L260.761 106.984C261.731 103.641 262.132 100.614 262.132 97.899C262.122 85.647 254.014 79.9604 253.919 79.8986L253.454 80.5659L254.267 80.5757L254.271 80.1199C254.277 71.1262 250.355 64.958 246.459 61.1073C242.556 57.2468 238.682 55.6485 238.621 55.6225L238.311 56.3744L239.083 56.1205C236.082 46.9803 230.864 41.9383 225.815 39.2529C220.77 36.5609 215.936 36.1866 213.592 36.1866C212.678 36.1866 212.141 36.242 212.115 36.2452L212.203 37.0557L212.915 36.6586C202.616 18.1374 186.296 15.4651 177.989 15.4846C174.724 15.4846 172.667 15.885 172.628 15.8948L172.784 16.6922L173.51 16.3211C169.562 8.5025 163.497 6.50397 158.797 6.53653C154.553 6.53978 151.356 8.04034 151.294 8.06638L151.639 8.80202L152.115 8.14124C143.661 2.08687 135.68 -0.00288391 128.773 0.00038147C114.128 0.0166473 104.418 9.25768 104.347 9.31627L104.91 9.90544L105.043 9.10146C100.48 8.33652 96.2417 7.99152 92.3096 7.99152C73.9577 7.98175 62.2949 15.5725 55.3096 23.1632C48.3178 30.7507 45.9417 38.3089 45.9156 38.3773L46.6936 38.6214L46.6382 37.8109C33.0711 38.7223 25.8385 45.4017 22.1635 51.8239C18.4723 58.2395 18.212 64.359 18.2055 64.4306L19.0193 64.4665L18.7295 63.7048C14.6086 65.2672 12.0567 67.5913 10.5789 70.0684C9.10109 72.5487 8.6942 75.1429 8.6942 77.2555C8.6942 79.9637 9.35492 81.9037 9.37445 81.9591L10.1428 81.6986L9.59585 81.0964C9.52424 81.168 0.0130202 89.8265 0 104.796C0 106.619 0.143196 108.54 0.46219 110.542C1.92696 119.77 6.64679 125.459 10.9858 128.78C15.3247 132.106 19.2699 133.115 19.3382 133.132L19.5399 132.344L18.8401 132.76C25.1256 143.417 33.4097 146.428 40.3722 146.402C48.5196 146.393 54.88 142.467 54.9484 142.434L54.5219 141.741L53.7538 142.011C54.7303 144.798 56.4977 146.562 58.4507 147.558C60.4037 148.557 62.5196 148.834 64.3196 148.834C66.8618 148.834 68.7985 148.277 68.8441 148.267L68.6195 147.483L67.8384 147.717C69.9964 154.986 74.0424 159.367 78.5083 161.854C82.971 164.347 87.8048 164.982 91.6327 164.982C95.8187 164.982 98.8133 164.217 98.8556 164.207L98.657 163.42L98.1037 164.019C106.44 171.717 113.829 174.265 119.877 174.262C130.644 174.239 136.813 166.33 136.874 166.261C137.151 165.907 137.089 165.396 136.738 165.119C136.383 164.842 135.872 164.904 135.595 165.259Z" fill="url(#paint0_linear_289_5357)"/>
<path d="M116.505 120.357H114.047V71.225H116.505V120.357Z" fill="url(#paint1_linear_289_5357)"/>
<path d="M122.087 120.357H119.629V71.225H122.087V120.357Z" fill="url(#paint2_linear_289_5357)"/>
<path d="M127.673 120.357H125.215V71.225H127.673V120.357Z" fill="url(#paint3_linear_289_5357)"/>
<path d="M133.255 120.357H130.797V71.225H133.255V120.357Z" fill="url(#paint4_linear_289_5357)"/>
<path d="M138.834 120.357H136.38V71.225H138.834V120.357Z" fill="url(#paint5_linear_289_5357)"/>
<path d="M144.42 120.357H141.962V71.225H144.42V120.357Z" fill="url(#paint6_linear_289_5357)"/>
<path d="M150.002 120.357H147.544V71.225H150.002V120.357Z" fill="url(#paint7_linear_289_5357)"/>
<path d="M156.59 111.309V113.767H107.459V111.309H156.59Z" fill="url(#paint8_linear_289_5357)"/>
<path d="M156.59 105.726V108.184H107.459V105.726H156.59Z" fill="url(#paint9_linear_289_5357)"/>
<path d="M156.59 100.145V102.6H107.459V100.145H156.59Z" fill="url(#paint10_linear_289_5357)"/>
<path d="M156.59 94.5591V97.0166H107.459V94.5591H156.59Z" fill="url(#paint11_linear_289_5357)"/>
<path d="M156.59 88.978V91.4355H107.459V88.978H156.59Z" fill="url(#paint12_linear_289_5357)"/>
<path d="M156.59 83.3954V85.8497H107.459V83.3954H156.59Z" fill="url(#paint13_linear_289_5357)"/>
<path d="M156.59 77.8124V80.2666H107.459V77.8124H156.59Z" fill="url(#paint14_linear_289_5357)"/>
<path d="M46.1336 39.2143L88.9504 79.6321L89.5103 79.8535H112.312C112.761 79.8535 113.126 79.489 113.126 79.0398C113.126 78.5906 112.761 78.226 112.312 78.226H89.8325L47.2501 38.0295C46.9246 37.7235 46.4102 37.7365 46.101 38.0653C45.7918 38.3908 45.8081 38.9051 46.1336 39.2143Z" fill="url(#paint15_linear_289_5357)"/>
<path d="M36.2318 41.2112L80.7966 85.2031L81.3694 85.4375H112.312C112.761 85.4375 113.126 85.0729 113.126 84.6237C113.126 84.1745 112.761 83.81 112.312 83.81H81.7048L37.3742 40.0525C37.0552 39.7368 36.541 39.74 36.2253 40.059C35.9095 40.3813 35.9128 40.8955 36.2318 41.2112Z" fill="url(#paint16_linear_289_5357)"/>
<path d="M153.273 96.6046H179.688L251.182 143.467C251.556 143.715 252.061 143.611 252.308 143.233C252.555 142.859 252.448 142.354 252.074 142.107L180.375 95.1105L179.929 94.977H153.273C152.824 94.977 152.46 95.3416 152.46 95.7908C152.46 96.24 152.824 96.6046 153.273 96.6046Z" fill="url(#paint17_linear_289_5357)"/>
<path d="M18.4239 65.0198L52.7288 101.925L53.3244 102.183H111.616C112.065 102.183 112.429 101.821 112.429 101.369C112.429 100.92 112.065 100.558 111.616 100.558L53.6793 100.555L19.6153 63.9131C19.3094 63.5843 18.795 63.5648 18.4662 63.8708C18.1342 64.1768 18.118 64.6911 18.4239 65.0198Z" fill="url(#paint18_linear_289_5357)"/>
<path d="M9.54372 82.2459L32.6675 107.505L33.2698 107.769H111.615C112.065 107.769 112.429 107.404 112.429 106.955C112.429 106.506 112.065 106.141 111.615 106.141H33.6278L10.745 81.149C10.439 80.817 9.92469 80.7942 9.59267 81.0969C9.26392 81.3996 9.241 81.9172 9.54372 82.2459Z" fill="url(#paint19_linear_289_5357)"/>
<path d="M38.2144 65.208H60.8792C61.3284 65.208 61.693 64.8434 61.693 64.3942C61.693 63.9451 61.3284 63.5805 60.8792 63.5805H38.2144C37.7652 63.5805 37.4006 63.9451 37.4006 64.3942C37.4006 64.8434 37.7652 65.208 38.2144 65.208Z" fill="url(#paint20_linear_289_5357)"/>
<path d="M53.3599 79.0054L52.3248 101.335C52.302 101.784 52.6503 102.165 53.0994 102.184C53.5486 102.207 53.9296 101.859 53.9491 101.41L54.9841 79.0802C55.0069 78.631 54.6587 78.2502 54.2095 78.2274C53.7603 78.2079 53.3795 78.5562 53.3599 79.0054Z" fill="url(#paint21_linear_289_5357)"/>
<path d="M37.6443 64.4673H36.8305C36.8305 65.5935 35.9192 66.505 34.7929 66.5082C33.6634 66.505 32.752 65.5935 32.752 64.4673C32.752 63.3411 33.6634 62.4296 34.7929 62.4264C35.9192 62.4296 36.8305 63.3411 36.8305 64.4673H37.6443H38.458C38.458 62.4427 36.8176 60.7989 34.7929 60.7989C32.7651 60.7989 31.1245 62.4427 31.1245 64.4673C31.1245 66.4952 32.7651 68.1357 34.7929 68.1357C36.8176 68.1357 38.458 66.4952 38.458 64.4673H37.6443Z" fill="url(#paint22_linear_289_5357)"/>
<path d="M92.6127 47.9121H115.274C115.724 47.9121 116.088 47.5475 116.088 47.0983C116.088 46.6491 115.724 46.2846 115.274 46.2846H92.6127C92.1635 46.2846 91.7989 46.6491 91.7989 47.0983C91.7989 47.5475 92.1635 47.9121 92.6127 47.9121Z" fill="url(#paint23_linear_289_5357)"/>
<path d="M92.043 47.1713H91.2293C91.2293 48.2975 90.3179 49.2089 89.1884 49.2122C88.0621 49.2089 87.1507 48.2975 87.1474 47.1713C87.1507 46.045 88.0621 45.1336 89.1884 45.1304C90.3179 45.1336 91.2293 46.045 91.2293 47.1713H92.043H92.8568C92.8568 45.1466 91.2162 43.5028 89.1884 43.5028C87.1637 43.5028 85.5232 45.1466 85.5199 47.1713C85.5232 49.1992 87.1637 50.8397 89.1884 50.8397C91.2162 50.8397 92.8568 49.1992 92.8568 47.1713H92.043Z" fill="url(#paint24_linear_289_5357)"/>
<path d="M171.439 61.7404H148.775C148.325 61.7404 147.961 62.105 147.961 62.5542C147.961 63.0034 148.325 63.368 148.775 63.368H171.439C171.889 63.368 172.253 63.0034 172.253 62.5542C172.253 62.105 171.889 61.7404 171.439 61.7404Z" fill="url(#paint25_linear_289_5357)"/>
<path d="M172.009 62.6278H171.195C171.195 64.6524 172.836 66.293 174.861 66.293C176.885 66.293 178.529 64.6524 178.529 62.6278C178.529 60.5999 176.885 58.9594 174.861 58.9594C172.836 58.9594 171.195 60.5999 171.195 62.6278H172.009H172.823C172.823 61.4983 173.738 60.5869 174.861 60.5869C175.987 60.5869 176.898 61.4983 176.901 62.6278C176.898 63.7508 175.987 64.6622 174.861 64.6654C173.738 64.6622 172.823 63.7508 172.823 62.6278H172.009Z" fill="url(#paint26_linear_289_5357)"/>
<path d="M197.526 133.424H174.861C174.412 133.424 174.047 133.789 174.047 134.238C174.047 134.687 174.412 135.052 174.861 135.052H197.526C197.975 135.052 198.34 134.687 198.34 134.238C198.34 133.789 197.975 133.424 197.526 133.424Z" fill="url(#paint27_linear_289_5357)"/>
<path d="M198.092 134.314H197.278C197.282 136.339 198.922 137.979 200.947 137.982C202.975 137.979 204.615 136.339 204.615 134.314C204.615 132.286 202.975 130.646 200.947 130.646C198.922 130.646 197.282 132.286 197.278 134.314H198.092H198.906C198.909 133.184 199.821 132.273 200.947 132.273C202.076 132.273 202.988 133.184 202.988 134.314C202.988 135.44 202.076 136.352 200.947 136.355C199.821 136.352 198.909 135.44 198.906 134.314H198.092Z" fill="url(#paint28_linear_289_5357)"/>
<path d="M153.273 133.378H152.46C152.46 135.402 154.1 137.043 156.128 137.043C158.153 137.043 159.793 135.402 159.793 133.378C159.793 131.35 158.153 129.709 156.128 129.709C154.1 129.709 152.46 131.35 152.46 133.378H153.273H154.087C154.09 132.248 155.002 131.337 156.128 131.337C157.251 131.337 158.163 132.248 158.166 133.378C158.163 134.504 157.251 135.415 156.128 135.415C155.002 135.415 154.09 134.504 154.087 133.378H153.273Z" fill="url(#paint29_linear_289_5357)"/>
<path d="M212.701 154.951H176.42C175.971 154.951 175.606 155.315 175.606 155.764C175.606 156.214 175.971 156.578 176.42 156.578H212.701C213.15 156.578 213.515 156.214 213.515 155.764C213.515 155.315 213.15 154.951 212.701 154.951Z" fill="url(#paint30_linear_289_5357)"/>
<path d="M212.57 155.882H211.757C211.757 158.115 213.567 159.928 215.799 159.928C218.032 159.928 219.842 158.115 219.842 155.882C219.842 153.649 218.032 151.839 215.799 151.836C213.567 151.839 211.757 153.649 211.757 155.882H212.57H213.384C213.384 154.547 214.465 153.466 215.799 153.463C217.134 153.466 218.211 154.547 218.215 155.882C218.211 157.216 217.131 158.297 215.799 158.3C214.465 158.297 213.384 157.216 213.384 155.882H212.57Z" fill="url(#paint31_linear_289_5357)"/>
<path d="M187.413 266.97H186.599C186.599 269.203 188.409 271.009 190.642 271.013C192.878 271.013 194.688 269.203 194.691 266.97C194.691 264.734 192.878 262.921 190.642 262.921C188.409 262.921 186.599 264.734 186.599 266.97H187.413H188.226C188.23 265.632 189.31 264.551 190.642 264.548C191.979 264.551 193.06 265.632 193.063 266.97C193.06 268.301 191.979 269.382 190.642 269.385C189.31 269.382 188.23 268.301 188.226 266.97H187.413Z" fill="url(#paint32_linear_289_5357)"/>
<path d="M171.632 255.948H170.818C170.818 258.181 172.628 259.991 174.861 259.991C177.097 259.991 178.907 258.181 178.907 255.948C178.907 253.715 177.097 251.906 174.861 251.906C172.628 251.906 170.818 253.715 170.818 255.948H171.632H172.446C172.446 254.614 173.526 253.533 174.861 253.533C176.199 253.533 177.276 254.614 177.279 255.948C177.276 257.28 176.199 258.36 174.861 258.364C173.526 258.36 172.446 257.28 172.446 255.948H171.632Z" fill="url(#paint33_linear_289_5357)"/>
<path d="M149.384 247.673H148.57C148.57 249.906 150.38 251.716 152.613 251.716C154.846 251.716 156.656 249.906 156.656 247.673C156.656 245.437 154.846 243.627 152.613 243.627C150.38 243.627 148.57 245.437 148.57 247.673H149.384H150.198C150.198 246.335 151.278 245.255 152.613 245.255C153.944 245.255 155.025 246.335 155.028 247.673C155.025 249.004 153.944 250.085 152.613 250.088C151.278 250.085 150.198 249.004 150.198 247.673H149.384Z" fill="url(#paint34_linear_289_5357)"/>
<path d="M131.058 261.761H130.244C130.244 263.994 132.054 265.804 134.29 265.804C136.523 265.804 138.333 263.994 138.333 261.761C138.333 259.528 136.523 257.718 134.29 257.718C132.054 257.718 130.244 259.528 130.244 261.761H131.058H131.871C131.871 260.426 132.952 259.346 134.29 259.346C135.624 259.346 136.702 260.426 136.705 261.761C136.702 263.095 135.624 264.173 134.29 264.176C132.952 264.173 131.871 263.092 131.871 261.761H131.058Z" fill="url(#paint35_linear_289_5357)"/>
<path d="M227.833 110.387H227.019C227.019 112.415 228.663 114.056 230.688 114.056C232.716 114.056 234.356 112.415 234.356 110.387C234.356 108.359 232.716 106.719 230.688 106.719C228.663 106.719 227.019 108.359 227.019 110.387H227.833H228.647C228.65 109.261 229.562 108.349 230.688 108.346C231.814 108.349 232.726 109.261 232.729 110.387C232.726 111.513 231.814 112.425 230.688 112.428C229.562 112.425 228.65 111.513 228.647 110.387H227.833Z" fill="url(#paint36_linear_289_5357)"/>
<path d="M57.0287 74.9623H56.2149C56.2117 76.0885 55.3003 77 54.174 77.0032C53.051 77 52.1363 76.0885 52.1363 74.9623C52.1363 73.8361 53.051 72.9246 54.174 72.9214C55.3003 72.9246 56.2117 73.8361 56.2149 74.9623H57.0287H57.8425C57.8392 72.9377 56.1987 71.2939 54.174 71.2939C52.1494 71.2971 50.5088 72.9377 50.5088 74.9623C50.5088 76.9869 52.1494 78.6275 54.174 78.6307C56.1987 78.6307 57.8392 76.9869 57.8425 74.9623H57.0287Z" fill="url(#paint37_linear_289_5357)"/>
<path d="M60.8789 131.459H60.0652C60.0652 132.586 59.1506 133.497 58.0244 133.5C56.8982 133.497 55.9867 132.586 55.9835 131.459C55.9867 130.33 56.8982 129.419 58.0244 129.419C59.1506 129.419 60.0652 130.33 60.0652 131.459H60.8789H61.6927C61.6927 129.432 60.0523 127.791 58.0244 127.791C55.9998 127.791 54.356 129.432 54.356 131.459C54.356 133.484 55.9998 135.125 58.0244 135.128C60.0523 135.125 61.6927 133.484 61.6927 131.459H60.8789Z" fill="url(#paint38_linear_289_5357)"/>
<path d="M112.312 111.725H87.6062C87.3067 111.725 87.0333 111.888 86.89 112.151L67.9034 147.097C67.6885 147.491 67.8351 147.986 68.2322 148.201C68.6261 148.416 69.1209 148.269 69.3357 147.875L88.0911 113.352H112.312C112.761 113.352 113.126 112.988 113.126 112.539C113.126 112.089 112.761 111.725 112.312 111.725Z" fill="url(#paint39_linear_289_5357)"/>
<path d="M60.3485 128.979L71.5719 107.33C71.7769 106.933 71.6207 106.441 71.2236 106.233C70.8233 106.028 70.3317 106.184 70.1266 106.581L58.9033 128.231C58.6982 128.628 58.8544 129.119 59.2515 129.328C59.6519 129.533 60.1434 129.377 60.3485 128.979Z" fill="url(#paint40_linear_289_5357)"/>
<path d="M26.2129 125.799H25.3992C25.3959 126.922 24.4847 127.836 23.3584 127.836C22.2322 127.836 21.3175 126.922 21.3175 125.799C21.3175 124.672 22.2322 123.761 23.3584 123.758C24.4847 123.761 25.3959 124.672 25.3992 125.799H26.2129H27.0267C27.0267 123.774 25.383 122.133 23.3584 122.13C21.3305 122.133 19.69 123.774 19.69 125.799C19.69 127.823 21.3305 129.464 23.3584 129.464C25.383 129.464 27.0267 127.823 27.0267 125.799H26.2129Z" fill="url(#paint41_linear_289_5357)"/>
<path d="M25.7606 123.318L34.0479 107.329C34.2562 106.932 34.0998 106.441 33.6995 106.232C33.3024 106.027 32.811 106.184 32.6027 106.581L24.3153 122.569C24.1103 122.97 24.2664 123.461 24.6636 123.666C25.0639 123.875 25.5555 123.718 25.7606 123.318Z" fill="url(#paint42_linear_289_5357)"/>
<path d="M116.088 74.9609V36.5709L116.033 36.2747L105.669 9.60941C105.503 9.19276 105.034 8.98438 104.614 9.14713C104.194 9.30988 103.986 9.78194 104.152 10.1986L114.461 36.7239V74.9609C114.461 75.4101 114.825 75.7746 115.274 75.7746C115.724 75.7746 116.088 75.4101 116.088 74.9609Z" fill="url(#paint43_linear_289_5357)"/>
<path d="M151.001 8.30088L131.387 33.1791L131.214 33.6837V74.9609C131.214 75.4101 131.579 75.7746 132.028 75.7746C132.477 75.7746 132.842 75.4101 132.842 74.9609V33.9636L152.277 9.30663C152.557 8.95509 152.496 8.44412 152.144 8.16419C151.789 7.88751 151.278 7.94608 151.001 8.30088Z" fill="url(#paint44_linear_289_5357)"/>
<path d="M172.13 16.2074L148.12 48.7187L147.961 49.2004V74.9609C147.961 75.4101 148.325 75.7746 148.775 75.7746C149.224 75.7746 149.588 75.4101 149.588 74.9609V49.4674L173.438 17.1741C173.705 16.8128 173.63 16.305 173.269 16.0381C172.908 15.7712 172.396 15.8461 172.13 16.2074Z" fill="url(#paint45_linear_289_5357)"/>
<path d="M211.529 36.6021L179.577 83.81H153.273C152.824 83.81 152.46 84.1745 152.46 84.6237C152.46 85.0729 152.824 85.4375 153.273 85.4375H180.01L180.684 85.0794L212.877 37.5135C213.131 37.1392 213.033 36.6347 212.662 36.3841C212.287 36.1302 211.783 36.2278 211.529 36.6021Z" fill="url(#paint46_linear_289_5357)"/>
<path d="M237.647 55.9032L213.808 89.391H153.273C152.824 89.391 152.46 89.7556 152.46 90.2048C152.46 90.654 152.824 91.0186 153.273 91.0186H214.227L214.888 90.6768L238.975 56.8471C239.236 56.4793 239.148 55.9715 238.783 55.7111C238.416 55.4507 237.908 55.5354 237.647 55.9032Z" fill="url(#paint47_linear_289_5357)"/>
<path d="M252.988 79.2638L231.697 107.693C231.427 108.055 231.501 108.566 231.86 108.833C232.221 109.103 232.729 109.031 232.999 108.67L254.29 80.2403C254.56 79.8823 254.485 79.3712 254.127 79.1011C253.766 78.8341 253.258 78.9058 252.988 79.2638Z" fill="url(#paint48_linear_289_5357)"/>
<path d="M243.048 125.645H242.234C242.234 127.673 243.874 129.314 245.902 129.314C247.927 129.314 249.571 127.673 249.571 125.645C249.571 123.62 247.927 121.98 245.902 121.98C243.874 121.98 242.234 123.62 242.234 125.645H243.048H243.861C243.865 124.519 244.776 123.607 245.902 123.607C247.029 123.607 247.94 124.519 247.943 125.645C247.94 126.775 247.029 127.686 245.902 127.686C244.776 127.686 243.865 126.775 243.861 125.645H243.048Z" fill="url(#paint49_linear_289_5357)"/>
<path d="M259.573 105.24L246.794 122.306C246.524 122.664 246.595 123.175 246.956 123.445C247.314 123.712 247.826 123.641 248.096 123.279L260.875 106.213C261.145 105.855 261.074 105.344 260.712 105.074C260.354 104.807 259.843 104.879 259.573 105.24Z" fill="url(#paint50_linear_289_5357)"/>
<path d="M153.273 113.353H170.681L175.61 183.157C175.642 183.603 176.029 183.941 176.479 183.909C176.928 183.879 177.263 183.489 177.234 183.04L172.25 112.483C172.221 112.057 171.866 111.725 171.44 111.725H153.273C152.824 111.725 152.46 112.09 152.46 112.539C152.46 112.988 152.824 113.353 153.273 113.353Z" fill="url(#paint51_linear_289_5357)"/>
<path d="M99.38 163.792L114.545 134.191H152.519C152.971 134.191 153.332 133.827 153.332 133.377C153.332 132.925 152.971 132.564 152.519 132.564H114.047C113.741 132.564 113.461 132.733 113.325 133.006L97.9314 163.05C97.7263 163.451 97.8859 163.942 98.2863 164.147C98.6867 164.349 99.1749 164.193 99.38 163.792Z" fill="url(#paint52_linear_289_5357)"/>
<path d="M135.569 149.747L138.258 196.984L130.507 204.038L130.244 204.679L132.851 257.788C132.874 258.237 133.255 258.582 133.704 258.56C134.153 258.537 134.498 258.156 134.475 257.707L131.888 204.985L139.641 197.928L139.905 197.28L137.193 149.656C137.167 149.207 136.783 148.865 136.334 148.891C135.885 148.914 135.543 149.301 135.569 149.747Z" fill="url(#paint53_linear_289_5357)"/>
<path d="M146.33 148.443L151.799 244.487C151.825 244.936 152.209 245.278 152.658 245.252C153.108 245.225 153.449 244.841 153.423 244.392L147.955 148.352C147.929 147.903 147.545 147.558 147.095 147.584C146.646 147.61 146.304 147.994 146.33 148.443Z" fill="url(#paint54_linear_289_5357)"/>
<path d="M155.571 148.444L158.914 207.1C158.934 207.448 159.171 207.741 159.507 207.835L172.433 211.455L174.047 252.748C174.063 253.198 174.444 253.549 174.893 253.53C175.339 253.513 175.691 253.136 175.675 252.687L174.037 210.801C174.021 210.446 173.783 210.143 173.441 210.049L160.506 206.426L157.199 148.353C157.173 147.904 156.789 147.558 156.339 147.584C155.89 147.611 155.549 147.995 155.571 148.444Z" fill="url(#paint55_linear_289_5357)"/>
<path d="M165.669 147.861L168.484 197.354C168.504 197.712 168.754 198.011 169.099 198.099L185.423 202.155L189.831 263.792C189.863 264.242 190.251 264.58 190.7 264.548C191.149 264.515 191.488 264.124 191.455 263.679L187.006 201.449C186.979 201.1 186.729 200.804 186.387 200.72L170.076 196.664L167.293 147.77C167.267 147.321 166.883 146.979 166.434 147.002C165.984 147.028 165.643 147.412 165.669 147.861Z" fill="url(#paint56_linear_289_5357)"/>
<defs>
<linearGradient id="paint0_linear_289_5357" x1="114" y1="-9.51581" x2="191.684" y2="310.311" gradientUnits="userSpaceOnUse">
<stop stop-color="#D9AFFF" stop-opacity="0.97"/>
<stop offset="0.22" stop-color="#B474ED" stop-opacity="0.785"/>
<stop offset="0.45" stop-color="#8A37D6" stop-opacity="0.6"/>
<stop offset="0.73" stop-color="#682CB1" stop-opacity="0.3"/>
<stop offset="1" stop-color="#002290" stop-opacity="0"/>
</linearGradient>
<linearGradient id="paint1_linear_289_5357" x1="115.108" y1="68.7776" x2="127.804" y2="70.6691" gradientUnits="userSpaceOnUse">
<stop stop-color="#D9AFFF" stop-opacity="0.97"/>
<stop offset="0.22" stop-color="#B474ED" stop-opacity="0.785"/>
<stop offset="0.45" stop-color="#8A37D6" stop-opacity="0.6"/>
<stop offset="0.73" stop-color="#682CB1" stop-opacity="0.3"/>
<stop offset="1" stop-color="#002290" stop-opacity="0"/>
</linearGradient>
<linearGradient id="paint2_linear_289_5357" x1="120.69" y1="68.7776" x2="133.386" y2="70.6691" gradientUnits="userSpaceOnUse">
<stop stop-color="#D9AFFF" stop-opacity="0.97"/>
<stop offset="0.22" stop-color="#B474ED" stop-opacity="0.785"/>
<stop offset="0.45" stop-color="#8A37D6" stop-opacity="0.6"/>
<stop offset="0.73" stop-color="#682CB1" stop-opacity="0.3"/>
<stop offset="1" stop-color="#002290" stop-opacity="0"/>
</linearGradient>
<linearGradient id="paint3_linear_289_5357" x1="126.276" y1="68.7776" x2="138.972" y2="70.6691" gradientUnits="userSpaceOnUse">
<stop stop-color="#D9AFFF" stop-opacity="0.97"/>
<stop offset="0.22" stop-color="#B474ED" stop-opacity="0.785"/>
<stop offset="0.45" stop-color="#8A37D6" stop-opacity="0.6"/>
<stop offset="0.73" stop-color="#682CB1" stop-opacity="0.3"/>
<stop offset="1" stop-color="#002290" stop-opacity="0"/>
</linearGradient>
<linearGradient id="paint4_linear_289_5357" x1="131.858" y1="68.7776" x2="144.554" y2="70.6691" gradientUnits="userSpaceOnUse">
<stop stop-color="#D9AFFF" stop-opacity="0.97"/>
<stop offset="0.22" stop-color="#B474ED" stop-opacity="0.785"/>
<stop offset="0.45" stop-color="#8A37D6" stop-opacity="0.6"/>
<stop offset="0.73" stop-color="#682CB1" stop-opacity="0.3"/>
<stop offset="1" stop-color="#002290" stop-opacity="0"/>
</linearGradient>
<linearGradient id="paint5_linear_289_5357" x1="137.439" y1="68.7776" x2="150.12" y2="70.6643" gradientUnits="userSpaceOnUse">
<stop stop-color="#D9AFFF" stop-opacity="0.97"/>
<stop offset="0.22" stop-color="#B474ED" stop-opacity="0.785"/>
<stop offset="0.45" stop-color="#8A37D6" stop-opacity="0.6"/>
<stop offset="0.73" stop-color="#682CB1" stop-opacity="0.3"/>
<stop offset="1" stop-color="#002290" stop-opacity="0"/>
</linearGradient>
<linearGradient id="paint6_linear_289_5357" x1="143.023" y1="68.7776" x2="155.72" y2="70.6693" gradientUnits="userSpaceOnUse">
<stop stop-color="#D9AFFF" stop-opacity="0.97"/>
<stop offset="0.22" stop-color="#B474ED" stop-opacity="0.785"/>
<stop offset="0.45" stop-color="#8A37D6" stop-opacity="0.6"/>
<stop offset="0.73" stop-color="#682CB1" stop-opacity="0.3"/>
<stop offset="1" stop-color="#002290" stop-opacity="0"/>
</linearGradient>
<linearGradient id="paint7_linear_289_5357" x1="148.605" y1="68.7776" x2="161.302" y2="70.6693" gradientUnits="userSpaceOnUse">
<stop stop-color="#D9AFFF" stop-opacity="0.97"/>
<stop offset="0.22" stop-color="#B474ED" stop-opacity="0.785"/>
<stop offset="0.45" stop-color="#8A37D6" stop-opacity="0.6"/>
<stop offset="0.73" stop-color="#682CB1" stop-opacity="0.3"/>
<stop offset="1" stop-color="#002290" stop-opacity="0"/>
</linearGradient>
<linearGradient id="paint8_linear_289_5357" x1="128.671" y1="111.187" x2="128.744" y2="115.543" gradientUnits="userSpaceOnUse">
<stop stop-color="#D9AFFF" stop-opacity="0.97"/>
<stop offset="0.22" stop-color="#B474ED" stop-opacity="0.785"/>
<stop offset="0.45" stop-color="#8A37D6" stop-opacity="0.6"/>
<stop offset="0.73" stop-color="#682CB1" stop-opacity="0.3"/>
<stop offset="1" stop-color="#002290" stop-opacity="0"/>
</linearGradient>
<linearGradient id="paint9_linear_289_5357" x1="128.671" y1="105.604" x2="128.744" y2="109.96" gradientUnits="userSpaceOnUse">
<stop stop-color="#D9AFFF" stop-opacity="0.97"/>
<stop offset="0.22" stop-color="#B474ED" stop-opacity="0.785"/>
<stop offset="0.45" stop-color="#8A37D6" stop-opacity="0.6"/>
<stop offset="0.73" stop-color="#682CB1" stop-opacity="0.3"/>
<stop offset="1" stop-color="#002290" stop-opacity="0"/>
</linearGradient>
<linearGradient id="paint10_linear_289_5357" x1="128.671" y1="100.023" x2="128.744" y2="104.373" gradientUnits="userSpaceOnUse">
<stop stop-color="#D9AFFF" stop-opacity="0.97"/>
<stop offset="0.22" stop-color="#B474ED" stop-opacity="0.785"/>
<stop offset="0.45" stop-color="#8A37D6" stop-opacity="0.6"/>
<stop offset="0.73" stop-color="#682CB1" stop-opacity="0.3"/>
<stop offset="1" stop-color="#002290" stop-opacity="0"/>
</linearGradient>
<linearGradient id="paint11_linear_289_5357" x1="128.671" y1="94.4366" x2="128.744" y2="98.7926" gradientUnits="userSpaceOnUse">
<stop stop-color="#D9AFFF" stop-opacity="0.97"/>
<stop offset="0.22" stop-color="#B474ED" stop-opacity="0.785"/>
<stop offset="0.45" stop-color="#8A37D6" stop-opacity="0.6"/>
<stop offset="0.73" stop-color="#682CB1" stop-opacity="0.3"/>
<stop offset="1" stop-color="#002290" stop-opacity="0"/>
</linearGradient>
<linearGradient id="paint12_linear_289_5357" x1="128.671" y1="88.8556" x2="128.744" y2="93.2115" gradientUnits="userSpaceOnUse">
<stop stop-color="#D9AFFF" stop-opacity="0.97"/>
<stop offset="0.22" stop-color="#B474ED" stop-opacity="0.785"/>
<stop offset="0.45" stop-color="#8A37D6" stop-opacity="0.6"/>
<stop offset="0.73" stop-color="#682CB1" stop-opacity="0.3"/>
<stop offset="1" stop-color="#002290" stop-opacity="0"/>
</linearGradient>
<linearGradient id="paint13_linear_289_5357" x1="128.671" y1="83.2731" x2="128.744" y2="87.6233" gradientUnits="userSpaceOnUse">
<stop stop-color="#D9AFFF" stop-opacity="0.97"/>
<stop offset="0.22" stop-color="#B474ED" stop-opacity="0.785"/>
<stop offset="0.45" stop-color="#8A37D6" stop-opacity="0.6"/>
<stop offset="0.73" stop-color="#682CB1" stop-opacity="0.3"/>
<stop offset="1" stop-color="#002290" stop-opacity="0"/>
</linearGradient>
<linearGradient id="paint14_linear_289_5357" x1="128.671" y1="77.6901" x2="128.744" y2="82.0402" gradientUnits="userSpaceOnUse">
<stop stop-color="#D9AFFF" stop-opacity="0.97"/>
<stop offset="0.22" stop-color="#B474ED" stop-opacity="0.785"/>
<stop offset="0.45" stop-color="#8A37D6" stop-opacity="0.6"/>
<stop offset="0.73" stop-color="#682CB1" stop-opacity="0.3"/>
<stop offset="1" stop-color="#002290" stop-opacity="0"/>
</linearGradient>
<linearGradient id="paint15_linear_289_5357" x1="74.9119" y1="35.7146" x2="89.899" y2="107.113" gradientUnits="userSpaceOnUse">
<stop stop-color="#D9AFFF" stop-opacity="0.97"/>
<stop offset="0.22" stop-color="#B474ED" stop-opacity="0.785"/>
<stop offset="0.45" stop-color="#8A37D6" stop-opacity="0.6"/>
<stop offset="0.73" stop-color="#682CB1" stop-opacity="0.3"/>
<stop offset="1" stop-color="#002290" stop-opacity="0"/>
</linearGradient>
<linearGradient id="paint16_linear_289_5357" x1="69.2926" y1="37.5452" x2="84.7437" y2="115.36" gradientUnits="userSpaceOnUse">
<stop stop-color="#D9AFFF" stop-opacity="0.97"/>
<stop offset="0.22" stop-color="#B474ED" stop-opacity="0.785"/>
<stop offset="0.45" stop-color="#8A37D6" stop-opacity="0.6"/>
<stop offset="0.73" stop-color="#682CB1" stop-opacity="0.3"/>
<stop offset="1" stop-color="#002290" stop-opacity="0"/>
</linearGradient>
<linearGradient id="paint17_linear_289_5357" x1="195.626" y1="92.5548" x2="209.336" y2="176.526" gradientUnits="userSpaceOnUse">
<stop stop-color="#D9AFFF" stop-opacity="0.97"/>
<stop offset="0.22" stop-color="#B474ED" stop-opacity="0.785"/>
<stop offset="0.45" stop-color="#8A37D6" stop-opacity="0.6"/>
<stop offset="0.73" stop-color="#682CB1" stop-opacity="0.3"/>
<stop offset="1" stop-color="#002290" stop-opacity="0"/>
</linearGradient>
<linearGradient id="paint18_linear_289_5357" x1="58.8855" y1="61.734" x2="68.0901" y2="128.782" gradientUnits="userSpaceOnUse">
<stop stop-color="#D9AFFF" stop-opacity="0.97"/>
<stop offset="0.22" stop-color="#B474ED" stop-opacity="0.785"/>
<stop offset="0.45" stop-color="#8A37D6" stop-opacity="0.6"/>
<stop offset="0.73" stop-color="#682CB1" stop-opacity="0.3"/>
<stop offset="1" stop-color="#002290" stop-opacity="0"/>
</linearGradient>
<linearGradient id="paint19_linear_289_5357" x1="53.8422" y1="79.5448" x2="57.9835" y2="126.848" gradientUnits="userSpaceOnUse">
<stop stop-color="#D9AFFF" stop-opacity="0.97"/>
<stop offset="0.22" stop-color="#B474ED" stop-opacity="0.785"/>
<stop offset="0.45" stop-color="#8A37D6" stop-opacity="0.6"/>
<stop offset="0.73" stop-color="#682CB1" stop-opacity="0.3"/>
<stop offset="1" stop-color="#002290" stop-opacity="0"/>
</linearGradient>
<linearGradient id="paint20_linear_289_5357" x1="47.8886" y1="63.4994" x2="47.9534" y2="66.3835" gradientUnits="userSpaceOnUse">
<stop stop-color="#D9AFFF" stop-opacity="0.97"/>
<stop offset="0.22" stop-color="#B474ED" stop-opacity="0.785"/>
<stop offset="0.45" stop-color="#8A37D6" stop-opacity="0.6"/>
<stop offset="0.73" stop-color="#682CB1" stop-opacity="0.3"/>
<stop offset="1" stop-color="#002290" stop-opacity="0"/>
</linearGradient>
<linearGradient id="paint21_linear_289_5357" x1="53.4728" y1="77.0331" x2="66.1409" y2="81.2247" gradientUnits="userSpaceOnUse">
<stop stop-color="#D9AFFF" stop-opacity="0.97"/>
<stop offset="0.22" stop-color="#B474ED" stop-opacity="0.785"/>
<stop offset="0.45" stop-color="#8A37D6" stop-opacity="0.6"/>
<stop offset="0.73" stop-color="#682CB1" stop-opacity="0.3"/>
<stop offset="1" stop-color="#002290" stop-opacity="0"/>
</linearGradient>
<linearGradient id="paint22_linear_289_5357" x1="34.2907" y1="60.4334" x2="38.217" y2="72.1227" gradientUnits="userSpaceOnUse">
<stop stop-color="#D9AFFF" stop-opacity="0.97"/>
<stop offset="0.22" stop-color="#B474ED" stop-opacity="0.785"/>
<stop offset="0.45" stop-color="#8A37D6" stop-opacity="0.6"/>
<stop offset="0.73" stop-color="#682CB1" stop-opacity="0.3"/>
<stop offset="1" stop-color="#002290" stop-opacity="0"/>
</linearGradient>
<linearGradient id="paint23_linear_289_5357" x1="102.285" y1="46.2035" x2="102.35" y2="49.0876" gradientUnits="userSpaceOnUse">
<stop stop-color="#D9AFFF" stop-opacity="0.97"/>
<stop offset="0.22" stop-color="#B474ED" stop-opacity="0.785"/>
<stop offset="0.45" stop-color="#8A37D6" stop-opacity="0.6"/>
<stop offset="0.73" stop-color="#682CB1" stop-opacity="0.3"/>
<stop offset="1" stop-color="#002290" stop-opacity="0"/>
</linearGradient>
<linearGradient id="paint24_linear_289_5357" x1="88.6875" y1="43.1374" x2="92.6124" y2="54.8278" gradientUnits="userSpaceOnUse">
<stop stop-color="#D9AFFF" stop-opacity="0.97"/>
<stop offset="0.22" stop-color="#B474ED" stop-opacity="0.785"/>
<stop offset="0.45" stop-color="#8A37D6" stop-opacity="0.6"/>
<stop offset="0.73" stop-color="#682CB1" stop-opacity="0.3"/>
<stop offset="1" stop-color="#002290" stop-opacity="0"/>
</linearGradient>
<linearGradient id="paint25_linear_289_5357" x1="158.449" y1="61.6594" x2="158.514" y2="64.5435" gradientUnits="userSpaceOnUse">
<stop stop-color="#D9AFFF" stop-opacity="0.97"/>
<stop offset="0.22" stop-color="#B474ED" stop-opacity="0.785"/>
<stop offset="0.45" stop-color="#8A37D6" stop-opacity="0.6"/>
<stop offset="0.73" stop-color="#682CB1" stop-opacity="0.3"/>
<stop offset="1" stop-color="#002290" stop-opacity="0"/>
</linearGradient>
<linearGradient id="paint26_linear_289_5357" x1="174.362" y1="58.594" x2="178.285" y2="70.2793" gradientUnits="userSpaceOnUse">
<stop stop-color="#D9AFFF" stop-opacity="0.97"/>
<stop offset="0.22" stop-color="#B474ED" stop-opacity="0.785"/>
<stop offset="0.45" stop-color="#8A37D6" stop-opacity="0.6"/>
<stop offset="0.73" stop-color="#682CB1" stop-opacity="0.3"/>
<stop offset="1" stop-color="#002290" stop-opacity="0"/>
</linearGradient>
<linearGradient id="paint27_linear_289_5357" x1="184.535" y1="133.343" x2="184.6" y2="136.227" gradientUnits="userSpaceOnUse">
<stop stop-color="#D9AFFF" stop-opacity="0.97"/>
<stop offset="0.22" stop-color="#B474ED" stop-opacity="0.785"/>
<stop offset="0.45" stop-color="#8A37D6" stop-opacity="0.6"/>
<stop offset="0.73" stop-color="#682CB1" stop-opacity="0.3"/>
<stop offset="1" stop-color="#002290" stop-opacity="0"/>
</linearGradient>
<linearGradient id="paint28_linear_289_5357" x1="200.446" y1="130.28" x2="204.371" y2="141.97" gradientUnits="userSpaceOnUse">
<stop stop-color="#D9AFFF" stop-opacity="0.97"/>
<stop offset="0.22" stop-color="#B474ED" stop-opacity="0.785"/>
<stop offset="0.45" stop-color="#8A37D6" stop-opacity="0.6"/>
<stop offset="0.73" stop-color="#682CB1" stop-opacity="0.3"/>
<stop offset="1" stop-color="#002290" stop-opacity="0"/>
</linearGradient>
<linearGradient id="paint29_linear_289_5357" x1="155.626" y1="129.344" x2="159.549" y2="141.029" gradientUnits="userSpaceOnUse">
<stop stop-color="#D9AFFF" stop-opacity="0.97"/>
<stop offset="0.22" stop-color="#B474ED" stop-opacity="0.785"/>
<stop offset="0.45" stop-color="#8A37D6" stop-opacity="0.6"/>
<stop offset="0.73" stop-color="#682CB1" stop-opacity="0.3"/>
<stop offset="1" stop-color="#002290" stop-opacity="0"/>
</linearGradient>
<linearGradient id="paint30_linear_289_5357" x1="191.973" y1="154.87" x2="192.014" y2="157.754" gradientUnits="userSpaceOnUse">
<stop stop-color="#D9AFFF" stop-opacity="0.97"/>
<stop offset="0.22" stop-color="#B474ED" stop-opacity="0.785"/>
<stop offset="0.45" stop-color="#8A37D6" stop-opacity="0.6"/>
<stop offset="0.73" stop-color="#682CB1" stop-opacity="0.3"/>
<stop offset="1" stop-color="#002290" stop-opacity="0"/>
</linearGradient>
<linearGradient id="paint31_linear_289_5357" x1="215.247" y1="151.433" x2="219.579" y2="164.324" gradientUnits="userSpaceOnUse">
<stop stop-color="#D9AFFF" stop-opacity="0.97"/>
<stop offset="0.22" stop-color="#B474ED" stop-opacity="0.785"/>
<stop offset="0.45" stop-color="#8A37D6" stop-opacity="0.6"/>
<stop offset="0.73" stop-color="#682CB1" stop-opacity="0.3"/>
<stop offset="1" stop-color="#002290" stop-opacity="0"/>
</linearGradient>
<linearGradient id="paint32_linear_289_5357" x1="190.092" y1="262.518" x2="194.421" y2="275.411" gradientUnits="userSpaceOnUse">
<stop stop-color="#D9AFFF" stop-opacity="0.97"/>
<stop offset="0.22" stop-color="#B474ED" stop-opacity="0.785"/>
<stop offset="0.45" stop-color="#8A37D6" stop-opacity="0.6"/>
<stop offset="0.73" stop-color="#682CB1" stop-opacity="0.3"/>
<stop offset="1" stop-color="#002290" stop-opacity="0"/>
</linearGradient>
<linearGradient id="paint33_linear_289_5357" x1="174.31" y1="251.503" x2="178.634" y2="264.387" gradientUnits="userSpaceOnUse">
<stop stop-color="#D9AFFF" stop-opacity="0.97"/>
<stop offset="0.22" stop-color="#B474ED" stop-opacity="0.785"/>
<stop offset="0.45" stop-color="#8A37D6" stop-opacity="0.6"/>
<stop offset="0.73" stop-color="#682CB1" stop-opacity="0.3"/>
<stop offset="1" stop-color="#002290" stop-opacity="0"/>
</linearGradient>
<linearGradient id="paint34_linear_289_5357" x1="152.061" y1="243.224" x2="156.389" y2="256.112" gradientUnits="userSpaceOnUse">
<stop stop-color="#D9AFFF" stop-opacity="0.97"/>
<stop offset="0.22" stop-color="#B474ED" stop-opacity="0.785"/>
<stop offset="0.45" stop-color="#8A37D6" stop-opacity="0.6"/>
<stop offset="0.73" stop-color="#682CB1" stop-opacity="0.3"/>
<stop offset="1" stop-color="#002290" stop-opacity="0"/>
</linearGradient>
<linearGradient id="paint35_linear_289_5357" x1="133.736" y1="257.315" x2="138.06" y2="270.2" gradientUnits="userSpaceOnUse">
<stop stop-color="#D9AFFF" stop-opacity="0.97"/>
<stop offset="0.22" stop-color="#B474ED" stop-opacity="0.785"/>
<stop offset="0.45" stop-color="#8A37D6" stop-opacity="0.6"/>
<stop offset="0.73" stop-color="#682CB1" stop-opacity="0.3"/>
<stop offset="1" stop-color="#002290" stop-opacity="0"/>
</linearGradient>
<linearGradient id="paint36_linear_289_5357" x1="230.187" y1="106.353" x2="234.112" y2="118.044" gradientUnits="userSpaceOnUse">
<stop stop-color="#D9AFFF" stop-opacity="0.97"/>
<stop offset="0.22" stop-color="#B474ED" stop-opacity="0.785"/>
<stop offset="0.45" stop-color="#8A37D6" stop-opacity="0.6"/>
<stop offset="0.73" stop-color="#682CB1" stop-opacity="0.3"/>
<stop offset="1" stop-color="#002290" stop-opacity="0"/>
</linearGradient>
<linearGradient id="paint37_linear_289_5357" x1="53.675" y1="70.9284" x2="57.6012" y2="82.6178" gradientUnits="userSpaceOnUse">
<stop stop-color="#D9AFFF" stop-opacity="0.97"/>
<stop offset="0.22" stop-color="#B474ED" stop-opacity="0.785"/>
<stop offset="0.45" stop-color="#8A37D6" stop-opacity="0.6"/>
<stop offset="0.73" stop-color="#682CB1" stop-opacity="0.3"/>
<stop offset="1" stop-color="#002290" stop-opacity="0"/>
</linearGradient>
<linearGradient id="paint38_linear_289_5357" x1="57.5235" y1="127.426" x2="61.4484" y2="139.116" gradientUnits="userSpaceOnUse">
<stop stop-color="#D9AFFF" stop-opacity="0.97"/>
<stop offset="0.22" stop-color="#B474ED" stop-opacity="0.785"/>
<stop offset="0.45" stop-color="#8A37D6" stop-opacity="0.6"/>
<stop offset="0.73" stop-color="#682CB1" stop-opacity="0.3"/>
<stop offset="1" stop-color="#002290" stop-opacity="0"/>
</linearGradient>
<linearGradient id="paint39_linear_289_5357" x1="87.3714" y1="109.903" x2="103.739" y2="170.315" gradientUnits="userSpaceOnUse">
<stop stop-color="#D9AFFF" stop-opacity="0.97"/>
<stop offset="0.22" stop-color="#B474ED" stop-opacity="0.785"/>
<stop offset="0.45" stop-color="#8A37D6" stop-opacity="0.6"/>
<stop offset="0.73" stop-color="#682CB1" stop-opacity="0.3"/>
<stop offset="1" stop-color="#002290" stop-opacity="0"/>
</linearGradient>
<linearGradient id="paint40_linear_289_5357" x1="64.3605" y1="104.983" x2="82.6808" y2="135.108" gradientUnits="userSpaceOnUse">
<stop stop-color="#D9AFFF" stop-opacity="0.97"/>
<stop offset="0.22" stop-color="#B474ED" stop-opacity="0.785"/>
<stop offset="0.45" stop-color="#8A37D6" stop-opacity="0.6"/>
<stop offset="0.73" stop-color="#682CB1" stop-opacity="0.3"/>
<stop offset="1" stop-color="#002290" stop-opacity="0"/>
</linearGradient>
<linearGradient id="paint41_linear_289_5357" x1="22.8575" y1="121.765" x2="26.7793" y2="133.451" gradientUnits="userSpaceOnUse">
<stop stop-color="#D9AFFF" stop-opacity="0.97"/>
<stop offset="0.22" stop-color="#B474ED" stop-opacity="0.785"/>
<stop offset="0.45" stop-color="#8A37D6" stop-opacity="0.6"/>
<stop offset="0.73" stop-color="#682CB1" stop-opacity="0.3"/>
<stop offset="1" stop-color="#002290" stop-opacity="0"/>
</linearGradient>
<linearGradient id="paint42_linear_289_5357" x1="28.5058" y1="105.265" x2="42.2475" y2="128.301" gradientUnits="userSpaceOnUse">
<stop stop-color="#D9AFFF" stop-opacity="0.97"/>
<stop offset="0.22" stop-color="#B474ED" stop-opacity="0.785"/>
<stop offset="0.45" stop-color="#8A37D6" stop-opacity="0.6"/>
<stop offset="0.73" stop-color="#682CB1" stop-opacity="0.3"/>
<stop offset="1" stop-color="#002290" stop-opacity="0"/>
</linearGradient>
<linearGradient id="paint43_linear_289_5357" x1="109.273" y1="5.76996" x2="158.485" y2="32.1337" gradientUnits="userSpaceOnUse">
<stop stop-color="#D9AFFF" stop-opacity="0.97"/>
<stop offset="0.22" stop-color="#B474ED" stop-opacity="0.785"/>
<stop offset="0.45" stop-color="#8A37D6" stop-opacity="0.6"/>
<stop offset="0.73" stop-color="#682CB1" stop-opacity="0.3"/>
<stop offset="1" stop-color="#002290" stop-opacity="0"/>
</linearGradient>
<linearGradient id="paint44_linear_289_5357" x1="140.384" y1="4.61342" x2="200.331" y2="60.561" gradientUnits="userSpaceOnUse">
<stop stop-color="#D9AFFF" stop-opacity="0.97"/>
<stop offset="0.22" stop-color="#B474ED" stop-opacity="0.785"/>
<stop offset="0.45" stop-color="#8A37D6" stop-opacity="0.6"/>
<stop offset="0.73" stop-color="#682CB1" stop-opacity="0.3"/>
<stop offset="1" stop-color="#002290" stop-opacity="0"/>
</linearGradient>
<linearGradient id="paint45_linear_289_5357" x1="159.029" y1="12.8946" x2="210.598" y2="78.6396" gradientUnits="userSpaceOnUse">
<stop stop-color="#D9AFFF" stop-opacity="0.97"/>
<stop offset="0.22" stop-color="#B474ED" stop-opacity="0.785"/>
<stop offset="0.45" stop-color="#8A37D6" stop-opacity="0.6"/>
<stop offset="0.73" stop-color="#682CB1" stop-opacity="0.3"/>
<stop offset="1" stop-color="#002290" stop-opacity="0"/>
</linearGradient>
<linearGradient id="paint46_linear_289_5357" x1="178.605" y1="33.7922" x2="200.746" y2="114.975" gradientUnits="userSpaceOnUse">
<stop stop-color="#D9AFFF" stop-opacity="0.97"/>
<stop offset="0.22" stop-color="#B474ED" stop-opacity="0.785"/>
<stop offset="0.45" stop-color="#8A37D6" stop-opacity="0.6"/>
<stop offset="0.73" stop-color="#682CB1" stop-opacity="0.3"/>
<stop offset="1" stop-color="#002290" stop-opacity="0"/>
</linearGradient>
<linearGradient id="paint47_linear_289_5357" x1="189.877" y1="53.7939" x2="198.352" y2="115.496" gradientUnits="userSpaceOnUse">
<stop stop-color="#D9AFFF" stop-opacity="0.97"/>
<stop offset="0.22" stop-color="#B474ED" stop-opacity="0.785"/>
<stop offset="0.45" stop-color="#8A37D6" stop-opacity="0.6"/>
<stop offset="0.73" stop-color="#682CB1" stop-opacity="0.3"/>
<stop offset="1" stop-color="#002290" stop-opacity="0"/>
</linearGradient>
<linearGradient id="paint48_linear_289_5357" x1="241.429" y1="77.4426" x2="261.082" y2="122.079" gradientUnits="userSpaceOnUse">
<stop stop-color="#D9AFFF" stop-opacity="0.97"/>
<stop offset="0.22" stop-color="#B474ED" stop-opacity="0.785"/>
<stop offset="0.45" stop-color="#8A37D6" stop-opacity="0.6"/>
<stop offset="0.73" stop-color="#682CB1" stop-opacity="0.3"/>
<stop offset="1" stop-color="#002290" stop-opacity="0"/>
</linearGradient>
<linearGradient id="paint49_linear_289_5357" x1="245.402" y1="121.615" x2="249.323" y2="133.301" gradientUnits="userSpaceOnUse">
<stop stop-color="#D9AFFF" stop-opacity="0.97"/>
<stop offset="0.22" stop-color="#B474ED" stop-opacity="0.785"/>
<stop offset="0.45" stop-color="#8A37D6" stop-opacity="0.6"/>
<stop offset="0.73" stop-color="#682CB1" stop-opacity="0.3"/>
<stop offset="1" stop-color="#002290" stop-opacity="0"/>
</linearGradient>
<linearGradient id="paint50_linear_289_5357" x1="252.851" y1="103.982" x2="264.985" y2="131.839" gradientUnits="userSpaceOnUse">
<stop stop-color="#D9AFFF" stop-opacity="0.97"/>
<stop offset="0.22" stop-color="#B474ED" stop-opacity="0.785"/>
<stop offset="0.45" stop-color="#8A37D6" stop-opacity="0.6"/>
<stop offset="0.73" stop-color="#682CB1" stop-opacity="0.3"/>
<stop offset="1" stop-color="#002290" stop-opacity="0"/>
</linearGradient>
<linearGradient id="paint51_linear_289_5357" x1="163.156" y1="108.129" x2="227.133" y2="173.533" gradientUnits="userSpaceOnUse">
<stop stop-color="#D9AFFF" stop-opacity="0.97"/>
<stop offset="0.22" stop-color="#B474ED" stop-opacity="0.785"/>
<stop offset="0.45" stop-color="#8A37D6" stop-opacity="0.6"/>
<stop offset="0.73" stop-color="#682CB1" stop-opacity="0.3"/>
<stop offset="1" stop-color="#002290" stop-opacity="0"/>
</linearGradient>
<linearGradient id="paint52_linear_289_5357" x1="121.799" y1="130.986" x2="132.178" y2="185.15" gradientUnits="userSpaceOnUse">
<stop stop-color="#D9AFFF" stop-opacity="0.97"/>
<stop offset="0.22" stop-color="#B474ED" stop-opacity="0.785"/>
<stop offset="0.45" stop-color="#8A37D6" stop-opacity="0.6"/>
<stop offset="0.73" stop-color="#682CB1" stop-opacity="0.3"/>
<stop offset="1" stop-color="#002290" stop-opacity="0"/>
</linearGradient>
<linearGradient id="paint53_linear_289_5357" x1="134.415" y1="143.426" x2="182.148" y2="155.95" gradientUnits="userSpaceOnUse">
<stop stop-color="#D9AFFF" stop-opacity="0.97"/>
<stop offset="0.22" stop-color="#B474ED" stop-opacity="0.785"/>
<stop offset="0.45" stop-color="#8A37D6" stop-opacity="0.6"/>
<stop offset="0.73" stop-color="#682CB1" stop-opacity="0.3"/>
<stop offset="1" stop-color="#002290" stop-opacity="0"/>
</linearGradient>
<linearGradient id="paint54_linear_289_5357" x1="149.392" y1="142.717" x2="185.187" y2="150.463" gradientUnits="userSpaceOnUse">
<stop stop-color="#D9AFFF" stop-opacity="0.97"/>
<stop offset="0.22" stop-color="#B474ED" stop-opacity="0.785"/>
<stop offset="0.45" stop-color="#8A37D6" stop-opacity="0.6"/>
<stop offset="0.73" stop-color="#682CB1" stop-opacity="0.3"/>
<stop offset="1" stop-color="#002290" stop-opacity="0"/>
</linearGradient>
<linearGradient id="paint55_linear_289_5357" x1="164.25" y1="142.305" x2="244.716" y2="187.786" gradientUnits="userSpaceOnUse">
<stop stop-color="#D9AFFF" stop-opacity="0.97"/>
<stop offset="0.22" stop-color="#B474ED" stop-opacity="0.785"/>
<stop offset="0.45" stop-color="#8A37D6" stop-opacity="0.6"/>
<stop offset="0.73" stop-color="#682CB1" stop-opacity="0.3"/>
<stop offset="1" stop-color="#002290" stop-opacity="0"/>
</linearGradient>
<linearGradient id="paint56_linear_289_5357" x1="176.802" y1="141.145" x2="272.24" y2="203.513" gradientUnits="userSpaceOnUse">
<stop stop-color="#D9AFFF" stop-opacity="0.97"/>
<stop offset="0.22" stop-color="#B474ED" stop-opacity="0.785"/>
<stop offset="0.45" stop-color="#8A37D6" stop-opacity="0.6"/>
<stop offset="0.73" stop-color="#682CB1" stop-opacity="0.3"/>
<stop offset="1" stop-color="#002290" stop-opacity="0"/>
</linearGradient>
</defs>
</svg>
