<svg width="31" height="32" viewBox="0 0 31 32" fill="none" xmlns="http://www.w3.org/2000/svg">
<g clip-path="url(#clip0_4376_1322)">
<path d="M8.61377 17.3227C8.85833 18.4983 9.39518 19.524 10.1229 20.4057C10.2183 20.5017 10.3198 20.6037 10.4152 20.6996C13.2843 23.5847 15.0858 27.5975 15.0858 32.0001C15.0858 27.7414 16.7858 23.8307 19.4641 20.9935C19.5595 20.8976 19.6609 20.7956 19.7563 20.6996C22.6255 17.8145 26.6161 16.0031 30.9944 16.0031C26.7592 16.0031 22.8701 14.2936 20.0486 11.6005L19.7563 11.3066C16.8872 8.42147 15.0858 4.40873 15.0858 0.00610352C15.0858 4.26477 13.3858 8.17555 10.7075 11.0127L10.4152 11.3066C8.90605 12.8241 8.1306 15.0734 8.61377 17.3227Z" fill="#8774FB"/>
<path d="M3.22109 19.2419C5.00005 19.2419 6.44218 17.7917 6.44218 16.0029C6.44218 14.2141 5.00005 12.7639 3.22109 12.7639C1.44213 12.7639 0 14.2141 0 16.0029C0 17.7917 1.44213 19.2419 3.22109 19.2419Z" fill="url(#paint0_linear_4376_1322)"/>
</g>
<defs>
<linearGradient id="paint0_linear_4376_1322" x1="-0.739658" y1="16.0029" x2="28.8586" y2="16.0029" gradientUnits="userSpaceOnUse">
<stop stop-color="#8774FB"/>
<stop offset="0.26" stop-color="#826FFB"/>
<stop offset="0.56" stop-color="#7661FB"/>
<stop offset="0.88" stop-color="#6249FB"/>
<stop offset="1" stop-color="#593FFB"/>
</linearGradient>
<clipPath id="clip0_4376_1322">
<rect width="31" height="32" fill="white"/>
</clipPath>
</defs>
</svg>
