<svg xmlns="http://www.w3.org/2000/svg" width="67" height="65" viewBox="0 0 67 65" fill="none">
<path d="M37.9077 31.9889C37.8997 29.3434 37.1079 26.7597 35.6323 24.564C34.1568 22.3683 32.0636 20.6592 29.6172 19.6524C27.1708 18.6456 24.481 18.3864 21.8874 18.9075C19.2938 19.4285 16.9127 20.7065 15.045 22.58C13.1773 24.4535 11.9067 26.8385 11.3936 29.4337C10.8806 32.0289 11.1481 34.718 12.1625 37.1612C13.1768 39.6045 14.8925 41.6923 17.0927 43.1611C19.2929 44.6299 21.8791 45.4137 24.5245 45.4135C28.0783 45.404 31.4831 43.9853 33.9921 41.4686C36.501 38.9518 37.9092 35.5426 37.9077 31.9889ZM24.5245 43.9682C22.1535 43.9764 19.8334 43.2808 17.8579 41.9695C15.8825 40.6582 14.3406 38.7902 13.4276 36.602C12.5145 34.4138 12.2714 32.0038 12.7289 29.6773C13.1864 27.3509 14.324 25.2125 15.9977 23.533C17.6714 21.8535 19.8058 20.7084 22.1307 20.2428C24.4556 19.7772 26.8664 20.012 29.0577 20.9175C31.2491 21.823 33.1224 23.3583 34.4406 25.3292C35.7587 27.3001 36.4624 29.6178 36.4624 31.9889C36.4642 35.1593 35.2083 38.2011 32.9704 40.4468C30.7324 42.6926 27.695 43.959 24.5245 43.9682Z" fill="url(#paint0_radial_470_51)"/>
<path d="M29.8465 29.0731C29.846 28.2359 29.5584 27.4242 29.0316 26.7734C28.5048 26.1227 27.7708 25.6723 26.952 25.4974L26.952 24.2847C26.952 24.0927 26.8758 23.9087 26.7401 23.773C26.6044 23.6373 26.4203 23.561 26.2284 23.561C26.0365 23.561 25.8524 23.6373 25.7167 23.773C25.581 23.9087 25.5048 24.0927 25.5048 24.2847L25.5048 25.4174L24.0161 25.4174L24.0161 24.2847C24.0161 24.1896 23.9973 24.0955 23.961 24.0077C23.9246 23.9199 23.8713 23.8402 23.8041 23.773C23.7369 23.7058 23.6572 23.6525 23.5694 23.6161C23.4816 23.5798 23.3875 23.561 23.2924 23.561C23.1974 23.561 23.1033 23.5798 23.0155 23.6161C22.9277 23.6525 22.848 23.7058 22.7808 23.773C22.7136 23.8402 22.6603 23.9199 22.6239 24.0077C22.5875 24.0955 22.5688 24.1896 22.5688 24.2847L22.5688 25.4174L20.9807 25.4174C20.7891 25.4174 20.6052 25.4935 20.4697 25.629C20.3342 25.7646 20.2581 25.9484 20.2581 26.14L20.2581 37.8733C20.2581 38.065 20.3342 38.2488 20.4697 38.3843C20.6052 38.5198 20.7891 38.596 20.9807 38.596L22.5669 38.596L22.5669 39.8155C22.5669 40.0074 22.6431 40.1915 22.7788 40.3272C22.9145 40.4629 23.0986 40.5391 23.2905 40.5391C23.4824 40.5391 23.6665 40.4629 23.8022 40.3272C23.9379 40.1915 24.0141 40.0074 24.0141 39.8155L24.0141 38.596L25.5048 38.596L25.5048 39.8155C25.5048 40.0074 25.581 40.1915 25.7167 40.3272C25.8524 40.4629 26.0365 40.5391 26.2284 40.5391C26.4203 40.5391 26.6044 40.4629 26.7401 40.3272C26.8758 40.1915 26.952 40.0074 26.952 39.8155L26.952 38.5159C27.6396 38.3691 28.2702 38.0273 28.7685 37.5313C29.2668 37.0354 29.6117 36.4063 29.7617 35.7195C29.9118 35.0327 29.8607 34.3171 29.6146 33.6586C29.3685 33 28.9379 32.4263 28.3742 32.0062C28.8312 31.6659 29.2024 31.2234 29.458 30.7141C29.7136 30.2049 29.8467 29.6429 29.8465 29.0731ZM28.3993 34.9393C28.4001 35.5238 28.169 36.0849 27.7569 36.4994C27.3447 36.9139 26.785 37.1481 26.2004 37.1507L21.7072 37.1507L21.7072 32.7288L26.2004 32.7288C26.7852 32.7306 27.3454 32.9644 27.7581 33.3788C28.1707 33.7932 28.402 34.3545 28.4012 34.9393L28.3993 34.9393ZM26.2004 31.2835L21.7072 31.2835L21.7072 26.8627L26.2004 26.8627C26.7867 26.8627 27.3489 27.0956 27.7634 27.5101C28.178 27.9246 28.4109 28.4869 28.4109 29.0731C28.4109 29.6593 28.178 30.2216 27.7634 30.6361C27.3489 31.0506 26.7867 31.2835 26.2004 31.2835Z" fill="url(#paint1_radial_470_51)"/>
<path d="M50.0308 43.9903C49.8449 44.0368 49.6851 44.1552 49.5865 44.3195C49.4879 44.4838 49.4585 44.6805 49.5049 44.8664C49.832 46.1527 49.8816 47.4939 49.6503 48.8008C49.419 50.1077 48.9122 51.3504 48.1636 52.4464C47.4149 53.5423 46.4416 54.4663 45.3082 55.157C44.1749 55.8478 42.9075 56.2893 41.5903 56.4524C40.2731 56.6155 38.9363 56.4963 37.6688 56.1028C36.4012 55.7094 35.2319 55.0506 34.2386 54.1703C33.2453 53.29 32.4507 52.2084 31.9077 50.9973C31.3647 49.7863 31.0857 48.4735 31.0892 47.1463C31.0892 46.8742 31.1008 46.6047 31.124 46.3377C31.1346 46.1499 31.0716 45.9654 30.9483 45.8233C30.825 45.6812 30.6512 45.5928 30.4638 45.5769C30.2763 45.5609 30.0901 45.6187 29.9445 45.7379C29.799 45.8571 29.7057 46.0283 29.6844 46.2152C29.6574 46.522 29.6439 46.8324 29.6439 47.1463C29.6457 48.6744 29.9719 50.1847 30.6011 51.5772C31.2302 52.9698 32.1479 54.2129 33.2934 55.2243C34.4389 56.2356 35.7862 56.9922 37.246 57.444C38.7058 57.8957 40.2448 58.0323 41.7614 57.8447C43.2779 57.6571 44.7373 57.1496 46.0431 56.3558C47.3488 55.562 48.4711 54.4999 49.3356 53.2399C50.2002 51.9799 50.7873 50.5507 51.0582 49.0468C51.329 47.5429 51.2774 45.9986 50.9068 44.5161C50.884 44.424 50.8433 44.3372 50.7868 44.2608C50.7304 44.1845 50.6595 44.12 50.5781 44.0712C50.4967 44.0223 50.4064 43.99 50.3125 43.9761C50.2186 43.9622 50.1228 43.9671 50.0308 43.9903Z" fill="url(#paint2_radial_470_51)"/>
<path d="M50.7186 24.0463C50.5354 23.9899 50.3372 24.0085 50.1678 24.0982C49.9983 24.1879 49.8714 24.3412 49.815 24.5244C49.7586 24.7076 49.7773 24.9057 49.8669 25.0752C49.9566 25.2446 50.1099 25.3715 50.2931 25.4279C51.7325 25.8652 53.0222 26.6936 54.0182 27.821C55.0143 28.9483 55.6776 30.3302 55.9341 31.8125C56.1907 33.2948 56.0305 34.8193 55.4713 36.2158C54.9121 37.6124 53.9759 38.8261 52.7672 39.7217C51.5584 40.6173 50.1247 41.1595 48.6258 41.2878C47.127 41.4162 45.6219 41.1256 44.2786 40.4485C42.9352 39.7715 41.8063 38.7345 41.0178 37.4534C40.2293 36.1722 39.8123 34.6972 39.8131 33.1929C39.8125 32.5538 39.887 31.9168 40.035 31.2951C40.0573 31.2028 40.0611 31.107 40.0463 31.0132C40.0315 30.9194 39.9984 30.8294 39.9489 30.7485C39.8993 30.6675 39.8343 30.597 39.7576 30.5412C39.6808 30.4853 39.5938 30.4451 39.5015 30.4229C39.4092 30.4006 39.3134 30.3968 39.2196 30.4116C39.1258 30.4263 39.0359 30.4594 38.9549 30.509C38.8739 30.5585 38.8034 30.6235 38.7476 30.7003C38.6917 30.7771 38.6515 30.8641 38.6293 30.9564C38.3103 32.2684 38.2733 33.6332 38.5208 34.9605C38.7682 36.2879 39.2944 37.5476 40.0646 38.6566C40.8348 39.7656 41.8315 40.6986 42.9889 41.394C44.1463 42.0894 45.438 42.5313 46.7788 42.6906C48.1196 42.8499 49.4789 42.723 50.767 42.3182C52.0551 41.9134 53.2427 41.24 54.2514 40.3423C55.26 39.4447 56.0667 38.3433 56.6183 37.1109C57.1699 35.8785 57.4538 34.5431 57.4512 33.1929C57.461 31.1472 56.8115 29.1528 55.5988 27.5052C54.3861 25.8577 52.6748 24.6448 50.7186 24.0463Z" fill="url(#paint3_radial_470_51)"/>
<path d="M32.8249 19.7209C33.0136 19.7518 33.2068 19.7071 33.3628 19.5966C33.5188 19.4861 33.6251 19.3187 33.6586 19.1305C33.9095 17.709 34.5799 16.3951 35.5834 15.3576C36.587 14.3201 37.8779 13.6064 39.2903 13.3083C40.7026 13.0102 42.1718 13.1414 43.5091 13.6848C44.8463 14.2283 45.9904 15.1593 46.7944 16.3581C47.5984 17.5569 48.0255 18.9688 48.0208 20.4122C48.016 21.8557 47.5797 23.2647 46.7679 24.4583C45.9561 25.6518 44.8059 26.5753 43.4651 27.11C42.1244 27.6447 40.6543 27.7662 39.244 27.4589C39.1502 27.4356 39.0526 27.4313 38.9571 27.4464C38.8617 27.4614 38.7702 27.4955 38.6881 27.5465C38.606 27.5975 38.535 27.6645 38.4793 27.7435C38.4235 27.8225 38.3842 27.9118 38.3636 28.0062C38.343 28.1007 38.3416 28.1983 38.3594 28.2933C38.3772 28.3883 38.4139 28.4788 38.4672 28.5593C38.5206 28.6399 38.5896 28.709 38.6702 28.7624C38.7507 28.8158 38.8412 28.8526 38.9362 28.8704C40.1279 29.1256 41.36 29.1277 42.5526 28.8763C43.7452 28.625 44.8717 28.126 45.8591 27.4116C46.8466 26.6972 47.6729 25.7833 48.2846 24.7291C48.8964 23.675 49.2798 22.5041 49.4102 21.2923C49.5406 20.0805 49.4149 18.8549 49.0414 17.6947C48.6679 16.5346 48.0548 15.4659 47.2419 14.5578C46.4291 13.6497 45.4345 12.9224 44.3226 12.4232C43.2108 11.924 42.0065 11.6639 40.7877 11.6598C38.7371 11.6568 36.7521 12.3815 35.1857 13.7048C33.6193 15.028 32.5732 16.8642 32.2335 18.8864C32.2014 19.0755 32.2456 19.2696 32.3565 19.4261C32.4674 19.5826 32.6359 19.6886 32.8249 19.7209Z" fill="url(#paint4_radial_470_51)"/>
<path d="M44.3555 49.2409C44.3555 49.2293 44.342 49.2216 44.3382 49.211C44.3343 49.2004 44.3382 49.1927 44.3382 49.185L41.1031 41.7558C41.0386 41.6363 40.943 41.5364 40.8264 41.4668C40.7098 41.3972 40.5765 41.3605 40.4407 41.3605C40.3049 41.3605 40.1717 41.3972 40.0551 41.4668C39.9385 41.5364 39.8428 41.6363 39.7784 41.7558L36.5433 49.185L36.5433 49.211C36.5433 49.211 36.5298 49.2293 36.5259 49.2409C36.495 49.3341 36.4832 49.4325 36.4912 49.5304C36.4912 49.5419 36.4989 49.5526 36.5009 49.5641C36.5138 49.6605 36.5467 49.7532 36.5973 49.8362C36.6041 49.8478 36.6031 49.8623 36.6108 49.8738L39.8459 54.6671C39.912 54.7652 40.0011 54.8456 40.1055 54.9012C40.2099 54.9567 40.3263 54.9858 40.4446 54.9858C40.5629 54.9858 40.6793 54.9567 40.7837 54.9012C40.8881 54.8456 40.9772 54.7652 41.0433 54.6671L44.2783 49.8738C44.2861 49.8623 44.2851 49.8478 44.2918 49.8362C44.3421 49.753 44.3749 49.6604 44.3883 49.5641C44.3883 49.5526 44.3961 49.5419 44.397 49.5304C44.4034 49.432 44.3892 49.3335 44.3555 49.2409ZM40.4364 43.8504L42.6951 49.0412L40.4364 49.8053L38.1768 49.0412L40.4364 43.8504ZM40.4364 52.9738L38.9988 50.8445L40.2048 51.2526C40.3549 51.304 40.5179 51.304 40.668 51.2526L41.874 50.8445L40.4364 52.9738Z" fill="url(#paint5_radial_470_51)"/>
<path d="M41.6212 22.9087L39.9714 22.9087C39.7306 22.908 39.5001 22.8118 39.3302 22.6412C39.1604 22.4706 39.0651 22.2396 39.0654 21.9989C39.0654 21.807 38.9891 21.6229 38.8534 21.4872C38.7177 21.3515 38.5337 21.2753 38.3418 21.2753C38.1498 21.2753 37.9658 21.3515 37.8301 21.4872C37.6944 21.6229 37.6181 21.807 37.6181 21.9989C37.6184 22.6228 37.8661 23.2211 38.3069 23.6626C38.7477 24.1041 39.3456 24.3528 39.9694 24.3541L40.0717 24.3541L40.0717 25.5533C40.0717 25.7453 40.1479 25.9293 40.2836 26.065C40.4194 26.2007 40.6034 26.277 40.7953 26.277C40.9872 26.277 41.1713 26.2007 41.307 26.065C41.4427 25.9293 41.5189 25.7453 41.5189 25.5533L41.5189 24.3541L41.6212 24.3541C42.2461 24.3541 42.8454 24.1058 43.2872 23.664C43.7291 23.2221 43.9773 22.6228 43.9773 21.9979C43.9773 21.3731 43.7291 20.7738 43.2872 20.3319C42.8454 19.8901 42.2461 19.6418 41.6212 19.6418L39.9714 19.6418C39.7301 19.6418 39.4986 19.546 39.328 19.3753C39.1574 19.2047 39.0615 18.9733 39.0615 18.732C39.0615 18.4907 39.1574 18.2593 39.328 18.0886C39.4986 17.918 39.7301 17.8222 39.9714 17.8222L41.6212 17.8222C41.8619 17.8229 42.0925 17.9192 42.2624 18.0897C42.4322 18.2603 42.5275 18.4913 42.5272 18.732C42.5272 18.9239 42.6034 19.108 42.7391 19.2437C42.8748 19.3794 43.0589 19.4556 43.2508 19.4556C43.4427 19.4556 43.6268 19.3794 43.7625 19.2437C43.8982 19.108 43.9744 18.9239 43.9744 18.732C43.9742 18.1081 43.7265 17.5098 43.2857 17.0683C42.8449 16.6268 42.247 16.3781 41.6231 16.3768L41.5209 16.3768L41.5209 15.1747C41.5209 14.9828 41.4446 14.7987 41.3089 14.663C41.1732 14.5273 40.9892 14.451 40.7973 14.451C40.6053 14.451 40.4213 14.5273 40.2856 14.663C40.1499 14.7987 40.0736 14.9828 40.0736 15.1747L40.0736 16.3768L39.9714 16.3768C39.3467 16.3768 38.7477 16.625 38.306 17.0667C37.8643 17.5083 37.6162 18.1074 37.6162 18.732C37.6162 19.3566 37.8643 19.9557 38.306 20.3973C38.7477 20.839 39.3467 21.0871 39.9714 21.0871L41.6212 21.0871C41.8628 21.0871 42.0944 21.1831 42.2652 21.3539C42.4361 21.5247 42.532 21.7564 42.532 21.9979C42.532 22.2395 42.4361 22.4712 42.2652 22.642C42.0944 22.8128 41.8628 22.9087 41.6212 22.9087Z" fill="url(#paint6_radial_470_51)"/>
<path d="M47.9091 28.2163C47.446 28.2119 46.9888 28.3193 46.5762 28.5294C46.1635 28.7395 45.8077 29.0461 45.5389 29.4232C45.2702 29.8002 45.0963 30.2366 45.0323 30.6952C44.9682 31.1537 45.0157 31.621 45.1709 32.0573C44.4623 32.197 43.831 32.5953 43.3997 33.1747C42.9684 33.754 42.768 34.473 42.8375 35.1919C42.9069 35.9108 43.2412 36.5782 43.7753 37.0644C44.3095 37.5505 45.0053 37.8206 45.7276 37.8222C46.1425 37.8207 46.5522 37.7296 46.9286 37.5553C47.3051 37.381 47.6396 37.1274 47.9091 36.812C48.2955 37.2592 48.8096 37.5774 49.3822 37.7238C49.9549 37.8703 50.5586 37.8379 51.1123 37.631C51.666 37.4241 52.143 37.0527 52.4794 36.5667C52.8157 36.0806 52.9952 35.5033 52.9937 34.9122C52.993 34.2384 52.7588 33.5857 52.331 33.0652C51.9031 32.5447 51.3081 32.1885 50.6473 32.0573C50.8024 31.621 50.8499 31.1537 50.7859 30.6952C50.7218 30.2366 50.548 29.8002 50.2792 29.4232C50.0104 29.0461 49.6546 28.7395 49.242 28.5294C48.8293 28.3193 48.3721 28.2119 47.9091 28.2163ZM47.9091 29.6636C48.1994 29.6618 48.4837 29.7464 48.7258 29.9065C48.968 30.0665 49.1572 30.2949 49.2694 30.5627C49.3816 30.8304 49.4118 31.1255 49.3561 31.4104C49.3004 31.6953 49.1613 31.9573 48.9565 32.163C48.7517 32.3688 48.4903 32.5091 48.2057 32.5661C47.921 32.6232 47.6259 32.5944 47.3576 32.4834C47.0893 32.3724 46.86 32.1843 46.6988 31.9429C46.5376 31.7014 46.4518 31.4175 46.4522 31.1272C46.4517 30.7399 46.6047 30.3681 46.8778 30.0934C47.1509 29.8187 47.5217 29.6634 47.9091 29.6616L47.9091 29.6636ZM45.7276 36.3788C45.4375 36.3801 45.1535 36.2953 44.9116 36.1351C44.6697 35.975 44.4808 35.7466 44.3689 35.479C44.2569 35.2113 44.2268 34.9165 44.2825 34.6318C44.3382 34.3471 44.4772 34.0853 44.6818 33.8796C44.8864 33.674 45.1474 33.5336 45.4318 33.4764C45.7162 33.4192 46.0112 33.4477 46.2794 33.5583C46.5477 33.6688 46.777 33.8565 46.9385 34.0976C47.0999 34.3386 47.1862 34.6221 47.1864 34.9122C47.1867 35.2997 47.0332 35.6715 46.7598 35.9461C46.4863 36.2207 46.1151 36.3756 45.7276 36.3768L45.7276 36.3788ZM51.5484 34.9122C51.5471 35.2005 51.4603 35.4819 51.2992 35.721C51.138 35.96 50.9097 36.1459 50.643 36.2553C50.3762 36.3646 50.0831 36.3925 49.8005 36.3354C49.5179 36.2782 49.2586 36.1387 49.0553 35.9343C48.852 35.7299 48.7138 35.4699 48.6582 35.187C48.6026 34.9042 48.632 34.6111 48.7427 34.345C48.8535 34.0788 49.0406 33.8515 49.2805 33.6916C49.5204 33.5317 49.8023 33.4465 50.0905 33.4467C50.4781 33.4479 50.8494 33.603 51.1227 33.8778C51.3961 34.1526 51.5492 34.5246 51.5484 34.9122Z" fill="url(#paint7_radial_470_51)"/>
<defs fill="#ffffff">
<radialGradient id="paint0_radial_470_51" cx="0" cy="0" r="1" gradientUnits="userSpaceOnUse" gradientTransform="translate(-47.9735 -5.73295) rotate(27.8105) scale(94.259 101.668)" fill="#ffffff">
<stop offset="0.35" stop-color="#ffffff" fill="#ffffff"/>
<stop offset="0.68" stop-color="#ffffff" fill="#ffffff"/>
<stop offset="0.91027" stop-color="#ffffff" fill="#ffffff"/>
</radialGradient>
<radialGradient id="paint1_radial_470_51" cx="0" cy="0" r="1" gradientUnits="userSpaceOnUse" gradientTransform="translate(-0.916484 8.09884) rotate(43.045) scale(40.8639 53.2804)" fill="#ffffff">
<stop offset="0.35" stop-color="#ffffff" fill="#ffffff"/>
<stop offset="0.68" stop-color="#ffffff" fill="#ffffff"/>
<stop offset="0.91027" stop-color="#ffffff" fill="#ffffff"/>
</radialGradient>
<radialGradient id="paint2_radial_470_51" cx="0" cy="0" r="1" gradientUnits="userSpaceOnUse" gradientTransform="translate(-18.0233 31.2567) rotate(18.8339) scale(71.0319 56.7273)" fill="#ffffff">
<stop offset="0.35" stop-color="#ffffff" fill="#ffffff"/>
<stop offset="0.68" stop-color="#ffffff" fill="#ffffff"/>
<stop offset="0.91027" stop-color="#ffffff" fill="#ffffff"/>
</radialGradient>
<radialGradient id="paint3_radial_470_51" cx="0" cy="0" r="1" gradientUnits="userSpaceOnUse" gradientTransform="translate(-3.80266 6.94475) rotate(27.3764) scale(66.9636 71.4701)" fill="#ffffff">
<stop offset="0.35" stop-color="#ffffff" fill="#ffffff"/>
<stop offset="0.68" stop-color="#ffffff" fill="#ffffff"/>
<stop offset="0.91027" stop-color="#ffffff" fill="#ffffff"/>
</radialGradient>
<radialGradient id="paint4_radial_470_51" cx="0" cy="0" r="1" gradientUnits="userSpaceOnUse" gradientTransform="translate(-5.84145 -4.18987) rotate(28.0386) scale(60.8245 65.9608)" fill="#ffffff">
<stop offset="0.35" stop-color="#ffffff" fill="#ffffff"/>
<stop offset="0.68" stop-color="#ffffff" fill="#ffffff"/>
<stop offset="0.91027" stop-color="#ffffff" fill="#ffffff"/>
</radialGradient>
<radialGradient id="paint5_radial_470_51" cx="0" cy="0" r="1" gradientUnits="userSpaceOnUse" gradientTransform="translate(19.0215 28.9517) rotate(42.2591) scale(33.2862 43.3025)" fill="#ffffff">
<stop offset="0.35" stop-color="#ffffff" fill="#ffffff"/>
<stop offset="0.68" stop-color="#ffffff" fill="#ffffff"/>
<stop offset="0.91027" stop-color="#ffffff" fill="#ffffff"/>
</radialGradient>
<radialGradient id="paint6_radial_470_51" cx="0" cy="0" r="1" gradientUnits="userSpaceOnUse" gradientTransform="translate(23.5687 3.68102) rotate(44.4394) scale(27.7486 36.2574)" fill="#ffffff">
<stop offset="0.35" stop-color="#ffffff" fill="#ffffff"/>
<stop offset="0.68" stop-color="#ffffff" fill="#ffffff"/>
<stop offset="0.91027" stop-color="#ffffff" fill="#ffffff"/>
</radialGradient>
<radialGradient id="paint7_radial_470_51" cx="0" cy="0" r="1" gradientUnits="userSpaceOnUse" gradientTransform="translate(20.3658 19.4679) rotate(26.4839) scale(35.3882 36.92)" fill="#ffffff">
<stop offset="0.35" stop-color="#ffffff" fill="#ffffff"/>
<stop offset="0.68" stop-color="#ffffff" fill="#ffffff"/>
<stop offset="0.91027" stop-color="#ffffff" fill="#ffffff"/>
</radialGradient>
</defs>
</svg>