<svg xmlns="http://www.w3.org/2000/svg" viewBox="0 0 57 58" fill="none">
<path d="M21.642 29.6166L20.2611 29.6166C19.3801 29.6166 18.6634 28.9044 18.6634 28.029C18.6634 27.7631 18.4479 27.5476 18.182 27.5476C17.916 27.5476 17.7006 27.7631 17.7006 28.029C17.7006 29.4353 18.8492 30.5794 20.2611 30.5794L21.642 30.5794C21.9079 30.5794 22.1234 30.3639 22.1234 30.098C22.1234 29.832 21.9079 29.6166 21.642 29.6166Z" fill="url(#paint0_radial_470_73)"/>
<path d="M26.1658 33.1796L22.053 33.1796C20.6946 33.1796 19.5895 34.2802 19.5895 35.6333C19.5895 35.8992 19.805 36.1147 20.0709 36.1147C20.3368 36.1147 20.5523 35.8991 20.5523 35.6333C20.5523 34.8112 21.2255 34.1424 22.053 34.1424L26.1658 34.1424C26.4317 34.1424 26.6472 33.9269 26.6472 33.661C26.6472 33.395 26.4317 33.1796 26.1658 33.1796Z" fill="url(#paint1_radial_470_73)"/>
<path d="M30.0883 33.1796L28.0914 33.1796C27.8255 33.1796 27.61 33.395 27.61 33.661C27.61 33.9269 27.8255 34.1424 28.0914 34.1424L30.0883 34.1424C30.3542 34.1424 30.5697 33.9269 30.5697 33.661C30.5697 33.395 30.3541 33.1796 30.0883 33.1796Z" fill="url(#paint2_radial_470_73)"/>
<path d="M26.7033 23.8252C26.4374 23.8252 26.2219 24.0407 26.2219 24.3066C26.2219 25.6832 25.0954 26.8031 23.7107 26.8031C23.4447 26.8031 23.2292 27.0186 23.2292 27.2846C23.2292 27.5505 23.4447 27.766 23.7107 27.766C25.6263 27.766 27.1847 26.2141 27.1847 24.3066C27.1847 24.0407 26.9692 23.8252 26.7033 23.8252Z" fill="url(#paint3_radial_470_73)"/>
<path d="M25.8159 16.5473C24.6659 16.4735 23.6688 17.3454 23.5942 18.4916C23.5769 18.7569 23.778 18.986 24.0433 19.0033C24.054 19.004 24.0646 19.0043 24.0751 19.0043C24.3267 19.0043 24.5384 18.8088 24.555 18.5541C24.5951 17.9374 25.133 17.469 25.754 17.5082C26.0196 17.526 26.2483 17.3241 26.2654 17.0587C26.2825 16.7934 26.0813 16.5645 25.8159 16.5473Z" fill="url(#paint4_radial_470_73)"/>
<path d="M24.1968 35.3232C23.9308 35.3232 23.7153 35.5387 23.7153 35.8047C23.7153 36.0706 23.9308 36.2861 24.1968 36.2861C24.9917 36.2861 25.6385 36.9286 25.6385 37.7182C25.6385 38.5081 24.9917 39.1505 24.1968 39.1505C23.9308 39.1505 23.7153 39.366 23.7153 39.632C23.7153 39.8979 23.9308 40.1134 24.1968 40.1134C25.5227 40.1134 26.6014 39.039 26.6014 37.7182C26.6014 36.3976 25.5227 35.3232 24.1968 35.3232Z" fill="url(#paint5_radial_470_73)"/>
<path d="M29.1238 23.9867C28.8578 23.9867 28.6423 24.2022 28.6423 24.4681C28.6423 24.7341 28.8578 24.9495 29.1238 24.9495C29.7624 24.9495 30.282 25.4654 30.282 26.0996C30.282 26.7339 29.7624 27.2498 29.1238 27.2498C28.8578 27.2498 28.6423 27.4653 28.6423 27.7313C28.6423 27.9972 28.8578 28.2127 29.1238 28.2127C30.2934 28.2127 31.2448 27.2647 31.2448 26.0996C31.2448 24.9346 30.2934 23.9867 29.1238 23.9867Z" fill="url(#paint6_radial_470_73)"/>
<path d="M20.643 20.9258C20.3771 20.9258 20.1616 21.1413 20.1616 21.4072C20.1616 21.6731 20.3771 21.8886 20.643 21.8886C21.7403 21.8886 22.6329 22.7757 22.6329 23.8662C22.6329 24.9567 21.7403 25.8438 20.643 25.8438C20.3771 25.8438 20.1616 26.0593 20.1616 26.3253C20.1616 26.5912 20.3771 26.8067 20.643 26.8067C22.2711 26.8067 23.5958 25.4876 23.5958 23.8662C23.5958 22.2448 22.2711 20.9258 20.643 20.9258Z" fill="url(#paint7_radial_470_73)"/>
<path d="M43.2751 20.9039C42.3702 20.9039 41.634 21.6376 41.634 22.5393C41.634 23.4411 42.3702 24.1747 43.2751 24.1747C44.18 24.1747 44.9162 23.4411 44.9162 22.5393C44.9162 21.6376 44.18 20.9039 43.2751 20.9039ZM43.2752 23.2119C42.9012 23.2119 42.5969 22.9102 42.5969 22.5394C42.5969 22.1685 42.9011 21.8668 43.2752 21.8668C43.6491 21.8668 43.9534 22.1685 43.9534 22.5394C43.9534 22.9102 43.6491 23.2119 43.2752 23.2119Z" fill="url(#paint8_radial_470_73)"/>
<path d="M44.8836 33.2252C43.9787 33.2252 43.2426 33.9588 43.2426 34.8606C43.2426 35.7624 43.9787 36.496 44.8836 36.496C45.7885 36.496 46.5246 35.7624 46.5246 34.8606C46.5246 33.9589 45.7885 33.2252 44.8836 33.2252ZM44.8836 35.5332C44.5097 35.5332 44.2054 35.2315 44.2054 34.8606C44.2054 34.4898 44.5097 34.1881 44.8836 34.1881C45.2576 34.1881 45.5618 34.4898 45.5618 34.8606C45.5618 35.2315 45.2576 35.5332 44.8836 35.5332Z" fill="url(#paint9_radial_470_73)"/>
<path d="M43.8736 27.4554C43.5959 27.4555 43.3343 27.5248 43.1048 27.6467L42.1663 26.7129C41.9777 26.5253 41.673 26.5262 41.4855 26.7146C41.298 26.903 41.2987 27.2078 41.4872 27.3954L42.4233 28.3268C42.3017 28.5551 42.2325 28.815 42.2325 29.0908C42.2325 29.9926 42.9687 30.7262 43.8736 30.7262C44.7786 30.7262 45.5147 29.9926 45.5147 29.0908C45.5147 28.1891 44.7785 27.4554 43.8736 27.4554ZM43.8737 29.7634C43.4997 29.7634 43.1955 29.4618 43.1955 29.0909C43.1955 28.7201 43.4997 28.4184 43.8737 28.4184C44.2476 28.4184 44.5519 28.72 44.5519 29.0909C44.5519 29.4617 44.2476 29.7634 43.8737 29.7634Z" fill="url(#paint10_radial_470_73)"/>
<path d="M42.7888 38.2505C41.8838 38.2505 41.1477 38.9841 41.1477 39.8859C41.1477 40.7877 41.8839 41.5213 42.7888 41.5213C43.6937 41.5213 44.4298 40.7877 44.4298 39.8859C44.4298 38.9841 43.6937 38.2505 42.7888 38.2505ZM42.7888 40.5584C42.4148 40.5584 42.1105 40.2567 42.1105 39.8858C42.1105 39.515 42.4148 39.2133 42.7888 39.2133C43.1627 39.2133 43.467 39.515 43.467 39.8858C43.4671 40.2567 43.1628 40.5584 42.7888 40.5584Z" fill="url(#paint11_radial_470_73)"/>
<path d="M37.1559 21.5124C37.4619 21.5124 37.827 21.3617 38.0439 21.1459L39.9037 19.2952C40.0906 19.369 40.294 19.4101 40.5069 19.4101C41.4118 19.4101 42.1479 18.6765 42.1479 17.7747C42.1479 16.873 41.4117 16.1394 40.5069 16.1394C39.602 16.1394 38.8659 16.873 38.8659 17.7747C38.8659 18.1133 38.9697 18.4283 39.1473 18.6895L37.3649 20.4632C37.3272 20.4994 37.2079 20.5487 37.1559 20.5496L33.1821 20.5496L33.1821 17.3627L34.2999 17.3627C34.5066 18.0302 35.1315 18.5167 35.8683 18.5167C36.7732 18.5167 37.5094 17.7831 37.5094 16.8813C37.5094 15.9796 36.7732 15.246 35.8683 15.246C35.1315 15.246 34.5066 15.7324 34.2999 16.3999L33.1821 16.3999L33.1821 16.327C33.1821 14.1976 31.4423 12.4652 29.3036 12.4652C27.7748 12.4652 26.4033 13.3563 25.7774 14.7188C25.6812 14.712 25.5853 14.7085 25.4901 14.7085C23.2673 14.7085 21.453 16.4831 21.4015 18.6841C21.2095 18.6568 21.0154 18.643 20.8205 18.643C18.5654 18.643 16.7308 20.4697 16.7308 22.715C16.7308 23.2078 16.8172 23.6847 16.9882 24.1383C15.3049 25.1371 14.2776 26.9213 14.2776 28.8977C14.2776 29.9589 14.5799 30.9904 15.1517 31.8807C15.6227 32.614 16.2573 33.2243 17.0036 33.6661C16.8243 34.1309 16.7308 34.6286 16.7308 35.1284C16.7308 36.1196 17.0927 37.0748 17.7498 37.8181C17.9259 38.0172 18.2301 38.036 18.4294 37.8598C18.6286 37.6837 18.6473 37.3795 18.4711 37.1803C17.9697 36.6132 17.6936 35.8844 17.6936 35.1283C17.6936 34.6197 17.8138 34.1345 18.0506 33.6862C18.3331 33.1496 18.7721 32.6964 19.3274 32.3957C19.5613 32.2691 19.6481 31.9769 19.5215 31.7432C19.3949 31.5093 19.1026 31.4223 18.8689 31.5491C18.2939 31.8606 17.8144 32.2974 17.4559 32.8145C16.0793 31.9864 15.2404 30.5222 15.2404 28.8977C15.2404 27.1607 16.2025 25.6036 17.7558 24.8155C17.7558 24.8155 18.6545 24.3155 19.8477 24.3155C20.1136 24.3155 20.3291 24.1 20.3291 23.8341C20.3291 23.5681 20.1136 23.3526 19.8477 23.3526C19.1483 23.3526 18.4788 23.482 17.8615 23.7174C17.7509 23.3964 17.6938 23.061 17.6938 22.715C17.6938 21.0006 19.0964 19.6059 20.8206 19.6059C21.1447 19.6059 21.4653 19.6555 21.7736 19.7534C21.9315 19.8035 22.1041 19.7689 22.2305 19.6617C22.357 19.5545 22.4194 19.39 22.3957 19.2259C22.3742 19.0765 22.3633 18.9266 22.3633 18.7806C22.3633 17.0662 23.766 15.6714 25.4902 15.6714C25.6595 15.6714 25.8326 15.6859 26.0048 15.7142C27.4849 15.959 28.6171 17.2405 28.6171 18.7806C28.6171 19.0465 28.8325 19.262 29.0985 19.262C29.3644 19.262 29.5799 19.0465 29.5799 18.7806C29.5799 16.9767 28.3953 15.444 26.7601 14.9109C27.2684 14.007 28.2345 13.4281 29.3036 13.4281C30.9113 13.4281 32.2193 14.7285 32.2193 16.327L32.2193 16.3804L31.2934 16.3804C31.0274 16.3804 30.812 16.5959 30.812 16.8619C30.812 17.1278 31.0274 17.3433 31.2934 17.3433L32.2193 17.3433L32.2193 20.5495L28.3256 20.5495C27.4446 20.5495 26.7278 19.8374 26.7278 18.9621C26.7278 18.6961 26.5124 18.4807 26.2464 18.4807C25.9805 18.4807 25.765 18.6961 25.765 18.9621C25.765 20.3683 26.9137 21.5123 28.3256 21.5123L32.2193 21.5123L32.2193 29.6166L24.4101 29.6166C24.1442 29.6166 23.9287 29.8321 23.9287 30.0981C23.9287 30.364 24.1442 30.5795 24.4101 30.5795L32.2193 30.5795L32.2193 37.1894L30.7317 37.1894C29.3733 37.1894 28.2682 38.2901 28.2682 39.6431C28.2682 39.909 28.4837 40.1245 28.7496 40.1245C29.0155 40.1245 29.231 39.909 29.231 39.6431C29.231 38.8211 29.9042 38.1523 30.7317 38.1523L32.2193 38.1523L32.2193 41.4684C32.2193 41.5441 32.2155 41.6188 32.2097 41.6929L31.2934 41.6929C31.0274 41.6929 30.812 41.9084 30.812 42.1743C30.812 42.4403 31.0274 42.6558 31.2934 42.6558L31.9625 42.6558C31.5054 43.6637 30.4859 44.3674 29.3036 44.3674C28.2417 44.3674 27.2792 43.7944 26.7683 42.8992C27.3498 42.7092 27.8849 42.3899 28.3358 41.955C28.5271 41.7704 28.5326 41.4656 28.348 41.2743C28.1634 41.0829 27.8586 41.0775 27.6673 41.2621C27.2076 41.7056 26.6329 41.992 26.0123 42.0954C25.8373 42.1247 25.6616 42.1396 25.4901 42.1396C23.7659 42.1396 22.3631 40.7448 22.3631 39.0304C22.3631 38.9866 22.3658 38.941 22.3679 38.896C22.7565 38.7378 23.1215 38.5214 23.4471 38.2496C23.6512 38.0792 23.6785 37.7756 23.5081 37.5715C23.3377 37.3674 23.0391 37.3463 22.83 37.5105C21.8639 38.2694 20.9296 38.2576 20.5558 38.2266C20.2901 38.204 20.0582 38.4015 20.0362 38.6664C20.0141 38.9314 20.2111 39.164 20.4761 39.1861C20.7839 39.2115 21.0975 39.2026 21.4024 39.1592C21.4708 41.3452 23.2782 43.1024 25.4901 43.1024C25.5876 43.1024 25.6858 43.0988 25.7844 43.0916C26.4136 44.4451 27.7823 45.3302 29.3036 45.3302C31.4422 45.3302 33.1821 43.5979 33.1821 41.4684L33.1821 40.4046L35.7342 40.4046C35.7864 40.4055 35.9057 40.4547 35.9433 40.4908L37.091 41.6329C36.9358 41.8827 36.8458 42.1768 36.8458 42.4916C36.8458 43.3934 37.582 44.127 38.4869 44.127C39.3918 44.127 40.128 43.3934 40.128 42.4916C40.128 41.5898 39.3918 40.8562 38.4869 40.8562C38.2489 40.8562 38.0229 40.9074 37.8186 40.9985L36.6224 39.8082C36.4055 39.5924 36.0404 39.4417 35.7344 39.4417L33.1821 39.4417L33.1821 36.8682L37.3673 36.8682C37.5741 37.5357 38.1989 38.0222 38.9358 38.0222C39.8407 38.0222 40.5768 37.2886 40.5768 36.3868C40.5768 35.485 39.8406 34.7514 38.9358 34.7514C38.1989 34.7514 37.5741 35.2378 37.3673 35.9054L33.1821 35.9054L33.1821 32.6805L38.1903 32.6805C38.3971 33.348 39.0219 33.8345 39.7588 33.8345C40.6637 33.8345 41.3999 33.1009 41.3999 32.1991C41.3999 31.2973 40.6637 30.5637 39.7588 30.5637C39.0219 30.5637 38.3971 31.0501 38.1903 31.7177L33.1821 31.7177L33.1821 28.2136L34.3747 28.2136C34.5815 28.8811 35.2063 29.3676 35.9431 29.3676C36.8481 29.3676 37.5842 28.634 37.5842 27.7322C37.5842 26.8304 36.848 26.0968 35.9431 26.0968C35.2063 26.0968 34.5814 26.5832 34.3747 27.2508L33.1821 27.2508L33.1821 24.4726L38.4276 24.4726C38.4798 24.4736 38.5991 24.5227 38.6366 24.5588L39.6255 25.543C39.7195 25.6364 39.8423 25.6832 39.9651 25.6832C40.0887 25.6832 40.2123 25.6359 40.3063 25.5413C40.4939 25.3528 40.4931 25.048 40.3047 24.8604L39.3158 23.8763C39.0989 23.6605 38.7338 23.5098 38.4278 23.5098L33.1821 23.5098L33.1821 21.5124L37.1559 21.5124ZM40.5069 17.1022C40.8808 17.1022 41.1851 17.4039 41.1851 17.7746C41.1851 18.1455 40.8808 18.4472 40.5069 18.4472C40.1329 18.4472 39.8287 18.1455 39.8287 17.7746C39.8287 17.4039 40.1329 17.1022 40.5069 17.1022ZM35.8683 16.2088C36.2423 16.2088 36.5465 16.5105 36.5465 16.8813C36.5465 17.2521 36.2423 17.5539 35.8683 17.5539C35.4943 17.5539 35.1901 17.2522 35.1901 16.8813C35.1901 16.5105 35.4943 16.2088 35.8683 16.2088ZM38.4869 41.819C38.8609 41.819 39.1651 42.1207 39.1651 42.4916C39.1651 42.8624 38.8609 43.1641 38.4869 43.1641C38.1129 43.1641 37.8087 42.8624 37.8087 42.4916C37.8087 42.1207 38.1129 41.819 38.4869 41.819ZM38.9358 35.7142C39.3097 35.7142 39.614 36.0159 39.614 36.3868C39.614 36.7576 39.3097 37.0594 38.9358 37.0594C38.5618 37.0594 38.2575 36.7577 38.2575 36.3868C38.2575 36.016 38.5618 35.7142 38.9358 35.7142ZM39.7587 31.5265C40.1327 31.5265 40.437 31.8282 40.437 32.1991C40.437 32.5699 40.1327 32.8717 39.7587 32.8717C39.3848 32.8717 39.0805 32.57 39.0805 32.1991C39.0805 31.8282 39.3848 31.5265 39.7587 31.5265ZM35.9431 27.0596C36.3171 27.0596 36.6214 27.3613 36.6214 27.7322C36.6214 28.103 36.3171 28.4047 35.9431 28.4047C35.5692 28.4047 35.2649 28.103 35.2649 27.7322C35.2649 27.3613 35.5692 27.0596 35.9431 27.0596Z" fill="url(#paint12_radial_470_73)"/>
<defs fill="#ffffff">
<radialGradient id="paint0_radial_470_73" cx="0" cy="0" r="1" gradientUnits="userSpaceOnUse" gradientTransform="translate(7.93344 24.7865) rotate(19.8787) scale(14.6481 12.243)" fill="#ffffff">
<stop offset="0.35" stop-color="#ffffff" fill="#ffffff"/>
<stop offset="0.68" stop-color="#ffffff" fill="#ffffff"/>
<stop offset="0.91027" stop-color="#ffffff" fill="#ffffff"/>
</radialGradient>
<radialGradient id="paint1_radial_470_73" cx="0" cy="0" r="1" gradientUnits="userSpaceOnUse" gradientTransform="translate(4.00374 30.5065) rotate(12.3726) scale(22.5044 12.3109)" fill="#ffffff">
<stop offset="0.35" stop-color="#ffffff" fill="#ffffff"/>
<stop offset="0.68" stop-color="#ffffff" fill="#ffffff"/>
<stop offset="0.91027" stop-color="#ffffff" fill="#ffffff"/>
</radialGradient>
<radialGradient id="paint2_radial_470_73" cx="0" cy="0" r="1" gradientUnits="userSpaceOnUse" gradientTransform="translate(21.074 32.3027) rotate(9.73686) scale(9.353 4.07495)" fill="#ffffff">
<stop offset="0.35" stop-color="#ffffff" fill="#ffffff"/>
<stop offset="0.68" stop-color="#ffffff" fill="#ffffff"/>
<stop offset="0.91027" stop-color="#ffffff" fill="#ffffff"/>
</radialGradient>
<radialGradient id="paint3_radial_470_73" cx="0" cy="0" r="1" gradientUnits="userSpaceOnUse" gradientTransform="translate(14.4942 20.2363) rotate(27.7225) scale(13.9172 14.9795)" fill="#ffffff">
<stop offset="0.35" stop-color="#ffffff" fill="#ffffff"/>
<stop offset="0.68" stop-color="#ffffff" fill="#ffffff"/>
<stop offset="0.91027" stop-color="#ffffff" fill="#ffffff"/>
</radialGradient>
<radialGradient id="paint4_radial_470_73" cx="0" cy="0" r="1" gradientUnits="userSpaceOnUse" gradientTransform="translate(17.6898 14.3014) rotate(25.9041) scale(9.25599 9.50725)" fill="#ffffff">
<stop offset="0.35" stop-color="#ffffff" fill="#ffffff"/>
<stop offset="0.68" stop-color="#ffffff" fill="#ffffff"/>
<stop offset="0.91027" stop-color="#ffffff" fill="#ffffff"/>
</radialGradient>
<radialGradient id="paint5_radial_470_73" cx="0" cy="0" r="1" gradientUnits="userSpaceOnUse" gradientTransform="translate(17.342 30.9608) rotate(41.2016) scale(11.9468 15.4762)" fill="#ffffff">
<stop offset="0.35" stop-color="#ffffff" fill="#ffffff"/>
<stop offset="0.68" stop-color="#ffffff" fill="#ffffff"/>
<stop offset="0.91027" stop-color="#ffffff" fill="#ffffff"/>
</radialGradient>
<radialGradient id="paint6_radial_470_73" cx="0" cy="0" r="1" gradientUnits="userSpaceOnUse" gradientTransform="translate(22.8952 20.138) rotate(40.5807) scale(10.6725 13.7822)" fill="#ffffff">
<stop offset="0.35" stop-color="#ffffff" fill="#ffffff"/>
<stop offset="0.68" stop-color="#ffffff" fill="#ffffff"/>
<stop offset="0.91027" stop-color="#ffffff" fill="#ffffff"/>
</radialGradient>
<radialGradient id="paint7_radial_470_73" cx="0" cy="0" r="1" gradientUnits="userSpaceOnUse" gradientTransform="translate(12.5779 15.57) rotate(42.0912) scale(14.4134 18.7398)" fill="#ffffff">
<stop offset="0.35" stop-color="#ffffff" fill="#ffffff"/>
<stop offset="0.68" stop-color="#ffffff" fill="#ffffff"/>
<stop offset="0.91027" stop-color="#ffffff" fill="#ffffff"/>
</radialGradient>
<radialGradient id="paint8_radial_470_73" cx="0" cy="0" r="1" gradientUnits="userSpaceOnUse" gradientTransform="translate(34.386 17.9252) rotate(27.7285) scale(11.5487 12.432)" fill="#ffffff">
<stop offset="0.35" stop-color="#ffffff" fill="#ffffff"/>
<stop offset="0.68" stop-color="#ffffff" fill="#ffffff"/>
<stop offset="0.91027" stop-color="#ffffff" fill="#ffffff"/>
</radialGradient>
<radialGradient id="paint9_radial_470_73" cx="0" cy="0" r="1" gradientUnits="userSpaceOnUse" gradientTransform="translate(35.9946 30.2465) rotate(27.729) scale(11.5485 12.432)" fill="#ffffff">
<stop offset="0.35" stop-color="#ffffff" fill="#ffffff"/>
<stop offset="0.68" stop-color="#ffffff" fill="#ffffff"/>
<stop offset="0.91027" stop-color="#ffffff" fill="#ffffff"/>
</radialGradient>
<radialGradient id="paint10_radial_470_73" cx="0" cy="0" r="1" gradientUnits="userSpaceOnUse" gradientTransform="translate(32.138 22.7901) rotate(27.7203) scale(14.6694 15.7883)" fill="#ffffff">
<stop offset="0.35" stop-color="#ffffff" fill="#ffffff"/>
<stop offset="0.68" stop-color="#ffffff" fill="#ffffff"/>
<stop offset="0.91027" stop-color="#ffffff" fill="#ffffff"/>
</radialGradient>
<radialGradient id="paint11_radial_470_73" cx="0" cy="0" r="1" gradientUnits="userSpaceOnUse" gradientTransform="translate(33.8997 35.2717) rotate(27.729) scale(11.5488 12.4322)" fill="#ffffff">
<stop offset="0.35" stop-color="#ffffff" fill="#ffffff"/>
<stop offset="0.68" stop-color="#ffffff" fill="#ffffff"/>
<stop offset="0.91027" stop-color="#ffffff" fill="#ffffff"/>
</radialGradient>
<radialGradient id="paint12_radial_470_73" cx="0" cy="0" r="1" gradientUnits="userSpaceOnUse" gradientTransform="translate(-47.2694 -17.4654) rotate(31.8817) scale(102.226 119.835)" fill="#ffffff">
<stop offset="0.35" stop-color="#ffffff" fill="#ffffff"/>
<stop offset="0.68" stop-color="#ffffff" fill="#ffffff"/>
<stop offset="0.91027" stop-color="#ffffff" fill="#ffffff"/>
</radialGradient>
</defs>
</svg>