<svg xmlns="http://www.w3.org/2000/svg" width="59" height="61" viewBox="0 0 59 61" fill="none">
<path d="M48.1415 50.8361C46.5511 50.8361 45.2415 49.5264 45.2415 47.8425C45.2415 46.2522 46.5511 44.9425 48.235 44.9425C49.8253 44.9425 51.135 46.2522 51.135 47.9361C51.135 48.4973 50.7608 48.8715 50.1995 48.8715C49.6382 48.8715 49.264 48.4973 49.264 47.9361C49.264 47.2812 48.7963 46.8135 48.235 46.8135C47.5802 46.8135 47.1124 47.2812 47.1124 47.8425C47.1124 48.4973 47.5802 48.9651 48.1415 48.9651C48.7027 48.9651 49.0769 49.3393 49.0769 49.9006C49.0769 50.4619 48.7027 50.8361 48.1415 50.8361Z" fill="url(#paint0_radial_470_126)"/>
<path d="M48.048 54.8586C46.4576 54.8586 45.1479 53.549 45.1479 51.8651C45.1479 51.3038 45.5221 50.9296 46.0834 50.9296C46.6447 50.9296 47.0189 51.3038 47.0189 51.8651C47.0189 52.5199 47.4867 52.9877 48.048 52.9877C48.7028 52.9877 49.1705 52.5199 49.1705 51.9586C49.1705 51.3038 48.7028 50.8361 48.1415 50.8361C47.5802 50.8361 47.206 50.4619 47.206 49.9006C47.206 49.3393 47.5802 48.9651 48.1415 48.9651C49.7318 48.9651 51.0415 50.2748 51.0415 51.9586C51.0415 53.549 49.7318 54.8586 48.048 54.8586Z" fill="url(#paint1_radial_470_126)"/>
<path d="M48.1415 46.8135C47.5802 46.8135 47.2061 46.4393 47.2061 45.878V45.0361C47.2061 44.4748 47.5802 44.1006 48.1415 44.1006C48.7028 44.1006 49.077 44.4748 49.077 45.0361V45.878C49.077 46.4393 48.7028 46.8135 48.1415 46.8135Z" fill="url(#paint2_radial_470_126)"/>
<path d="M48.0479 55.607C47.4866 55.607 47.1124 55.2328 47.1124 54.6715V53.9232C47.1124 53.3619 47.4866 52.9877 48.0479 52.9877C48.6092 52.9877 48.9834 53.3619 48.9834 53.9232V54.6715C48.9834 55.2328 48.6092 55.607 48.0479 55.607Z" fill="url(#paint3_radial_470_126)"/>
<path d="M48.3285 22.3038C47.7673 22.3038 47.3931 21.9296 47.3931 21.3683V16.5037C47.3931 15.1941 46.364 14.165 45.0543 14.165H23.4446C22.8833 14.165 22.5092 13.7908 22.5092 13.2296C22.5092 12.6683 22.8833 12.2941 23.4446 12.2941H45.0543C47.3931 12.2941 49.264 14.165 49.264 16.5037V21.3683C49.264 21.9296 48.8898 22.3038 48.3285 22.3038Z" fill="url(#paint4_radial_470_126)"/>
<path d="M39.3479 47.2813H14.6511C12.0317 47.2813 9.88013 45.4103 9.88013 43.0716V20.6199C9.88013 20.0586 10.2543 19.6844 10.8156 19.6844C11.3769 19.6844 11.7511 20.0586 11.7511 20.6199V43.0716C11.7511 44.3813 13.0608 45.4103 14.6511 45.4103H39.3479C39.9092 45.4103 40.2834 45.7845 40.2834 46.3458C40.2834 46.9071 39.9092 47.2813 39.3479 47.2813Z" fill="url(#paint5_radial_470_126)"/>
<path d="M48.3285 41.3877C47.7672 41.3877 47.393 41.0135 47.393 40.4522V22.1167C47.393 20.807 46.0833 19.778 44.493 19.778H20.0768C19.5156 19.778 19.1414 19.4038 19.1414 18.8425C19.1414 18.2812 19.5156 17.907 20.0768 17.907H44.493C47.1124 17.907 49.264 19.778 49.264 22.1167V40.4522C49.264 41.0135 48.8898 41.3877 48.3285 41.3877Z" fill="url(#paint6_radial_470_126)"/>
<path d="M48.3285 36.7103H38.693C37.1962 36.7103 35.9801 35.4941 35.9801 33.9973V31.2844C35.9801 29.7877 37.1962 28.5715 38.693 28.5715H48.235C48.7962 28.5715 49.1704 28.9457 49.1704 29.507C49.1704 30.0683 48.7962 30.4425 48.235 30.4425H38.693C38.1317 30.4425 37.8511 30.9102 37.8511 31.2844V33.9973C37.8511 34.5586 38.3188 34.8393 38.693 34.8393H48.3285C48.8898 34.8393 49.264 35.2135 49.264 35.7748C49.264 36.3361 48.8898 36.7103 48.3285 36.7103Z" fill="url(#paint7_radial_470_126)"/>
<path d="M42.1543 33.6232H40.6575C40.0962 33.6232 39.722 33.249 39.722 32.6877C39.722 32.1264 40.0962 31.7522 40.6575 31.7522H42.1543C42.7156 31.7522 43.0898 32.1264 43.0898 32.6877C43.0898 33.249 42.7156 33.6232 42.1543 33.6232Z" fill="url(#paint8_radial_470_126)"/>
<path d="M15.3059 12.2005H11.9382C11.3769 12.2005 11.0027 11.8263 11.0027 11.265V8.64563H10.535C9.97368 8.64563 9.59949 8.27143 9.59949 7.71014C9.59949 7.14885 9.97368 6.77466 10.535 6.77466H15.3059C16.8963 6.77466 18.206 7.99079 18.206 9.48757C18.206 10.9843 16.8963 12.2005 15.3059 12.2005ZM12.8737 10.3295H15.3059C15.7737 10.3295 16.335 9.95531 16.335 9.48757C16.335 9.01982 15.7737 8.64563 15.3059 8.64563H12.8737V10.3295Z" fill="url(#paint9_radial_470_126)"/>
<path d="M15.3995 8.64562C14.8382 8.64562 14.464 8.27143 14.464 7.71014V6.11981C14.464 5.55852 14.8382 5.18433 15.3995 5.18433C15.9608 5.18433 16.335 5.55852 16.335 6.11981V7.71014C16.335 8.27143 15.9608 8.64562 15.3995 8.64562Z" fill="url(#paint10_radial_470_126)"/>
<path d="M12.1253 8.64562C11.564 8.64562 11.1898 8.27143 11.1898 7.71014V6.11981C11.1898 5.55852 11.564 5.18433 12.1253 5.18433C12.6866 5.18433 13.0608 5.55852 13.0608 6.11981V7.71014C13.0608 8.27143 12.6866 8.64562 12.1253 8.64562Z" fill="url(#paint11_radial_470_126)"/>
<path d="M12.1253 17.4392C11.564 17.4392 11.1898 17.065 11.1898 16.5037V14.9134C11.1898 14.3521 11.564 13.9779 12.1253 13.9779C12.6866 13.9779 13.0608 14.3521 13.0608 14.9134V16.5037C13.0608 17.065 12.6866 17.4392 12.1253 17.4392Z" fill="url(#paint12_radial_470_126)"/>
<path d="M15.3995 17.4392C14.8382 17.4392 14.464 17.065 14.464 16.5037V14.9134C14.464 14.3521 14.8382 13.9779 15.3995 13.9779C15.9608 13.9779 16.335 14.3521 16.335 14.9134V16.5037C16.335 17.065 15.9608 17.4392 15.3995 17.4392Z" fill="url(#paint13_radial_470_126)"/>
<path d="M11.9382 15.9425C11.7511 15.9425 11.6576 15.9425 11.564 15.8489H10.535C9.97368 15.8489 9.59949 15.4747 9.59949 14.9134C9.59949 14.3521 9.97368 13.9779 10.535 13.9779H11.0027V11.3586C11.0027 10.7973 11.3769 10.4231 11.9382 10.4231H15.3059C16.8963 10.4231 18.206 11.6392 18.206 13.136C18.206 14.6328 16.8963 15.8489 15.3059 15.8489H12.3124C12.2188 15.9425 12.1253 15.9425 11.9382 15.9425ZM12.8737 13.9779H15.3059C15.7737 13.9779 16.335 13.6037 16.335 13.136C16.335 12.6683 15.7737 12.2941 15.3059 12.2941H12.8737V13.9779Z" fill="url(#paint14_radial_470_126)"/>
<path d="M13.9027 22.1166C8.00918 22.1166 3.14465 17.2521 3.14465 11.3585C3.14465 5.46499 8.00918 0.600464 13.9027 0.600464C19.7963 0.600464 24.6608 5.46499 24.6608 11.3585C24.6608 17.2521 19.7963 22.1166 13.9027 22.1166ZM13.9027 2.47143C9.03821 2.47143 5.01562 6.49402 5.01562 11.3585C5.01562 16.2231 9.03821 20.2457 13.9027 20.2457C18.7673 20.2457 22.7898 16.2231 22.7898 11.3585C22.7898 6.49402 18.7673 2.47143 13.9027 2.47143Z" fill="url(#paint15_radial_470_126)"/>
<path d="M48.1415 60.1909C42.4351 60.1909 37.8512 55.607 37.8512 49.9006C37.8512 44.1941 42.4351 39.6102 48.1415 39.6102C53.848 39.6102 58.4319 44.1941 58.4319 49.9006C58.4319 55.607 53.848 60.1909 48.1415 60.1909ZM48.1415 41.4812C43.4641 41.4812 39.7222 45.2231 39.7222 49.9006C39.7222 54.578 43.4641 58.3199 48.1415 58.3199C52.819 58.3199 56.5609 54.578 56.5609 49.9006C56.5609 45.2231 52.819 41.4812 48.1415 41.4812Z" fill="url(#paint16_radial_470_126)"/>
<path d="M56.3738 15.9424C55.906 15.9424 55.5318 15.6617 55.4383 15.194C54.6899 11.5456 51.977 8.8327 48.4222 8.17786V9.58109C48.4222 9.95528 48.2351 10.3295 47.8609 10.423C47.4867 10.6101 47.1125 10.5166 46.8318 10.2359L42.7157 6.11979C42.3415 5.7456 42.3415 5.18431 42.7157 4.81012L46.8318 0.693982C47.1125 0.413336 47.4867 0.319788 47.8609 0.506885C48.2351 0.693982 48.4222 0.974627 48.4222 1.34882V2.75205C53.5673 3.50044 57.4964 7.99077 57.4964 13.2295C57.4964 13.9779 57.4028 14.6327 57.3093 15.194C57.2157 15.5682 56.8415 15.9424 56.3738 15.9424ZM47.4867 6.11979C50.5738 6.40044 53.1931 7.80367 54.9706 9.95528C53.7544 6.86818 50.8544 4.71657 47.3931 4.43592C46.9254 4.43592 46.5512 3.96818 46.5512 3.50044L44.6802 5.37141L46.5512 7.24238V7.05528C46.5512 6.77463 46.6447 6.58754 46.8318 6.40044C47.0189 6.21334 47.206 6.11979 47.4867 6.11979Z" fill="url(#paint17_radial_470_126)"/>
<path d="M10.4415 59.0684C10.3479 59.0684 10.1608 59.0684 10.0673 58.9748C9.69307 58.7877 9.50597 58.5071 9.50597 58.1329V56.7296C4.3608 55.9813 0.431763 51.5845 0.431763 46.2522C0.431763 45.5038 0.525311 44.9425 0.61886 44.2877C0.712408 43.82 1.0866 43.5393 1.55434 43.5393C2.02209 43.5393 2.39628 43.82 2.48983 44.2877C3.14467 47.8425 5.95112 50.649 9.50597 51.2103V49.9006C9.50597 49.5264 9.69307 49.1522 10.0673 49.0587C10.4415 48.8716 10.8156 48.9651 11.0963 49.2458L15.2124 53.3619C15.3995 53.549 15.4931 53.7361 15.4931 54.0167C15.4931 54.2974 15.3995 54.4845 15.2124 54.6716L11.0963 58.7877C10.9092 58.9748 10.7221 59.0684 10.4415 59.0684ZM2.95757 49.62C4.1737 52.6135 7.07371 54.7651 10.4415 54.9522C10.9092 54.9522 11.2834 55.42 11.2834 55.8877L13.1544 54.0167L11.2834 52.1458V52.3329C11.2834 52.6135 11.1898 52.8006 11.0027 52.9877C10.8156 53.1748 10.535 53.2684 10.3479 53.2684C7.4479 53.0813 4.73499 51.678 2.95757 49.62Z" fill="url(#paint18_radial_470_126)"/>
<defs fill="#ffffff">
<radialGradient id="paint0_radial_470_126" cx="0" cy="0" r="1" gradientUnits="userSpaceOnUse" gradientTransform="translate(32.2265 39.5752) rotate(29.7306) scale(18.0261 19.4768)" fill="#ffffff">
<stop offset="0.35" stop-color="#ffffff" fill="#ffffff"/>
<stop offset="0.68" stop-color="#ffffff" fill="#ffffff"/>
<stop offset="0.91027" stop-color="#ffffff" fill="#ffffff"/>
</radialGradient>
<radialGradient id="paint1_radial_470_126" cx="0" cy="0" r="1" gradientUnits="userSpaceOnUse" gradientTransform="translate(32.133 43.5977) rotate(29.7306) scale(18.0261 19.4768)" fill="#ffffff">
<stop offset="0.35" stop-color="#ffffff" fill="#ffffff"/>
<stop offset="0.68" stop-color="#ffffff" fill="#ffffff"/>
<stop offset="0.91027" stop-color="#ffffff" fill="#ffffff"/>
</radialGradient>
<radialGradient id="paint2_radial_470_126" cx="0" cy="0" r="1" gradientUnits="userSpaceOnUse" gradientTransform="translate(43.0743 41.6299) rotate(39.6279) scale(6.45191 7.952)" fill="#ffffff">
<stop offset="0.35" stop-color="#ffffff" fill="#ffffff"/>
<stop offset="0.68" stop-color="#ffffff" fill="#ffffff"/>
<stop offset="0.91027" stop-color="#ffffff" fill="#ffffff"/>
</radialGradient>
<radialGradient id="paint3_radial_470_126" cx="0" cy="0" r="1" gradientUnits="userSpaceOnUse" gradientTransform="translate(42.9807 50.6022) rotate(38.6437) scale(6.36235 7.78587)" fill="#ffffff">
<stop offset="0.35" stop-color="#ffffff" fill="#ffffff"/>
<stop offset="0.68" stop-color="#ffffff" fill="#ffffff"/>
<stop offset="0.91027" stop-color="#ffffff" fill="#ffffff"/>
</radialGradient>
<radialGradient id="paint4_radial_470_126" cx="0" cy="0" r="1" gradientUnits="userSpaceOnUse" gradientTransform="translate(-36.5745 3.1781) rotate(12.0606) scale(72.6646 37.2532)" fill="#ffffff">
<stop offset="0.35" stop-color="#ffffff" fill="#ffffff"/>
<stop offset="0.68" stop-color="#ffffff" fill="#ffffff"/>
<stop offset="0.91027" stop-color="#ffffff" fill="#ffffff"/>
</radialGradient>
<radialGradient id="paint5_radial_470_126" cx="0" cy="0" r="1" gradientUnits="userSpaceOnUse" gradientTransform="translate(-57.2604 -5.44836) rotate(27.4014) scale(90.9556 93.2422)" fill="#ffffff">
<stop offset="0.35" stop-color="#ffffff" fill="#ffffff"/>
<stop offset="0.68" stop-color="#ffffff" fill="#ffffff"/>
<stop offset="0.91027" stop-color="#ffffff" fill="#ffffff"/>
</radialGradient>
<radialGradient id="paint6_radial_470_126" cx="0" cy="0" r="1" gradientUnits="userSpaceOnUse" gradientTransform="translate(-47.3794 -3.47721) rotate(23.9973) scale(87.575 81.6368)" fill="#ffffff">
<stop offset="0.35" stop-color="#ffffff" fill="#ffffff"/>
<stop offset="0.68" stop-color="#ffffff" fill="#ffffff"/>
<stop offset="0.91027" stop-color="#ffffff" fill="#ffffff"/>
</radialGradient>
<radialGradient id="paint7_radial_470_126" cx="0" cy="0" r="1" gradientUnits="userSpaceOnUse" gradientTransform="translate(6.64485 21.1595) rotate(19.2849) scale(37.3793 29.2357)" fill="#ffffff">
<stop offset="0.35" stop-color="#ffffff" fill="#ffffff"/>
<stop offset="0.68" stop-color="#ffffff" fill="#ffffff"/>
<stop offset="0.91027" stop-color="#ffffff" fill="#ffffff"/>
</radialGradient>
<radialGradient id="paint8_radial_470_126" cx="0" cy="0" r="1" gradientUnits="userSpaceOnUse" gradientTransform="translate(32.2849 30.0483) rotate(17.603) scale(9.38411 6.78697)" fill="#ffffff">
<stop offset="0.35" stop-color="#ffffff" fill="#ffffff"/>
<stop offset="0.68" stop-color="#ffffff" fill="#ffffff"/>
<stop offset="0.91027" stop-color="#ffffff" fill="#ffffff"/>
</radialGradient>
<radialGradient id="paint9_radial_470_126" cx="0" cy="0" r="1" gradientUnits="userSpaceOnUse" gradientTransform="translate(-9.40645 1.83329) rotate(19.8009) scale(24.2951 19.4282)" fill="#ffffff">
<stop offset="0.35" stop-color="#ffffff" fill="#ffffff"/>
<stop offset="0.68" stop-color="#ffffff" fill="#ffffff"/>
<stop offset="0.91027" stop-color="#ffffff" fill="#ffffff"/>
</radialGradient>
<radialGradient id="paint10_radial_470_126" cx="0" cy="0" r="1" gradientUnits="userSpaceOnUse" gradientTransform="translate(10.3323 2.03208) rotate(46.5746) scale(7.229 9.05504)" fill="#ffffff">
<stop offset="0.35" stop-color="#ffffff" fill="#ffffff"/>
<stop offset="0.68" stop-color="#ffffff" fill="#ffffff"/>
<stop offset="0.91027" stop-color="#ffffff" fill="#ffffff"/>
</radialGradient>
<radialGradient id="paint11_radial_470_126" cx="0" cy="0" r="1" gradientUnits="userSpaceOnUse" gradientTransform="translate(7.05809 2.03208) rotate(46.5746) scale(7.229 9.05504)" fill="#ffffff">
<stop offset="0.35" stop-color="#ffffff" fill="#ffffff"/>
<stop offset="0.68" stop-color="#ffffff" fill="#ffffff"/>
<stop offset="0.91027" stop-color="#ffffff" fill="#ffffff"/>
</radialGradient>
<radialGradient id="paint12_radial_470_126" cx="0" cy="0" r="1" gradientUnits="userSpaceOnUse" gradientTransform="translate(7.05809 10.8257) rotate(46.5746) scale(7.22899 9.05504)" fill="#ffffff">
<stop offset="0.35" stop-color="#ffffff" fill="#ffffff"/>
<stop offset="0.68" stop-color="#ffffff" fill="#ffffff"/>
<stop offset="0.91027" stop-color="#ffffff" fill="#ffffff"/>
</radialGradient>
<radialGradient id="paint13_radial_470_126" cx="0" cy="0" r="1" gradientUnits="userSpaceOnUse" gradientTransform="translate(10.3323 10.8257) rotate(46.5746) scale(7.22899 9.05504)" fill="#ffffff">
<stop offset="0.35" stop-color="#ffffff" fill="#ffffff"/>
<stop offset="0.68" stop-color="#ffffff" fill="#ffffff"/>
<stop offset="0.91027" stop-color="#ffffff" fill="#ffffff"/>
</radialGradient>
<radialGradient id="paint14_radial_470_126" cx="0" cy="0" r="1" gradientUnits="userSpaceOnUse" gradientTransform="translate(-9.40645 5.39653) rotate(20.1152) scale(24.3436 19.7239)" fill="#ffffff">
<stop offset="0.35" stop-color="#ffffff" fill="#ffffff"/>
<stop offset="0.68" stop-color="#ffffff" fill="#ffffff"/>
<stop offset="0.91027" stop-color="#ffffff" fill="#ffffff"/>
</radialGradient>
<radialGradient id="paint15_radial_470_126" cx="0" cy="0" r="1" gradientUnits="userSpaceOnUse" gradientTransform="translate(-44.3702 -18.9946) rotate(29.7306) scale(65.8094 71.1057)" fill="#ffffff">
<stop offset="0.35" stop-color="#ffffff" fill="#ffffff"/>
<stop offset="0.68" stop-color="#ffffff" fill="#ffffff"/>
<stop offset="0.91027" stop-color="#ffffff" fill="#ffffff"/>
</radialGradient>
<radialGradient id="paint16_radial_470_126" cx="0" cy="0" r="1" gradientUnits="userSpaceOnUse" gradientTransform="translate(-7.59779 20.8671) rotate(29.7306) scale(62.9482 68.0141)" fill="#ffffff">
<stop offset="0.35" stop-color="#ffffff" fill="#ffffff"/>
<stop offset="0.68" stop-color="#ffffff" fill="#ffffff"/>
<stop offset="0.91027" stop-color="#ffffff" fill="#ffffff"/>
</radialGradient>
<radialGradient id="paint17_radial_470_126" cx="0" cy="0" r="1" gradientUnits="userSpaceOnUse" gradientTransform="translate(9.17467 -13.7364) rotate(30.4972) scale(46.4255 50.9355)" fill="#ffffff">
<stop offset="0.35" stop-color="#ffffff" fill="#ffffff"/>
<stop offset="0.68" stop-color="#ffffff" fill="#ffffff"/>
<stop offset="0.91027" stop-color="#ffffff" fill="#ffffff"/>
</radialGradient>
<radialGradient id="paint18_radial_470_126" cx="0" cy="0" r="1" gradientUnits="userSpaceOnUse" gradientTransform="translate(-32.8286 29.3968) rotate(30.491) scale(46.4225 50.9262)" fill="#ffffff">
<stop offset="0.35" stop-color="#ffffff" fill="#ffffff"/>
<stop offset="0.68" stop-color="#ffffff" fill="#ffffff"/>
<stop offset="0.91027" stop-color="#ffffff" fill="#ffffff"/>
</radialGradient>
</defs>
</svg>