<svg viewBox="0 0 120 129" fill="none" xmlns="http://www.w3.org/2000/svg">
<path d="M72.302 99.0609V46.539C72.2608 40.2128 69.7266 34.1594 65.2516 29.6984C60.7766 25.2375 54.7239 22.7308 48.4129 22.7249V106.662C48.3781 109.647 48.9506 112.609 50.0955 115.366C51.2404 118.123 52.9337 120.617 55.072 122.696C57.2103 124.775 59.7488 126.396 62.5326 127.459C65.3163 128.522 68.287 129.005 71.2633 128.879C77.0654 129.275 82.8205 127.603 87.5125 124.159C73.7215 122.696 72.3077 114.366 72.3077 99.0609H72.302Z" fill="white"/>
<path d="M21.7829 0.75C15.9925 0.788188 10.4522 3.12083 6.37124 7.23885C2.29024 11.3569 -0.000125311 16.9259 5.14218e-09 22.7305H97.4779C103.268 22.6923 108.809 20.3597 112.89 16.2417C116.971 12.1237 119.261 6.55463 119.261 0.75H21.7829Z" fill="white"/>
</svg>
