<?xml version="1.0" encoding="UTF-8"?>
<svg id="Layer_1" data-name="Layer 1" xmlns="http://www.w3.org/2000/svg" version="1.1" viewBox="0 0 252 45.8">
  <defs>
    <style>
      .cls-1 {
        fill: #2d2d2d;
        stroke-width: 0px;
      }
    </style>
  </defs>
  <path class="cls-1" d="M22.9,24.4"/>
  <g>
    <path class="cls-1" d="M73.5,41.2c-1.5,0-2.6-.3-3.1-.8-.6-.6-.8-1.7-.8-3.3v-17.1h7.8v-4h-33v4h5.1v17.1c0,2.9.7,5,2,6.2,1.3,1.3,3.4,1.9,6,1.9h4.4v-4.1h-3.8c-1.5,0-2.6-.3-3.1-.8-.6-.6-.8-1.7-.8-3.3v-17.1h10.8v17.1c0,2.9.7,5,2,6.2,1.3,1.3,3.4,1.9,6,1.9h4.4v-4.1h-3.8Z"/>
    <path class="cls-1" d="M98.7,17.4c-2.1-1.2-4.6-1.8-7.3-1.8s-5.3.6-7.5,1.8c-2.2,1.2-3.9,3-5.1,5.3-1.2,2.3-1.8,5-1.8,8s.6,5.7,1.8,7.9c1.2,2.3,3,4,5.1,5.3,2.2,1.2,4.7,1.9,7.4,1.9s6.5-.9,8.8-2.7c2.3-1.8,3.9-4.2,4.6-7v-.6c.1,0-.5,0-.5,0h-4.2v.4c-.6,1.8-1.6,3.3-3.1,4.4-1.5,1.1-3.4,1.6-5.7,1.6s-3.3-.4-4.8-1.1c-1.4-.7-2.6-1.8-3.5-3.3-.8-1.3-1.3-2.9-1.5-4.8h23.5v-.4c.1-.7.2-1.7.2-2.9,0-2.5-.6-4.8-1.7-6.9-1.1-2.1-2.8-3.7-4.9-4.9ZM81.6,28.6c.3-2.8,1.3-5,3-6.5,1.8-1.6,4-2.5,6.6-2.5s3.3.4,4.8,1.1c1.4.7,2.6,1.8,3.4,3.2.8,1.3,1.2,2.9,1.2,4.7h-19Z"/>
    <path class="cls-1" d="M121.6,15.4c-2.2,0-4.2.5-6,1.4-1.3.7-2.3,1.6-3.2,2.7v-3.7h-4.6v29.3h4.6v-16c0-3.2.8-5.7,2.3-7.3,1.5-1.6,3.6-2.4,6.2-2.4s4.5.8,6,2.3c1.4,1.5,2.2,3.8,2.2,6.7v16.7h4.5v-17.1c0-4.1-1.1-7.3-3.4-9.5-2.2-2.2-5.1-3.3-8.6-3.3Z"/>
    <path class="cls-1" d="M153.5,30.5c-1.2-.5-2.9-1.1-4.9-1.6-1.7-.5-3-.9-4-1.3-.9-.4-1.7-.9-2.4-1.5-.6-.6-.9-1.4-.9-2.4s.5-2.1,1.5-2.8c1.1-.8,2.5-1.2,4.2-1.2s3.5.5,4.6,1.4c1.1.9,1.7,2.2,1.8,3.7v.4h4.6v-.5c-.2-2.8-1.2-5.1-3.2-6.7-2-1.6-4.5-2.4-7.7-2.4s-3.8.4-5.4,1.1c-1.6.7-2.8,1.7-3.7,3-.9,1.3-1.3,2.6-1.3,4.1s.5,3.5,1.5,4.7c1,1.1,2.2,2,3.5,2.6,1.3.6,3.1,1.1,5.2,1.7,1.6.4,2.9.8,3.8,1.2.9.3,1.6.8,2.2,1.4.5.5.8,1.2.8,2.1,0,1.3-.5,2.3-1.5,3.1-1,.9-2.5,1.3-4.3,1.3s-3.9-.5-5.1-1.4c-1.2-.9-1.9-2.1-2.1-3.5v-.4h-4.7v.5c.3,2.7,1.5,4.9,3.7,6.5,2.1,1.6,4.9,2.4,8.3,2.4s3.8-.4,5.3-1.1c1.6-.7,2.8-1.7,3.7-3,.9-1.3,1.3-2.7,1.3-4.4,0-1.8-.5-3.2-1.5-4.3-.9-1.1-2-1.9-3.3-2.4Z"/>
    <path class="cls-1" d="M181.6,17.4c-2.2-1.2-4.7-1.9-7.5-1.9s-5.2.6-7.5,1.9c-2.2,1.2-4,3-5.3,5.3-1.3,2.3-1.9,4.9-1.9,8s.6,5.7,1.9,7.9c1.3,2.3,3,4,5.2,5.3,2.2,1.2,4.7,1.9,7.4,1.9s5.3-.6,7.5-1.9c2.3-1.2,4-3,5.3-5.3,1.3-2.3,1.9-4.9,1.9-7.9s-.6-5.7-1.9-7.9c-1.3-2.3-3-4-5.3-5.3ZM174,41.6c-1.8,0-3.4-.4-4.9-1.2-1.5-.8-2.7-2-3.6-3.7-.9-1.6-1.4-3.7-1.4-6.1s.5-4.4,1.4-6.1c.9-1.6,2.1-2.9,3.6-3.7,1.5-.8,3.2-1.2,5-1.2s3.5.4,5,1.2c1.5.8,2.7,2,3.7,3.7.9,1.6,1.4,3.7,1.4,6.1s-.5,4.4-1.4,6.1c-.9,1.6-2.2,2.9-3.7,3.7-1.5.8-3.2,1.2-5,1.2Z"/>
    <path class="cls-1" d="M205.3,20.2h.5v-4.7h-.5c-2.5,0-4.6.5-6.3,1.5-1.2.7-2.2,1.6-3,2.7v-3.7h-4.6v29.3h4.6v-16.3c0-3.2.8-5.4,2.2-6.8,1.5-1.3,3.5-2,6-2h1Z"/>
    <path class="cls-1" d="M205.2,39.2c-.9,0-1.6.3-2.2.9-.6.6-.9,1.3-.9,2.2s.3,1.6.9,2.3c.6.6,1.3.9,2.2.9s1.6-.3,2.2-.9c.6-.6.9-1.4.9-2.3s-.3-1.6-.9-2.2c-.6-.6-1.3-.9-2.2-.9Z"/>
    <path class="cls-1" d="M231.2,17c-1.8-1-3.9-1.5-6.2-1.5-3.4,0-6.2,1-8.4,3-2.2,2-3.5,4.5-3.9,7.6v.5c0,0,.5,0,.5,0h4v-.4c.4-2.1,1.2-3.7,2.6-4.8,1.4-1.2,3.1-1.7,5.2-1.7s4.2.7,5.4,2.2c1.2,1.4,1.9,3.4,2,5.9h-8.9c-3.7,0-6.5.9-8.5,2.6-2,1.7-3,4-3,6.8s.4,3.2,1.3,4.5c.8,1.3,2,2.4,3.5,3.1,1.5.7,3.2,1.1,5.1,1.1s4.9-.6,6.9-1.9c1.5-.9,2.7-2,3.5-3.3v4.7h4.6v-17c0-2.6-.5-4.9-1.5-6.8-1-1.9-2.4-3.4-4.2-4.4ZM222.5,41.7c-1.9,0-3.3-.5-4.4-1.4-1.1-.9-1.6-2.1-1.6-3.6s.6-2.8,1.7-3.7c1.2-.9,2.9-1.4,5.2-1.4h8.9v.5c0,1.9-.5,3.7-1.4,5.1-.9,1.4-2.1,2.6-3.6,3.3-1.5.8-3.1,1.2-4.8,1.2Z"/>
    <path class="cls-1" d="M243.5,15.9h-.5v29.3h1.1c1.9,0,3.5-1.6,3.5-3.5V15.9h-4.1Z"/>
    <path class="cls-1" d="M39.7,13.5s0,0,0,0,0,0,0,0c.1-3.6,3.1-6.6,6.7-6.6,0,0,0,0,0,0-3.7,0-6.7-3.1-6.7-6.9,0,3.7-3,6.8-6.7,6.9,0,0,0,0,0,0,3.7,0,6.6,3,6.7,6.6Z"/>
    <path class="cls-1" d="M37.9,15.9h-.5v26c0,1.8,1.5,3.3,3.3,3.3h1.3V15.9h-4.1Z"/>
    <path class="cls-1" d="M245.3,0c0,3.7-3,6.8-6.7,6.9,0,0,0,0,0,0,3.7,0,6.6,3,6.7,6.6,0,0,0,0,0,0s0,0,0,0c.1-3.6,3.1-6.6,6.7-6.6,0,0,0,0,0,0-3.7,0-6.7-3.1-6.7-6.9Z"/>
  </g>
  <path class="cls-1" d="M33,31.3c-.6-1.3-1.5-2.5-2.6-3.2-1-.7-1.6-1.1-1.6-1.7,0-.3.3-.6.5-.8.2-.1.5-.4.8-.7,0,0,.7-.7,1.3-1.6,1.7-2.6,1.8-5.4,1.8-5.4,0-1.7-.4-3.3-1.3-4.7-.9-1.4-2.2-2.5-3.9-3.3-1.7-.8-3.9-1.2-6.3-1.2h-13.1v13.8h4.8v-9.9h7.9c2.3,0,4.1.5,5.3,1.6,1.2,1,1.8,2.5,1.8,4.3s0,2.1-.9,3.3c-.4.5-.5.4-1.2,1.1-.6.6-1.6,1.7-1.7,3.3,0,.3,0,1.2.5,2,.6,1,1.6,1.5,2.1,1.9,1.4,1.2,2.1,2.8,2.1,4.8s-.7,3.5-2,4.7c-1.3,1.1-3.2,1.7-5.5,1.7h-7c-.8,0-1.4-.6-1.4-1.4v-5.4c0-4.4-2.9-6-3.2-6h8.2c3.4,0,3.3-3.9,3.3-3.9H3.3C0,24.5,0,28.5,0,28.5h8.5v12c0,2.7,2.2,4.8,4.8,4.8h8.8c2.4,0,4.6-.4,6.4-1.3,1.8-.9,3.2-2,4.1-3.5.9-1.5,1.4-3.2,1.4-5s-.3-2.8-1-4.1Z"/>
</svg>