<?xml version="1.0" encoding="UTF-8"?>
<svg id="Layer_1" data-name="Layer 1" xmlns="http://www.w3.org/2000/svg" viewBox="0 0 252.03 41.85">
  <defs>
    <style>
      .cls-1 {
        fill: #121212;
      }
    </style>
  </defs>
  <path class="cls-1" d="M73.22,37.27c-1.53,0-2.58-.28-3.15-.85-.56-.56-.85-1.66-.85-3.25v-17.14h7.79v-4.01h-32.97v4.01h5.11v17.14c0,2.86.68,4.96,2.01,6.24,1.33,1.28,3.37,1.92,6.04,1.92h4.37v-4.06h-3.8c-1.53,0-2.58-.28-3.15-.85-.56-.56-.85-1.66-.85-3.25v-17.14h10.8v17.14c0,2.86.68,4.96,2.01,6.24,1.33,1.28,3.37,1.92,6.04,1.92h4.37v-4.06h-3.8Z"/>
  <path class="cls-1" d="M98.41,13.43c-2.09-1.22-4.56-1.83-7.33-1.83s-5.28.61-7.45,1.83c-2.18,1.22-3.91,3-5.13,5.28-1.21,2.28-1.82,4.96-1.82,7.97s.62,5.68,1.85,7.94c1.24,2.27,2.97,4.05,5.15,5.28,2.17,1.23,4.66,1.86,7.4,1.86,3.52,0,6.49-.92,8.84-2.73,2.34-1.8,3.9-4.17,4.61-7.04l.15-.59h-4.81l-.09.35c-.49,1.82-1.5,3.29-3.01,4.36-1.52,1.08-3.43,1.63-5.68,1.63-1.72,0-3.33-.38-4.77-1.12-1.44-.74-2.62-1.84-3.5-3.28-.82-1.33-1.31-2.94-1.46-4.79h23.46l.04-.42c.07-.68.11-1.66.11-2.91,0-2.49-.57-4.8-1.69-6.85-1.13-2.06-2.76-3.72-4.85-4.94ZM81.35,24.64c.27-2.77,1.27-4.96,2.97-6.5,1.81-1.64,4.03-2.48,6.6-2.48,1.72,0,3.32.37,4.78,1.09,1.44.72,2.59,1.8,3.42,3.2.77,1.29,1.17,2.87,1.21,4.69h-18.97Z"/>
  <path class="cls-1" d="M121.38,11.5c-2.22,0-4.23.48-5.99,1.43-1.28.69-2.35,1.61-3.2,2.75v-3.66h-4.58v29.32h4.58v-15.96c0-3.22.78-5.68,2.31-7.32,1.53-1.62,3.62-2.45,6.21-2.45s4.53.77,5.97,2.29c1.45,1.53,2.18,3.8,2.18,6.74v16.69h4.53v-17.1c0-4.1-1.13-7.28-3.37-9.46-2.23-2.17-5.14-3.28-8.64-3.28Z"/>
  <path class="cls-1" d="M153.27,26.61c-1.23-.53-2.9-1.08-4.95-1.63-1.67-.48-3.02-.92-4-1.31-.94-.37-1.73-.89-2.36-1.55-.59-.62-.88-1.41-.88-2.4,0-1.14.5-2.07,1.53-2.85,1.05-.8,2.46-1.2,4.18-1.2,1.95,0,3.5.48,4.6,1.42,1.1.94,1.69,2.15,1.78,3.7l.03.44h4.58l-.03-.5c-.15-2.83-1.22-5.09-3.19-6.71-1.95-1.61-4.54-2.42-7.68-2.42-2,0-3.81.36-5.39,1.08-1.6.73-2.85,1.73-3.72,2.96-.89,1.26-1.33,2.64-1.33,4.12,0,1.94.5,3.52,1.49,4.7.96,1.15,2.15,2.02,3.53,2.6,1.33.56,3.08,1.13,5.21,1.69,1.6.41,2.88.79,3.82,1.15.89.34,1.63.8,2.2,1.37.54.54.8,1.21.8,2.05,0,1.25-.5,2.27-1.52,3.12-1.03.86-2.49,1.29-4.35,1.29-2.14,0-3.86-.47-5.1-1.39-1.23-.91-1.91-2.07-2.07-3.54l-.05-.42h-4.68l.05.52c.25,2.73,1.48,4.91,3.65,6.49,2.13,1.56,4.91,2.35,8.26,2.35,2,0,3.8-.36,5.35-1.08,1.56-.73,2.8-1.73,3.67-2.99.88-1.27,1.33-2.73,1.33-4.35-.04-1.78-.53-3.23-1.47-4.31-.91-1.06-2.02-1.87-3.29-2.41Z"/>
  <path class="cls-1" d="M181.36,13.45c-2.22-1.23-4.74-1.85-7.48-1.85s-5.25.62-7.45,1.85c-2.22,1.24-3.99,3.01-5.27,5.27-1.28,2.26-1.93,4.93-1.93,7.95s.64,5.69,1.91,7.95c1.26,2.27,3.02,4.04,5.22,5.27,2.19,1.23,4.69,1.85,7.43,1.85s5.26-.62,7.5-1.85c2.25-1.23,4.05-3.02,5.33-5.3,1.28-2.28,1.93-4.94,1.93-7.92s-.64-5.69-1.9-7.95c-1.27-2.27-3.04-4.04-5.28-5.28ZM173.77,37.64c-1.78,0-3.45-.41-4.95-1.22-1.49-.8-2.7-2.04-3.6-3.66-.91-1.64-1.37-3.68-1.37-6.08s.46-4.45,1.37-6.08c.9-1.62,2.12-2.85,3.63-3.66,1.51-.81,3.19-1.22,4.97-1.22s3.46.41,4.97,1.22c1.51.81,2.74,2.04,3.66,3.66.92,1.64,1.39,3.69,1.39,6.08s-.48,4.44-1.42,6.08c-.94,1.63-2.18,2.86-3.68,3.67-1.52.81-3.19,1.22-4.97,1.22Z"/>
  <path class="cls-1" d="M205.01,16.23h.47v-4.74h-.47c-2.46,0-4.58.51-6.29,1.52-1.19.7-2.18,1.61-2.95,2.72v-3.72h-4.58v29.32h4.58v-16.32c0-3.17.75-5.45,2.23-6.77,1.5-1.33,3.52-2.01,6.03-2.01h.99Z"/>
  <path class="cls-1" d="M204.98,35.3c-.9,0-1.67.3-2.27.89-.6.59-.91,1.34-.91,2.23s.3,1.64.9,2.25c.6.61,1.37.93,2.28.93s1.62-.31,2.22-.93c.6-.61.9-1.37.9-2.25s-.3-1.63-.91-2.23c-.61-.59-1.35-.89-2.22-.89Z"/>
  <path class="cls-1" d="M230.93,13.09c-1.8-.99-3.88-1.49-6.2-1.49-3.39,0-6.22.99-8.4,2.95-2.17,1.96-3.49,4.51-3.92,7.59l-.08.54h4.53l.06-.4c.33-2.06,1.18-3.68,2.54-4.83,1.36-1.15,3.09-1.73,5.15-1.73,2.34,0,4.16.73,5.41,2.18,1.19,1.38,1.86,3.35,2,5.87h-8.92c-3.67,0-6.52.86-8.47,2.56-1.97,1.72-2.97,3.99-2.97,6.75,0,1.68.43,3.2,1.27,4.54.84,1.33,2.03,2.39,3.54,3.13,1.49.74,3.21,1.11,5.12,1.11,2.54,0,4.86-.64,6.9-1.92,1.47-.91,2.65-2.02,3.54-3.31v4.71h4.63v-17.05c0-2.63-.51-4.93-1.51-6.82-1.01-1.91-2.44-3.38-4.24-4.38ZM222.28,37.74c-1.86,0-3.35-.46-4.42-1.37-1.08-.9-1.6-2.06-1.6-3.56s.56-2.78,1.7-3.71c1.16-.95,2.89-1.43,5.16-1.43h8.93v.46c0,1.94-.46,3.66-1.36,5.1-.9,1.45-2.11,2.57-3.59,3.34-1.49.77-3.11,1.16-4.82,1.16Z"/>
  <path class="cls-1" d="M242.75,14.31v27.03h1.11c1.92,0,3.47-1.55,3.47-3.47V14.31c0-1.27-1.03-2.29-2.29-2.29h0c-1.27,0-2.29,1.03-2.29,2.29Z"/>
  <path class="cls-1" d="M37.18,14.31v23.7c0,1.84,1.49,3.33,3.33,3.33h1.26V14.31c0-1.27-1.03-2.29-2.29-2.29h0c-1.27,0-2.29,1.03-2.29,2.29Z"/>
  <path class="cls-1" d="M30.8,24.79c-.58-.83-.58-1.93,0-2.76,1.34-1.89,2.27-4.03,2.27-6.34v-.23c0-5.51-4.46-9.97-9.97-9.97h-14.53v13.89h4.49v-9.4h10.04c3.02,0,5.48,2.45,5.48,5.48v.23c0,1.25-.44,2.46-1.22,3.45-2,2.52-2,6.03,0,8.55.78.98,1.22,2.19,1.22,3.45v.23c0,3.02-2.45,5.48-5.48,5.48h-9.43c-.34,0-.61-.27-.61-.61v-5.49c0-2.21-1.21-4.68-2.79-5.44h7.18c2.18,0,3.94-1.77,3.94-3.94H3.94c-2.18,0-3.94,1.77-3.94,3.94h8.56v10.93c0,2.82,2.29,5.11,5.11,5.11h9.43c5.51,0,9.97-4.46,9.97-9.97v-.23c0-2.32-.94-4.45-2.27-6.35Z"/>
  <path class="cls-1" d="M245.62,9.99c.52-.11.98-.35,1.37-.67.04-.04.09-.09.13-.13,1.28-1.28,3.06-2.08,5.02-2.08-1.89,0-3.63-.76-4.89-1.95-.04-.04-.09-.09-.13-.13-1.28-1.28-2.08-3.06-2.08-5.02,0,1.89-.76,3.63-1.95,4.89l-.13.13c-1.28,1.28-3.06,2.08-5.02,2.08,1.89,0,3.63.76,4.89,1.95l.13.13c.67.67,1.67,1.02,2.67.8Z"/>
  <path class="cls-1" d="M40.06,9.99c.52-.11.98-.35,1.37-.67.04-.04.09-.09.13-.13,1.28-1.28,3.06-2.08,5.02-2.08-1.89,0-3.63-.76-4.89-1.95-.04-.04-.09-.09-.13-.13-1.28-1.28-2.08-3.06-2.08-5.02,0,1.89-.76,3.63-1.95,4.89l-.13.13c-1.28,1.28-3.06,2.08-5.02,2.08,1.89,0,3.63.76,4.89,1.95l.13.13c.67.67,1.67,1.02,2.67.8Z"/>
</svg>