<svg width="48" height="48" viewBox="0 0 48 48" fill="none" xmlns="http://www.w3.org/2000/svg">
<rect width="48" height="48" rx="4" fill="#F4F4F4"/>
<path d="M14.9981 30.6139C21.9718 33.3354 27.9065 33.8656 34.6317 29.6294C34.5824 29.7033 33.2521 31.6742 29.7537 32.6842C30.4928 33.6943 31.5029 34.8522 31.5029 34.8522C33.7448 34.8522 35.9374 34.2116 37.8343 32.9798C39.3125 31.9944 40.1501 30.2945 39.9777 28.5208C39.682 25.4905 38.9676 22.5342 37.859 19.7011C36.4547 16.0057 33.0796 13.4435 29.1625 13.0739C28.8176 13.0493 28.5712 13.0493 28.4234 13.0493L28.0293 13.4434C32.5377 14.7245 34.7796 16.72 34.8288 16.794C27.906 13.2956 19.7269 13.2464 12.7549 16.6462C12.7549 16.6462 14.9721 14.4536 19.8747 13.2956L19.579 13C19.0616 13 18.5689 13.0493 18.0516 13.1232C14.4301 13.7391 11.3999 16.2273 10.0942 19.6517C8.96088 22.608 8.22182 25.7122 7.95084 28.8656C7.80303 30.5408 8.59139 32.1915 9.971 33.1523C11.794 34.3595 13.962 35 16.1546 35C16.1546 35 17.0415 33.8421 17.9284 32.8074C14.6026 31.8219 13.2476 29.8511 13.2229 29.7771L13.8489 30.0967C14.223 30.2879 14.6066 30.4611 14.9981 30.6139ZM18.8646 28.4715C17.2633 28.4222 16.0068 27.0672 16.0561 25.4412C16.1054 23.9138 17.3372 22.682 18.8646 22.6327C20.466 22.682 21.7224 24.0369 21.6731 25.6629C21.5992 27.1904 20.392 28.4222 18.8646 28.4715ZM28.9161 28.4715C27.3147 28.4222 26.0583 27.0672 26.1076 25.4412C26.1569 23.9138 27.3887 22.682 28.9161 22.6327C30.5174 22.682 31.7739 24.0369 31.7246 25.6629C31.6754 27.1904 30.4435 28.4222 28.9161 28.4715Z" fill="#070707"/>
</svg>
