<svg width="16" height="16" viewBox="0 0 16 16" fill="none" xmlns="http://www.w3.org/2000/svg">
<g id="g3053">
<g id="Clip path group">
<mask id="mask0_611_208994" style="mask-type:luminance" maskUnits="userSpaceOnUse" x="0" y="0" width="16" height="16">
<g id="clipPath3059">
<path id="path3057" d="M0 0H16V16H0V0Z" fill="white"/>
</g>
</mask>
<g mask="url(#mask0_611_208994)">
<g id="g3055">
<g id="g3061">
<path id="path3063 (Stroke)" fill-rule="evenodd" clip-rule="evenodd" d="M1.71875 15.0625C1.28726 15.0625 0.9375 14.7127 0.9375 14.2813V4.28125C0.9375 3.84976 1.28726 3.5 1.71875 3.5H8.59375C8.85263 3.5 9.0625 3.29013 9.0625 3.03125C9.0625 2.77237 8.85263 2.5625 8.59375 2.5625H1.71875C0.769492 2.5625 0 3.33199 0 4.28125V14.2813C0 15.2305 0.769492 16 1.71875 16H11.7187C12.668 16 13.4375 15.2305 13.4375 14.2813V7.40625C13.4375 7.14737 13.2276 6.9375 12.9688 6.9375C12.7099 6.9375 12.5 7.14737 12.5 7.40625V14.2813C12.5 14.7127 12.1502 15.0625 11.7187 15.0625H1.71875Z" fill="#000000"/>
</g>
<g id="g3065">
<path id="path3067 (Stroke)" fill-rule="evenodd" clip-rule="evenodd" d="M5.74668 10.2631C5.8575 10.3739 6.01638 10.422 6.17007 10.3913L8.37979 9.94931C8.47053 9.93116 8.55387 9.88656 8.61931 9.82112L15.6904 2.75009L15.6904 2.75007C16.1175 2.32293 16.1175 1.63043 15.6904 1.2033L14.8065 0.319395C14.3793 -0.107725 13.6868 -0.107725 13.2597 0.319395L6.18861 7.39046C6.12318 7.4559 6.07857 7.53924 6.06042 7.62999L5.61849 9.8397C5.58775 9.99339 5.63585 10.1523 5.74668 10.2631ZM6.67567 9.33408L6.95188 7.95301L13.9226 0.982307C13.9836 0.921304 14.0825 0.921304 14.1436 0.982307L15.0275 1.86621C15.0884 1.9272 15.0885 2.02612 15.0275 2.08718C15.0275 2.08718 15.0274 2.08719 15.0274 2.0872L8.05675 9.05785L6.67567 9.33408Z" fill="#000000"/>
</g>
<g id="g3069">
<path id="path3071 (Stroke)" fill-rule="evenodd" clip-rule="evenodd" d="M14.7867 3.63419C14.9698 3.45113 14.9698 3.15434 14.7867 2.97128L13.019 1.20353C12.8359 1.02047 12.5391 1.02047 12.356 1.20353C12.173 1.38659 12.173 1.68338 12.356 1.86644L14.1238 3.63419C14.3069 3.81725 14.6036 3.81725 14.7867 3.63419Z" fill="#000000"/>
</g>
</g>
</g>
</g>
</g>
</svg>
