<svg width="24" height="16" xmlns="http://www.w3.org/2000/svg" fill="none">
 <g>
  <title>Layer 1</title>
  <path fill="#000000" d="m23.93773,7.6702c-0.0404,-0.07781 -1.0122,-1.9249 -2.9414,-3.77973c-5.2899,-5.08618 -12.62218,-5.09305 -17.91942,0c-1.9292,1.85483 -2.90094,3.70192 -2.9414,3.77973c-0.13184,0.25368 -0.13184,0.55244 0,0.80612c0.04046,0.07781 1.0122,1.92494 2.9414,3.77974c5.2901,5.0862 12.62222,5.093 17.91942,0c1.9292,-1.8548 2.901,-3.70193 2.9414,-3.77974c0.1319,-0.25368 0.1319,-0.55244 0,-0.80612zm-4.2672,3.31106c-4.4735,4.301 -10.59508,4.4581 -15.22747,0.0386c-1.22149,-1.16527 -2.02551,-2.34742 -2.39557,-2.94757c0.36365,-0.59116 1.14936,-1.74762 2.35529,-2.90706c4.46338,-4.29133 10.58585,-4.46685 15.22765,-0.03856c1.2216,1.16543 2.0256,2.34794 2.3953,2.94738c-0.3636,0.59117 -1.1493,1.7478 -2.3552,2.90721zm-7.6339,-7.35469c-2.55029,0 -4.62506,1.99479 -4.62506,4.4466c0,2.45199 2.07477,4.44679 4.62506,4.44679c2.5503,0 4.6251,-1.9948 4.6251,-4.44679c0,-2.45181 -2.0748,-4.4466 -4.6251,-4.4466zm0,7.09069c-1.5163,0 -2.75006,-1.18624 -2.75006,-2.64409c0,-1.45784 1.23376,-2.64387 2.75006,-2.64387c1.5163,0 2.7501,1.18603 2.7501,2.64387c0,1.45802 -1.2338,2.64409 -2.7501,2.64409z" id="Vector"/>
  <line stroke-linecap="undefined" stroke-linejoin="undefined" id="svg_2" y2="13.72161" x2="1.56044" y1="1.19414" x1="22.51282" stroke="#000000" fill="none"/>
  <line stroke-linecap="undefined" stroke-linejoin="undefined" id="svg_3" y2="14.5641" x2="2.07326" y1="2.07326" x1="22.91575" stroke="#000000" fill="none"/>
 </g>
</svg>
