<svg width="22" height="14" viewBox="0 0 24 16" fill="none" xmlns="http://www.w3.org/2000/svg">
<path id="Vector"  d="M23.9011 7.59694C23.8607 7.51913 22.8889 5.67204 20.9597 3.81721C15.6698 -1.26897 8.33752 -1.27584 3.04028 3.81721C1.11108 5.67204 0.139343 7.51913 0.098877 7.59694C-0.032959 7.85062 -0.032959 8.14938 0.098877 8.40306C0.139343 8.48087 1.11108 10.328 3.04028 12.1828C8.33038 17.269 15.6625 17.2758 20.9597 12.1828C22.8889 10.328 23.8607 8.48087 23.9011 8.40306C24.033 8.14938 24.033 7.85062 23.9011 7.59694ZM19.6339 10.908C15.1604 15.209 9.03882 15.3661 4.40643 10.9466C3.18494 9.78133 2.38092 8.59918 2.01086 7.99903C2.37451 7.40787 3.16022 6.25141 4.36615 5.09197C8.82953 0.800641 14.952 0.625122 19.5938 5.05341C20.8154 6.21884 21.6194 7.40135 21.9891 8.00079C21.6255 8.59196 20.8398 9.74859 19.6339 10.908ZM12 3.55331C9.44971 3.55331 7.37494 5.5481 7.37494 7.99991C7.37494 10.4519 9.44971 12.4467 12 12.4467C14.5503 12.4467 16.6251 10.4519 16.6251 7.99991C16.6251 5.5481 14.5503 3.55331 12 3.55331ZM12 10.644C10.4837 10.644 9.24994 9.45776 9.24994 7.99991C9.24994 6.54207 10.4837 5.35604 12 5.35604C13.5163 5.35604 14.7501 6.54207 14.7501 7.99991C14.7501 9.45793 13.5163 10.644 12 10.644Z" fill="currentColor"/>
</svg>
