<svg width="18" height="18" viewBox="0 0 18 18" fill="none" xmlns="http://www.w3.org/2000/svg">
<g id="Group 1261155700">
<g id="icon-bullet">
<path id="Vector (Stroke)" fill-rule="evenodd" clip-rule="evenodd" d="M5.1188 0.334951C5.11886 0.334987 5.11892 0.335023 5.11898 0.33506L16.3807 6.83051C16.7567 7.0413 17.0829 7.3525 17.3143 7.75159C18.0031 8.93981 17.5972 10.4609 16.4081 11.1489L16.4077 11.1492L5.25646 17.581C4.86029 17.8457 4.3837 18 3.8721 18C2.49552 18 1.37891 16.885 1.37891 15.5089V11.8125C1.37891 11.6183 1.53631 11.4609 1.73047 11.4609C1.92463 11.4609 2.08203 11.6183 2.08203 11.8125V15.5089C2.08203 16.496 2.88318 17.2969 3.8721 17.2969C4.24376 17.2969 4.58792 17.1842 4.87356 16.9911C4.88046 16.9865 4.88753 16.9821 4.89475 16.9779L16.056 10.5403C16.909 10.0468 17.1998 8.95603 16.706 8.10423C16.5394 7.81682 16.3053 7.59399 16.0354 7.44297C16.034 7.44222 16.0327 7.44146 16.0314 7.44069L4.76686 0.943656C3.91362 0.449984 2.82134 0.740956 2.32743 1.59291C2.16803 1.86785 2.08175 2.17485 2.08207 2.48595L2.08207 2.48631L2.08207 6.1875C2.08207 6.38167 1.92467 6.53907 1.7305 6.53907C1.53634 6.53907 1.37894 6.38167 1.37894 6.1875V2.48647C1.37853 2.04419 1.50121 1.61614 1.71914 1.24026M5.1188 0.334951C3.92998 -0.352748 2.40784 0.0523239 1.71914 1.24026L5.1188 0.334951Z" fill="white"/>
<g id="Group 1261155701">
<path id="Vector" d="M9.84369 8.99998C9.84369 7.34961 8.5058 6.01172 6.85543 6.01172H2.98826C1.33789 6.01172 0 7.34961 0 8.99998C0 10.6504 1.33789 11.9882 2.98826 11.9882H6.85542C8.5058 11.9882 9.84369 10.6504 9.84369 8.99998Z" fill="#AC3CE1"/>
</g>
</g>
</g>
</svg>
