<svg width="20" height="20" viewBox="0 0 30 30" fill="none" xmlns="http://www.w3.org/2000/svg">
<path d="M17.4375 22.7813H22.7813M22.7813 22.7813H28.125M22.7813 22.7813V17.4375M22.7813 22.7813V28.125M5.5625 12.6875H9.125C10.0698 12.6875 10.976 12.3122 11.6441 11.6441C12.3122 10.976 12.6875 10.0698 12.6875 9.125V5.5625C12.6875 4.61767 12.3122 3.71153 11.6441 3.04343C10.976 2.37533 10.0698 2 9.125 2H5.5625C4.61767 2 3.71153 2.37533 3.04343 3.04343C2.37533 3.71153 2 4.61767 2 5.5625V9.125C2 10.0698 2.37533 10.976 3.04343 11.6441C3.71153 12.3122 4.61767 12.6875 5.5625 12.6875ZM5.5625 28.125H9.125C10.0698 28.125 10.976 27.7497 11.6441 27.0816C12.3122 26.4135 12.6875 25.5073 12.6875 24.5625V21C12.6875 20.0552 12.3122 19.149 11.6441 18.4809C10.976 17.8128 10.0698 17.4375 9.125 17.4375H5.5625C4.61767 17.4375 3.71153 17.8128 3.04343 18.4809C2.37533 19.149 2 20.0552 2 21V24.5625C2 25.5073 2.37533 26.4135 3.04343 27.0816C3.71153 27.7497 4.61767 28.125 5.5625 28.125ZM21 12.6875H24.5625C25.5073 12.6875 26.4135 12.3122 27.0816 11.6441C27.7497 10.976 28.125 10.0698 28.125 9.125V5.5625C28.125 4.61767 27.7497 3.71153 27.0816 3.04343C26.4135 2.37533 25.5073 2 24.5625 2H21C20.0552 2 19.149 2.37533 18.4809 3.04343C17.8128 3.71153 17.4375 4.61767 17.4375 5.5625V9.125C17.4375 10.0698 17.8128 10.976 18.4809 11.6441C19.149 12.3122 20.0552 12.6875 21 12.6875Z" stroke="currentColor" stroke-width="3" stroke-linecap="round" stroke-linejoin="round"/>
</svg>
