<svg width="100%" height="100%" viewBox="0 0 39 44" fill="none" xmlns="http://www.w3.org/2000/svg">
<g clip-path="url(#clip0_1_309)">
<path d="M20.4799 43.26C22.8999 43.26 25.2399 42.94 27.4699 42.34C27.3899 42.15 27.3499 41.95 27.3499 41.76C27.3499 40.83 27.3999 37.81 27.3999 34.05C27.3999 31.4 26.5199 29.73 25.5099 28.85C31.7299 28.15 38.2299 25.79 38.2299 15.01C38.2299 11.95 37.1699 9.44 35.3699 7.49C35.6499 6.79 36.6199 3.91 35.0899 0.0599988C35.0899 0.0599988 32.7399 -0.680001 27.4399 2.94C25.2299 2.34 22.8299 2.01 20.4799 2.01C18.1299 2.01 15.7899 2.32 13.5199 2.94C8.21988 -0.680001 5.86988 0.0599988 5.86988 0.0599988C4.34988 3.91 5.31988 6.79 5.58988 7.49C3.83988 9.44 2.72988 11.95 2.72988 15.01C2.72988 25.78 9.22988 28.2 15.3999 28.85C14.6199 29.55 13.8799 30.8 13.6499 32.61C12.0399 33.35 8.02988 34.56 5.53988 30.29C5.53988 30.29 4.05988 27.6 1.24988 27.41C1.24988 27.41 -1.47012 27.41 1.06988 29.13C1.06988 29.13 2.90988 29.97 4.15988 33.22C4.15988 33.22 5.76988 38.23 13.5199 36.56C13.5199 38.88 13.5699 41.11 13.5699 41.76C13.5699 41.95 13.5299 42.15 13.4499 42.33C15.6899 42.93 18.0499 43.26 20.4799 43.26Z" fill="currentColor"/>
</g>
<defs>
<clipPath id="clip0_1_309">
<rect width="38.23" height="43.26" fill="white"/>
</clipPath>
</defs>
</svg>
