<svg width="100%" height="100%" viewBox="0 0 41 41" fill="none" xmlns="http://www.w3.org/2000/svg">
<g clip-path="url(#clip0_1_311)">
<path d="M21.49 0L24.56 0.48C39.1 3.81 45.29 21.39 35.59 33.04C24.76 46.06 3.79996 40.52 0.419962 24.18L0.0199618 21.39C0.0599618 20.56 -0.0300382 19.7 0.0199618 18.87C0.599962 8.95 8.85996 0.61 18.8 0H21.5H21.49ZM18.71 3.15C16.1 4.17 14.54 6.83 13.5 9.31C15.19 9.75 16.97 9.96 18.71 9.99V3.15ZM21.58 3.15V9.98C22 10.06 26.8 9.57 26.79 9.3C25.74 6.83 24.19 4.17 21.58 3.15ZM12.78 4.59C12.51 4.38 8.57996 7.04 8.28996 7.64L10.71 8.53C11.27 7.15 11.93 5.8 12.79 4.58L12.78 4.59ZM32.01 7.64C31.72 7.03 27.78 4.38 27.52 4.59C28.38 5.81 29.03 7.16 29.6 8.54L32.02 7.65L32.01 7.64ZM8.63996 18.7C8.78996 16.23 9.13996 13.79 9.70996 11.39L6.34996 9.89C6.13996 9.89 5.36996 11.19 5.21996 11.45C3.96996 13.62 3.12996 16.18 2.98996 18.7H8.64996H8.63996ZM37.31 18.7C37.17 16.18 36.33 13.63 35.08 11.45C34.93 11.19 34.15 9.9 33.95 9.89L30.58 11.39C31.16 13.8 31.5 16.23 31.65 18.7H37.31ZM18.71 12.85C16.62 12.89 14.56 12.46 12.51 12.13L11.52 18.69H18.71V12.85ZM21.58 12.85V18.69H28.77C28.59 16.48 28.33 14.28 27.78 12.13C25.73 12.45 23.68 12.89 21.59 12.84L21.58 12.85ZM8.63996 21.57H2.97996C2.91996 24.78 4.35996 27.87 6.26996 30.37L9.72996 28.88C9.11996 26.48 8.80996 24.03 8.63996 21.57ZM18.71 21.57H11.52C11.69 23.78 11.97 25.98 12.51 28.13C14.55 27.67 16.63 27.44 18.71 27.32V21.57ZM28.77 21.57H21.58V27.32C23.67 27.44 25.74 27.68 27.78 28.13C28.32 25.98 28.6 23.78 28.77 21.57ZM37.31 21.57H31.65C31.49 24.04 31.16 26.49 30.56 28.88L34.02 30.37C35.9 27.83 37.13 24.75 37.31 21.57ZM18.71 30.2L13.5 30.88C14.46 33.4 16.11 36.09 18.71 37.13V30.21V30.2ZM21.58 30.2V37.12C24.18 36.09 25.83 33.39 26.79 30.87L21.58 30.19V30.2ZM10.7 31.74C10.52 31.63 8.28996 32.54 8.28996 32.67C9.60996 33.9 11.11 35 12.78 35.68C11.92 34.46 11.28 33.11 10.7 31.74ZM27.51 35.69C29.18 35.01 30.68 33.91 32 32.68C32 32.55 29.78 31.62 29.59 31.75C29.02 33.12 28.37 34.48 27.51 35.69Z" fill="currentColor"/>
</g>
<defs>
<clipPath id="clip0_1_311">
<rect width="40.28" height="40.26" fill="white"/>
</clipPath>
</defs>
</svg>
