<?xml version="1.0" encoding="UTF-8"?>
<svg id="Layer_1" data-name="Layer 1" xmlns="http://www.w3.org/2000/svg" xmlns:xlink="http://www.w3.org/1999/xlink" version="1.1" viewBox="0 0 119.4 119">
  <defs>
    <style>
      .cls-1 {
        fill: url(#linear-gradient);
      }

      .cls-1, .cls-2, .cls-3 {
        stroke-width: 0px;
      }

      .cls-2 {
        fill: #2d2d2d;
      }

      .cls-3 {
        fill: #fff;
        fill-rule: evenodd;
      }
    </style>
    <linearGradient id="linear-gradient" x1="0" y1="60.5" x2="119" y2="60.5" gradientTransform="translate(0 120) scale(1 -1)" gradientUnits="userSpaceOnUse">
      <stop offset="0" stop-color="#80edb6"/>
      <stop offset="1" stop-color="#ac80ed"/>
    </linearGradient>
  </defs>
  <g>
    <circle class="cls-2" cx="59.5" cy="59.5" r="59.5"/>
    <path class="cls-1" d="M59.5,10c27.3,0,49.5,22.2,49.5,49.5s-22.2,49.5-49.5,49.5S10,86.8,10,59.5,32.2,10,59.5,10M59.5,0C26.6,0,0,26.6,0,59.5s26.6,59.5,59.5,59.5,59.5-26.6,59.5-59.5S92.4,0,59.5,0h0Z"/>
  </g>
  <g>
    <path class="cls-3" d="M37,63.5c0-.5.4-.8.8-.8h43.4c.5,0,.8.4.8.8v.2c0,12.3-10.2,22.1-22.6,22.1s-22.6-9.9-22.6-22.1v-.2h.2ZM38.7,64.3c.3,11.1,9.5,19.9,20.9,19.9s20.5-8.8,20.9-19.9h-41.8Z"/>
    <path class="cls-3" d="M49.4,65.8c.5,0,.9.3.9.8.2,2.9.6,6.6,1.7,9.9,1.1,3.3,2.7,6.2,5.2,7.9.4.3.5.8.2,1.2-.3.4-.8.5-1.2.2-3-1.9-4.8-5.3-5.9-8.8-1.1-3.5-1.6-7.3-1.8-10.3,0-.5.3-.9.8-.9h0Z"/>
    <path class="cls-3" d="M69.7,65.8c.5,0,.8.4.8.9-.2,3-.6,6.8-1.7,10.3s-2.9,6.8-6,8.8c-.4.3-.9,0-1.2-.2-.3-.4,0-.9.2-1.2,2.6-1.6,4.2-4.5,5.3-7.9,1.1-3.3,1.5-6.9,1.6-9.9,0-.5.4-.8.9-.8h0Z"/>
    <path class="cls-3" d="M59.5,74.3c-5.8,0-11,1.9-14.7,5.1-.3.3-.9.3-1.2,0s-.3-.8,0-1.1c4.1-3.4,9.6-5.5,15.8-5.5s11.8,2.1,15.8,5.5c.3.3.4.8,0,1.1-.3.3-.8.4-1.2,0-3.7-3.2-8.9-5.1-14.7-5.1h.2Z"/>
    <path class="cls-3" d="M59.5,66.4c.4,0,.6.4.6.8v17.8c0,.4-.3.8-.6.8s-.6-.4-.6-.8v-17.8c0-.4.3-.8.6-.8Z"/>
    <path class="cls-3" d="M42.1,60.5c0-.5.4-.9.8-.9h33.1c.5,0,.8.4.8.9s-.4.9-.8.9h-33.1c-.5,0-.8-.4-.8-.9Z"/>
    <path class="cls-3" d="M70.5,46c0-.9.7-1.6,1.5-1.6h1.5c.9,0,1.5.7,1.5,1.6v14.6c0,.4-.4.8-.8.8s-.8-.4-.8-.8v-14.5h-1.4v14.5c0,.4-.4.8-.8.8s-.8-.4-.8-.8v-14.6h.1Z"/>
    <path class="cls-3" d="M61.5,53.5c0-.9.8-1.5,1.7-1.5h1.7c1,0,1.7.7,1.7,1.5v7.1c0,.4-.4.8-.9.8s-.9-.4-.9-.8v-7h-1.6v7c0,.4-.4.8-.9.8s-.9-.4-.9-.8v-7.1h.1Z"/>
    <path class="cls-3" d="M52.4,49.8c0-.9.8-1.6,1.7-1.6h1.7c1,0,1.7.7,1.7,1.6v10.8c0,.4-.4.8-.9.8s-.9-.4-.9-.8v-10.8h-1.6v10.8c0,.4-.4.8-.9.8s-.9-.4-.9-.8v-10.8h.1Z"/>
    <path class="cls-3" d="M43.4,56.8c0-.9.8-1.7,1.7-1.7h1.7c1,0,1.7.7,1.7,1.7v3.8c0,.5-.4.9-.9.9s-.9-.4-.9-.9v-3.7h-1.6v3.7c0,.5-.4.9-.9.9s-.9-.4-.9-.9v-3.8h.1Z"/>
    <path class="cls-3" d="M72.7,34.9c-1.1,0-2,.9-2,2.1s.9,2.1,2,2.1,2-.9,2-2.1-.9-2.1-2-2.1ZM69.2,37c0-2.1,1.6-3.8,3.5-3.8s3.5,1.7,3.5,3.8-1.6,3.8-3.5,3.8-3.5-1.7-3.5-3.8Z"/>
    <path class="cls-3" d="M64,42.4c-1.2,0-2.1.9-2.1,2.1s1,2.1,2.1,2.1,2.1-.9,2.1-2.1-1-2.1-2.1-2.1ZM60.2,44.5c0-2.1,1.7-3.8,3.9-3.8s3.9,1.7,3.9,3.8-1.7,3.8-3.9,3.8-3.9-1.7-3.9-3.8Z"/>
    <path class="cls-3" d="M55,38.6c-1.2,0-2.1.9-2.1,2.1s1,2.1,2.1,2.1,2.1-.9,2.1-2.1-1-2.1-2.1-2.1ZM51.1,40.7c0-2.1,1.7-3.8,3.9-3.8s3.9,1.7,3.9,3.8-1.7,3.8-3.9,3.8-3.9-1.7-3.9-3.8Z"/>
    <path class="cls-3" d="M46.3,46.2c-1.1,0-2,.9-2,2.1s.9,2.1,2,2.1,2-.9,2-2.1-.9-2.1-2-2.1ZM42.8,48.2c0-2.1,1.6-3.8,3.5-3.8s3.5,1.7,3.5,3.8-1.6,3.8-3.5,3.8-3.5-1.7-3.5-3.8Z"/>
    <path class="cls-3" d="M53.5,41.6c.3.4.3.9,0,1.2l-4.7,3.9c-.4.3-.9.3-1.2,0-.3-.4-.3-.9,0-1.2l4.7-3.9c.4-.3.9-.3,1.2,0Z"/>
    <path class="cls-3" d="M57,41.2c.2-.4.7-.6,1.1-.4l3.5,1.5c.4.2.6.7.4,1.1-.2.4-.7.6-1.1.4l-3.5-1.5c-.4-.2-.6-.7-.4-1.1Z"/>
    <path class="cls-3" d="M71.6,38.5c.3.3.3.8,0,1.1l-4.7,3.5c-.4.3-.9.2-1.2,0-.3-.3-.3-.8,0-1.1l4.7-3.5c.4-.3.9-.2,1.2,0Z"/>
  </g>
</svg>