<?xml version="1.0" encoding="UTF-8"?>
<svg id="Layer_1" data-name="Layer 1" xmlns="http://www.w3.org/2000/svg" viewBox="0 0 64 64">
  <defs>
    <style>
      .cls-1 {
        fill: #fff;
      }

      .cls-2 {
        fill: #121212;
      }
    </style>
  </defs>
  <rect class="cls-1" x="0" y="0" width="64" height="64" rx="32" ry="32"/>
  <path class="cls-2" d="M38.77,48.66c-1.68,1.11-3.41,1.45-5.28.96-1.2-.31-2.29-.82-3.12-1.79-.88-1.02-1.19-2.24-1.19-3.55-.01-6.71,0-13.42,0-20.13,0-.15,0-.3,0-.51-.17,0-.32,0-.46,0-3.67,0-7.35,0-11.02,0-.37,0-.44-.13-.44-.46,0-2.01,1.75-4.88,4.79-5.05.91-.05,1.83-.13,2.74-.13,7.15-.01,14.3,0,21.45,0h.5c-.04.37-.05.7-.1,1.02-.48,2.69-2.62,4.5-5.4,4.54-2,.03-4.01.04-6.01.06-1.37,0-2.73,0-4.1,0l-.02.1c.17.09.34.17.51.26,1.24.64,2.25,1.51,2.86,2.79.48,1.01.71,2.09.72,3.2.02,4.08,0,8.16.02,12.24,0,1.13.03,2.27.13,3.4.13,1.42.97,2.29,2.3,2.7.35.11.7.21,1.13.34Z"/>
</svg>