<svg width="14" height="14" viewBox="0 0 14 14" fill="none" xmlns="http://www.w3.org/2000/svg">
<g id="icon-warning">
<path id="Vector" d="M7.06255 10.1718H6.93837C6.14297 10.1718 5.48352 9.54982 5.4371 8.7558L5.01816 1.592C4.99409 1.18036 5.14254 0.7723 5.42545 0.472353C5.70836 0.172378 6.1071 0.000366211 6.51942 0.000366211H7.4815C7.89379 0.000366211 8.29253 0.172378 8.57544 0.472325C8.85838 0.772273 9.00683 1.18039 8.98279 1.59197L8.56388 8.7558C8.51739 9.54985 7.85792 10.1718 7.06255 10.1718Z" fill="#AC3CE1"/>
<path id="Vector_2" d="M7.06209 10.1718C7.85749 10.1718 8.51694 9.54985 8.56339 8.7558L8.9823 1.59197C9.00637 1.18036 8.8579 0.772273 8.57498 0.472325C8.29207 0.172378 7.89333 0.000366211 7.48104 0.000366211H7V10.1718H7.06209Z" fill="url(#paint0_linear_892_184)" fill-opacity="0.6"/>
<path id="Vector_3" d="M6.99993 13.9997C6.17072 13.9997 5.49609 13.3251 5.49609 12.4959C5.49609 11.6667 6.17072 10.9921 6.99993 10.9921C7.82915 10.9921 8.50377 11.6667 8.50377 12.4959C8.50377 13.3251 7.82915 13.9997 6.99993 13.9997Z" fill="#381246"/>
<path id="Vector_4" d="M7 10.9921V13.9997C7.82922 13.9997 8.50384 13.3251 8.50384 12.4959C8.50384 11.6667 7.82922 10.9921 7 10.9921Z" fill="url(#paint1_linear_892_184)" fill-opacity="0.6"/>
<path id="Vector_5" d="M4.14019 10.9855C3.99905 10.9855 3.86173 10.9127 3.7855 10.782C3.45561 10.2163 3.28125 9.57034 3.28125 8.91393C3.28125 8.25749 3.45561 7.61153 3.7855 7.04589C3.8996 6.85025 4.15069 6.78403 4.3464 6.89824C4.54207 7.01234 4.60818 7.26345 4.49408 7.45915C4.23725 7.8995 4.10153 8.40254 4.10153 8.91393C4.10153 9.42529 4.23725 9.92837 4.49408 10.3687C4.60818 10.5644 4.54207 10.8155 4.3464 10.9296C4.28144 10.9675 4.21032 10.9855 4.14019 10.9855Z" fill="white"/>
<path id="Vector_6" d="M2.72188 11.8094C2.58074 11.8094 2.44343 11.7365 2.3672 11.6058C1.89188 10.7907 1.64062 9.85984 1.64062 8.9139C1.64062 7.96796 1.89188 7.03714 2.36722 6.22203C2.4813 6.02636 2.73244 5.96022 2.92813 6.07435C3.12382 6.18848 3.18993 6.43959 3.07581 6.63528C2.67352 7.32508 2.4609 8.11301 2.4609 8.9139C2.4609 9.71479 2.67352 10.5027 3.07581 11.1925C3.18991 11.3882 3.12379 11.6393 2.92813 11.7535C2.86314 11.7913 2.79205 11.8094 2.72188 11.8094Z" fill="white"/>
<path id="Vector_7" d="M1.30153 12.6343C1.16028 12.6343 1.02288 12.5613 0.94668 12.4305C0.327372 11.3667 0 10.1506 0 8.91379C0 7.67701 0.327372 6.46092 0.94668 5.39711C1.06064 5.20136 1.31173 5.135 1.50747 5.24902C1.70322 5.36298 1.76953 5.61407 1.65559 5.80981C1.10912 6.74848 0.820275 7.82181 0.820275 8.91379C0.820275 10.0058 1.10912 11.0791 1.65559 12.0177C1.76955 12.2135 1.70325 12.4646 1.50747 12.5785C1.44259 12.6163 1.37158 12.6343 1.30153 12.6343Z" fill="white"/>
<path id="Vector_8" d="M9.86296 10.9795C9.79305 10.9795 9.72226 10.9616 9.65745 10.924C9.46154 10.8103 9.39491 10.5593 9.5086 10.3634C9.76341 9.92435 9.8981 9.42308 9.8981 8.91377C9.8981 8.40443 9.76341 7.90316 9.5086 7.4641C9.39491 7.26819 9.46154 7.01718 9.65745 6.90349C9.85334 6.78983 10.1044 6.85641 10.2181 7.05235C10.5454 7.61634 10.7184 8.26001 10.7184 8.91377C10.7184 9.56753 10.5454 10.2112 10.2181 10.7751C10.142 10.9062 10.0044 10.9795 9.86296 10.9795Z" fill="white"/>
<path id="Vector_9" d="M11.2809 11.8033C11.2109 11.8033 11.14 11.7854 11.0752 11.7477C10.8794 11.6339 10.8129 11.3828 10.9267 11.187C11.3269 10.4986 11.5384 9.71251 11.5384 8.91375C11.5384 8.115 11.3269 7.32893 10.9267 6.6405C10.8129 6.44467 10.8794 6.19364 11.0752 6.07981C11.2709 5.96596 11.5221 6.0324 11.6359 6.22828C12.1087 7.04175 12.3587 7.97036 12.3587 8.91375C12.3587 9.85715 12.1087 10.7858 11.6359 11.5992C11.5597 11.7302 11.4222 11.8033 11.2809 11.8033Z" fill="white"/>
<path id="Vector_10" d="M12.7009 12.6286C12.6309 12.6286 12.5601 12.6107 12.4953 12.573C12.2994 12.4593 12.2328 12.2082 12.3466 12.0124C12.8909 11.0752 13.1786 10.0037 13.1786 8.91392C13.1786 7.82413 12.8909 6.75268 12.3466 5.81549C12.2328 5.61964 12.2994 5.3686 12.4953 5.25486C12.6911 5.14106 12.9421 5.20758 13.0559 5.40355C13.6728 6.46569 13.9989 7.67959 13.9989 8.91392C13.9989 10.1482 13.6728 11.3621 13.0559 12.4243C12.9798 12.5554 12.8422 12.6286 12.7009 12.6286Z" fill="white"/>
</g>
<defs>
<linearGradient id="paint0_linear_892_184" x1="7.99242" y1="10.2254" x2="7.99242" y2="-0.0531676" gradientUnits="userSpaceOnUse">
<stop stop-color="white" stop-opacity="0.3"/>
<stop offset="0.5" stop-color="#808080" stop-opacity="0.15"/>
<stop offset="1" stop-opacity="0"/>
</linearGradient>
<linearGradient id="paint1_linear_892_184" x1="7.75192" y1="14.0155" x2="7.75192" y2="10.9762" gradientUnits="userSpaceOnUse">
<stop stop-color="white" stop-opacity="0.3"/>
<stop offset="0.5" stop-color="#808080" stop-opacity="0.15"/>
<stop offset="1" stop-opacity="0"/>
</linearGradient>
</defs>
</svg>
