<svg width="18" height="18" viewBox="0 0 50 50" fill="none" xmlns="http://www.w3.org/2000/svg">
<g id="icon-bullet-1">
<path id="Vector (Stroke)" fill-rule="evenodd" clip-rule="evenodd" d="M14.2152 0.930418C14.2154 0.930519 14.2156 0.93062 14.2158 0.930721L45.4984 18.9736C46.5428 19.5592 47.4489 20.4236 48.0916 21.5322C50.005 24.8328 48.8775 29.0582 45.5745 30.9692L45.5734 30.9699L14.5976 48.836C13.4972 49.5713 12.1733 50 10.7522 50C6.92837 50 3.82666 46.9029 3.82666 43.0804V32.8125C3.82666 32.2732 4.26388 31.836 4.80322 31.836C5.34256 31.836 5.77978 32.2732 5.77978 32.8125V43.0804C5.77978 45.8223 8.00519 48.0469 10.7522 48.0469C11.7846 48.0469 12.7406 47.7338 13.534 47.1976C13.5532 47.1846 13.5728 47.1724 13.5929 47.1608L44.5964 29.2787C46.9659 27.9077 47.7735 24.8779 46.4018 22.5117C45.939 21.7134 45.289 21.0944 44.5391 20.6749C44.5354 20.6728 44.5316 20.6707 44.5279 20.6686L13.2376 2.62127C10.8675 1.24996 7.83343 2.05821 6.46145 4.42476C6.01866 5.18848 5.77899 6.04125 5.77988 6.90543L5.77988 6.90643L5.77988 17.1875C5.77988 17.7269 5.34266 18.1641 4.80332 18.1641C4.26398 18.1641 3.82676 17.7269 3.82676 17.1875V6.90686C3.8256 5.6783 4.1664 4.48928 4.77174 3.44517M14.2152 0.930418C10.913 -0.979855 6.6848 0.145344 4.77174 3.44517L14.2152 0.930418Z" fill="white"/>
<g id="Group 1261155701">
<path id="Vector" d="M27.3436 16.6992H0V33.3007H27.3436V16.6992Z" fill="#AC3CE1"/>
<path id="Vector_2" d="M27.7778 16.6666H13.8889V33.3333H27.7778V16.6666Z" fill="url(#paint0_linear_329_208)" fill-opacity="0.6"/>
<path id="Text" d="M21.8986 19.697V27.7778H20.6755V20.9202H20.6281L18.6947 22.1828V21.0149L20.711 19.697H21.8986Z" fill="white"/>
<path id="Text_2" d="M6.36841 27.912C5.74499 27.9094 5.21232 27.745 4.7704 27.4188C4.32848 27.0926 3.99046 26.6178 3.75635 25.9944C3.52224 25.371 3.40518 24.62 3.40518 23.7414C3.40518 22.8654 3.52224 22.1171 3.75635 21.4963C3.99309 20.8755 4.33242 20.402 4.77434 20.0758C5.21889 19.7496 5.75025 19.5865 6.36841 19.5865C6.98657 19.5865 7.51661 19.751 7.95853 20.0798C8.40045 20.4059 8.73846 20.8794 8.97258 21.5002C9.20932 22.1184 9.32769 22.8654 9.32769 23.7414C9.32769 24.6226 9.21063 25.3749 8.97652 25.9983C8.74241 26.6191 8.40439 27.0939 7.96247 27.4227C7.52056 27.7489 6.9892 27.912 6.36841 27.912ZM6.36841 26.8585C6.91555 26.8585 7.343 26.5915 7.65076 26.0575C7.96116 25.5235 8.11636 24.7515 8.11636 23.7414C8.11636 23.0706 8.04533 22.5037 7.90329 22.0408C7.76387 21.5752 7.56264 21.2227 7.2996 20.9833C7.03918 20.7413 6.72878 20.6203 6.36841 20.6203C5.8239 20.6203 5.39645 20.8886 5.08605 21.4252C4.77566 21.9619 4.61914 22.7339 4.61651 23.7414C4.61651 24.4148 4.68622 24.9843 4.82564 25.4499C4.96768 25.9128 5.16891 26.264 5.42933 26.5034C5.68975 26.7401 6.00277 26.8585 6.36841 26.8585Z" fill="white"/>
</g>
</g>
<defs>
<linearGradient id="paint0_linear_329_208" x1="20.8333" y1="33.421" x2="20.8333" y2="16.5789" gradientUnits="userSpaceOnUse">
<stop stop-color="white" stop-opacity="0.3"/>
<stop offset="0.5" stop-color="#808080" stop-opacity="0.15"/>
<stop offset="1" stop-opacity="0"/>
</linearGradient>
</defs>
</svg>
