<svg width="46" height="24" viewBox="0 0 46 24" fill="none" xmlns="http://www.w3.org/2000/svg">
<g id="Group">
<g id="Group_2">
<path id="Vector" opacity="0.3" d="M41.3464 13.3287C40.8522 13.3287 40.3873 13.0516 40.1587 12.5942L37.3394 6.95579V12.0001C37.3394 12.7337 36.7447 13.3285 36.011 13.3285C35.2774 13.3285 34.6826 12.7337 34.6826 12.0001V1.32858C34.6826 0.712467 35.1062 0.177297 35.7058 0.035689C36.3054 -0.105919 36.9237 0.183407 37.1991 0.734518L40.0184 6.37288V1.32858C40.0184 0.594947 40.6131 0.000176301 41.3468 0.000176301C42.0804 0.000176301 42.6752 0.594947 42.6752 1.32858V12.0001C42.6752 12.6162 42.2516 13.1514 41.652 13.293C41.5501 13.317 41.4476 13.3286 41.3464 13.3287Z" fill="white"/>
</g>
<path id="Vector_2" d="M45.3428 20.0042C45.3428 22.2075 43.5503 24 41.347 24H33.3429L31.2617 20.5904L33.3429 16.0074H41.347C43.5503 16.0074 45.3428 17.7999 45.3428 20.0042Z" fill="#CDCDCD"/>
<path id="Vector_3" d="M33.343 16.0074V24H22.6715L21.3047 20.0037L22.6715 16.0074H33.343Z" fill="#381246"/>
<g id="Group_3">
<g id="Group_4">
<path id="Vector_4" d="M6.66425 13.3284H3.99637C3.26274 13.3284 2.66797 12.7337 2.66797 12C2.66797 11.2664 3.26274 10.6716 3.99637 10.6716H6.66425C7.40284 10.6716 8.00372 10.0707 8.00372 9.33216C8.00372 8.59356 7.40284 7.99268 6.66425 7.99268C4.46069 7.99268 2.66797 6.19996 2.66797 3.9964C2.66797 1.79285 4.46069 0.00012207 6.66425 0.00012207H9.33213C10.0658 0.00012207 10.6605 0.594893 10.6605 1.32853C10.6605 2.06216 10.0658 2.65693 9.33213 2.65693H6.66425C5.92566 2.65693 5.32478 3.25781 5.32478 3.9964C5.32478 4.73499 5.92566 5.33588 6.66425 5.33588C8.8678 5.33588 10.6605 7.1286 10.6605 9.33216C10.6605 11.5357 8.8678 13.3284 6.66425 13.3284Z" fill="white"/>
</g>
<g id="Group_5">
<path id="Vector_5" opacity="0.8" d="M17.3356 13.3284C15.1321 13.3284 13.3394 11.5357 13.3394 9.33216V3.9964C13.3394 1.79285 15.1321 0.00012207 17.3356 0.00012207C19.5392 0.00012207 21.3319 1.79285 21.3319 3.9964V9.33216C21.3319 11.5357 19.5392 13.3284 17.3356 13.3284ZM17.3356 2.65693C16.597 2.65693 15.9962 3.25781 15.9962 3.9964V9.33216C15.9962 10.0707 16.597 10.6716 17.3356 10.6716C18.0742 10.6716 18.6751 10.0707 18.6751 9.33216V3.9964C18.6751 3.25781 18.0742 2.65693 17.3356 2.65693Z" fill="white"/>
</g>
<g id="Group_6">
<path id="Vector_6" opacity="0.5" d="M27.9797 13.3284C25.7761 13.3284 23.9834 11.5357 23.9834 9.33216V3.9964C23.9834 1.79285 25.7761 0.00012207 27.9797 0.00012207C30.1832 0.00012207 31.976 1.79285 31.976 3.9964V9.33216C31.9759 11.5357 30.1831 13.3284 27.9797 13.3284ZM27.9797 2.65693C27.2411 2.65693 26.6402 3.25781 26.6402 3.9964V9.33216C26.6402 10.0707 27.2411 10.6716 27.9797 10.6716C28.7183 10.6716 29.3192 10.0707 29.3192 9.33216V3.9964C29.3191 3.25781 28.7182 2.65693 27.9797 2.65693Z" fill="white"/>
</g>
</g>
<path id="Vector_7" d="M3.99584 16.0074C1.79246 16.0074 0 17.7999 0 20.0042C0 22.2075 1.79246 24 3.99584 24H22.6714V16.0074H3.99584Z" fill="#AC3CE1"/>
</g>
</svg>
