<svg width="161" height="170" viewBox="0 0 161 170" fill="none" xmlns="http://www.w3.org/2000/svg">
<path d="M100.473 100.688V38.0334C93.7751 28.0561 88.8911 16.6135 85.5421 3.56626C84.356 -1.17821 77.6579 -1.10844 76.402 3.63603C72.8437 17.4508 67.6108 29.3817 60.2848 39.7777L100.473 100.688Z" fill="white"/>
<path d="M117.707 57.2902V111.921C128.382 102.851 141.638 95.3156 157.965 89.0362C162.012 87.5012 162.012 81.78 157.965 80.1752C141.638 73.8958 128.382 66.4302 117.707 57.2902Z" fill="white"/>
<path d="M60.215 39.7774C70.4714 55.3364 100.473 55.0573 100.473 38.0331V100.688L60.215 39.7774Z" fill="white"/>
<path opacity="0.32" d="M72.7738 58.686L100.473 100.688V54.0811C96.1473 61.6862 83.1698 63.1513 72.7738 58.686Z" fill="white"/>
<path d="M61.4011 68.6633V131.318C68.0992 141.296 72.9832 152.738 76.3322 165.785C77.5183 170.53 84.2164 170.46 85.4723 165.716C89.0306 151.901 94.2635 139.97 101.59 129.574L61.4011 68.6633Z" fill="white"/>
<path d="M101.659 129.574C91.4029 114.015 61.4011 114.294 61.4011 131.318V68.6633L101.659 129.574Z" fill="white"/>
<path d="M101.659 129.574C91.4029 114.015 61.4011 114.294 61.4011 131.318V68.6633L101.659 129.574Z" fill="white"/>
<path opacity="0.32" d="M87.705 108.503L61.4011 68.6633V110.805C66.8433 105.154 78.3556 104.386 87.705 108.503Z" fill="white"/>
<path d="M120.777 109.41C121.335 108.991 121.893 108.572 122.451 108.084C122.73 107.875 123.009 107.665 123.288 107.456C123.847 107.037 124.405 106.619 125.033 106.2C125.312 105.991 125.591 105.851 125.87 105.642C126.707 105.084 127.475 104.526 128.312 103.968C128.382 103.968 128.382 103.898 128.452 103.898C129.359 103.34 130.196 102.781 131.103 102.153C131.382 102.014 131.661 101.805 131.94 101.665C132.568 101.246 133.196 100.898 133.894 100.479C134.243 100.27 134.591 100.06 134.871 99.9208C135.498 99.5719 136.196 99.1533 136.824 98.8044C137.103 98.6649 137.452 98.4556 137.731 98.316C138.638 97.8276 139.475 97.3392 140.382 96.9206C140.452 96.8508 140.592 96.8508 140.662 96.7811C141.638 96.2927 142.685 95.7345 143.732 95.2461C144.011 95.1066 144.359 94.967 144.708 94.8275C145.476 94.4786 146.174 94.1297 146.941 93.7809C147.29 93.6413 147.709 93.432 148.057 93.2925C148.825 92.9436 149.523 92.5948 150.29 92.3157C150.639 92.1762 150.988 92.0366 151.337 91.8273C152.313 91.4087 153.29 90.99 154.267 90.6412C154.407 90.5714 154.546 90.5016 154.686 90.4319C155.732 90.0132 156.709 89.5946 157.756 89.176C159.011 88.6876 159.919 87.7805 160.407 86.734C145.127 88.8271 117.567 88.2689 117.567 57.4299V112.061C118.335 111.433 119.102 110.805 119.87 110.177C120.288 109.828 120.567 109.619 120.777 109.41Z" fill="white"/>
<path opacity="0.32" d="M144.848 94.688C145.476 94.4089 146.104 94.06 146.732 93.7809C136.057 93.7809 123.847 91.1296 117.707 80.5941V111.922C118.474 111.294 119.242 110.666 120.009 110.038C120.288 109.828 120.498 109.619 120.777 109.48C121.335 109.061 121.893 108.642 122.451 108.154C122.73 107.945 123.009 107.735 123.288 107.526C123.847 107.107 124.405 106.689 125.033 106.27C125.312 106.061 125.591 105.921 125.87 105.712C126.707 105.154 127.475 104.596 128.312 104.037C128.382 104.037 128.382 103.968 128.452 103.968C129.359 103.409 130.196 102.851 131.103 102.223C131.382 102.084 131.661 101.874 131.94 101.735C132.568 101.316 133.196 100.967 133.894 100.549C134.243 100.339 134.591 100.13 134.871 99.9906C135.498 99.6417 136.196 99.2231 136.824 98.8743C137.103 98.7347 137.452 98.5254 137.731 98.3859C138.638 97.8975 139.475 97.4091 140.383 96.9904C140.452 96.9207 140.592 96.9207 140.662 96.8509C141.638 96.3625 142.685 95.8043 143.732 95.3159C144.22 94.967 144.499 94.8275 144.848 94.688Z" fill="white"/>
<path d="M44.1675 111.921V57.2902C33.4925 66.3605 20.2359 73.8958 3.90936 80.1752C-0.137389 81.7102 -0.137389 87.4315 3.90936 89.0362C20.2359 95.3156 33.4925 102.851 44.1675 111.921Z" fill="white"/>
<path d="M41.7953 59.2443C41.5162 59.4536 41.3069 59.6629 41.0278 59.8024C40.4696 60.2211 39.9115 60.6397 39.3533 61.1281C39.0742 61.3374 38.7951 61.5467 38.516 61.756C37.9579 62.1747 37.3299 62.5933 36.7717 63.0119C36.4927 63.2213 36.2136 63.3608 35.9345 63.5701C35.0972 64.1283 34.3297 64.6865 33.4925 65.2446C33.4227 65.2446 33.4227 65.3144 33.3529 65.3144C32.4459 65.8726 31.6087 66.4307 30.7016 67.0587C30.4225 67.1982 30.1435 67.4075 29.8644 67.5471C29.2364 67.9657 28.5387 68.3146 27.9108 68.7332C27.5619 68.9425 27.2828 69.1518 26.934 69.2914C26.306 69.6402 25.6083 70.0589 24.9804 70.4077C24.7013 70.5473 24.3524 70.7566 24.0733 70.8961C23.1663 71.3845 22.329 71.8729 21.3522 72.2915C21.2825 72.3613 21.1429 72.3613 21.0732 72.4311C20.0963 72.9195 19.0498 73.4777 18.0032 73.9661C17.7241 74.1056 17.3753 74.2451 17.0962 74.3847C16.3287 74.7335 15.631 75.0824 14.8635 75.4313C14.5146 75.5708 14.096 75.7801 13.7471 75.9197C12.9797 76.2685 12.2819 76.6174 11.5145 76.8965C11.1656 77.036 10.8167 77.1756 10.4679 77.3849C9.49108 77.8035 8.51428 78.2221 7.53748 78.571C7.39794 78.6408 7.25839 78.7105 7.11885 78.7803C6.07227 79.1989 5.09548 79.6176 4.0489 80.0362C2.79302 80.5246 1.88598 81.4316 1.39758 82.4782C16.6775 80.385 44.2373 80.9432 44.2373 111.782V57.1511C43.4 57.9884 42.6326 58.6163 41.7953 59.2443Z" fill="white"/>
<path opacity="0.32" d="M41.7953 59.2443C41.5162 59.4536 41.3069 59.6629 41.0278 59.8024C40.4696 60.2211 39.9115 60.6397 39.3533 61.1281C39.0742 61.3374 38.7951 61.5467 38.516 61.756C37.9579 62.1747 37.3299 62.5933 36.7717 63.0119C36.4927 63.2213 36.2136 63.3608 35.9345 63.5701C35.0972 64.1283 34.3297 64.6865 33.4925 65.2446C33.4227 65.2446 33.4227 65.3144 33.3529 65.3144C32.4459 65.8726 31.6087 66.4307 30.7016 67.0587C30.4225 67.1982 30.1435 67.4075 29.8644 67.5471C29.2364 67.9657 28.5387 68.3146 27.9108 68.7332C27.5619 68.9425 27.2828 69.1518 26.934 69.2914C26.306 69.6402 25.6083 70.0589 24.9804 70.4077C24.7013 70.5473 24.3524 70.7566 24.0733 70.8961C23.1663 71.3845 22.329 71.8729 21.3522 72.2915C21.2825 72.3613 21.1429 72.3613 21.0732 72.4311C20.0963 72.9195 19.0498 73.4777 18.0032 73.9661C17.7241 74.1056 17.3753 74.2451 17.0962 74.3847C16.3287 74.7335 15.631 75.0824 14.8635 75.4313C14.5146 75.5708 14.096 75.7801 13.7471 75.9197C12.9797 76.2685 12.2819 76.6174 11.5145 76.8965C11.1656 77.036 10.8167 77.1756 10.4679 77.3849C9.49108 77.8035 8.51428 78.2221 7.53748 78.571C7.39794 78.6408 7.25839 78.7105 7.11885 78.7803C6.07227 79.1989 5.09548 79.6176 4.0489 80.0362C2.79302 80.5246 1.88598 81.4316 1.39758 82.4782C16.6775 80.385 44.2373 80.9432 44.2373 111.782V57.1511C43.4 57.9884 42.6326 58.6163 41.7953 59.2443Z" fill="white"/>
<path d="M44.1675 88.8274V57.3605C43.4 57.9884 42.6326 58.6164 41.8651 59.2443C41.586 59.4536 41.3767 59.6629 41.0976 59.8025C40.5394 60.2211 39.9812 60.6397 39.4231 61.1281C39.144 61.3374 38.8649 61.5468 38.5858 61.7561C38.0276 62.1747 37.3997 62.5933 36.8415 63.012C36.5624 63.2213 36.2833 63.3608 36.0043 63.5701C35.167 64.1283 34.3995 64.6865 33.5623 65.2447C33.4925 65.2447 33.4925 65.3144 33.4227 65.3144C32.5157 65.8726 31.6784 66.4308 30.7714 67.0587C30.4923 67.1983 30.2132 67.4076 29.9341 67.5471C29.3062 67.9658 28.6085 68.3146 27.9805 68.7332C27.6317 68.9426 27.3526 69.1519 27.0037 69.2914C26.3758 69.6403 25.6781 70.0589 25.0501 70.4077C24.771 70.5473 24.4222 70.7566 24.1431 70.8961C23.2361 71.3845 22.3988 71.8729 21.422 72.2916C21.3522 72.3613 21.2127 72.3614 21.1429 72.4311C20.5848 72.7102 19.9568 72.9893 19.3986 73.3382C29.3062 74.315 39.4231 78.1524 44.1675 88.8274Z" fill="white"/>
</svg>
