<?xml version="1.0" encoding="UTF-8"?>
<svg xmlns="http://www.w3.org/2000/svg" xmlns:xlink="http://www.w3.org/1999/xlink" version="1.1" viewBox="0 0 399.2 399.2">
  <defs>
    <style>
      .cls-1 {
        fill: none;
      }

      .cls-2 {
        fill: #8774fb;
      }

      .cls-3 {
        fill: #fff;
      }

      .cls-4 {
        clip-path: url(#clippath);
      }
    </style>
    <clipPath id="clippath">
      <circle class="cls-1" cx="199.6" cy="199.6" r="199.6"/>
    </clipPath>
  </defs>
  <!-- Generator: Adobe Illustrator 28.7.1, SVG Export Plug-In . SVG Version: 1.2.0 Build 142)  -->
  <g>
    <g id="Layer_1">
      <g class="cls-4">
        <rect class="cls-2" width="399.2" height="399.2"/>
      </g>
      <g>
        <path class="cls-3" d="M80.1,113.2h0c24.7.5,44.6,20.2,45.4,44.8h.4c.8-24.6,20.7-44.3,45.4-44.8h0c-25.2-.5-45.5-21-45.5-46.3,0,25.3-20.3,45.8-45.5,46.3h-.2Z"/>
        <path class="cls-3" d="M317.4,126.6h-119.4c-5.1,0-10.2.5-15.3.7-16.9.9-26.6,16.9-26.7,28.1v2.5h66.3v104.4l-4-12.7c-2.7-8.4-7.5-16-14.1-22l-61.2-55.4h-35.1v126.6h35.1v-46.5c0-10.2-3.1-20.1-9-28.5l-8.6-12.2,17.5,15.7,79.3,71.5h33.5v-105.8c0-6.2-1.3-12.2-4-17.8-3.4-7.1-9-12-15.9-15.5-.9-.5-1.9-1-2.8-1.4q0-.3.1-.5h22.8c11.2,0,22.3-.1,33.5-.3,15.5-.2,27.4-10.3,30.1-25.3.3-1.8.4-3.6.6-5.7h-2.8,0Z"/>
      </g>
    </g>
  </g>
</svg>