<?xml version="1.0" encoding="UTF-8"?>
<svg id="Layer_1" data-name="Layer 1" xmlns="http://www.w3.org/2000/svg" xmlns:xlink="http://www.w3.org/1999/xlink" version="1.1" viewBox="0 0 120 120">
  <defs>
    <style>
      .cls-1 {
        fill: url(#linear-gradient);
      }

      .cls-1, .cls-2, .cls-3 {
        stroke-width: 0px;
      }

      .cls-2 {
        fill: #2d2d2d;
      }

      .cls-3 {
        fill: #fff;
      }
    </style>
    <linearGradient id="linear-gradient" x1=".5" y1="62" x2="119.5" y2="62" gradientTransform="translate(0 122) scale(1 -1)" gradientUnits="userSpaceOnUse">
      <stop offset="0" stop-color="#80edb6"/>
      <stop offset="1" stop-color="#ac80ed"/>
    </linearGradient>
  </defs>
  <g>
    <circle class="cls-2" cx="60" cy="60" r="59.5"/>
    <path class="cls-1" d="M60,10.5c27.3,0,49.5,22.2,49.5,49.5s-22.2,49.5-49.5,49.5S10.5,87.3,10.5,60,32.7,10.5,60,10.5M60,.5C27.1.5.5,27.1.5,60s26.6,59.5,59.5,59.5,59.5-26.6,59.5-59.5S92.9.5,60,.5h0Z"/>
  </g>
  <path class="cls-3" d="M65.8,86.5c-.7-.5-1.3-1.2-1.5-2.1s0-1.8.5-2.5,1.2-1.3,2.1-1.5,1.8,0,2.5.5,1.3,1.2,1.5,2.1,0,1.8-.5,2.5-1.2,1.3-2.1,1.5-1.8,0-2.5-.5ZM54.7,80.8c-.7-.5-1.7-.6-2.5-.5-.9.2-1.6.7-2.1,1.5-.5.7-.6,1.7-.5,2.5.2.9.7,1.6,1.5,2.1.7.5,1.7.6,2.5.5.9-.2,1.6-.7,2.1-1.5.5-.7.6-1.7.5-2.5-.2-.9-.7-1.6-1.5-2.1ZM69.5,71.9c.3,0,.5,0,.8-.2.2,0,.4-.4.5-.6l8.7-19c0-.2,0-.5,0-.7s0-.5-.2-.7c0-.2-.3-.4-.5-.5s-.4-.2-.7-.2h-31.9v-8.7c0-.8-.3-1.5-.9-2.1-.5-.5-1.3-.9-2.1-.9h-7.3c-.4,0-.8.2-1,.4-.3.3-.4.6-.4,1s.2.8.4,1c.3.3.6.4,1,.4h7.3v32c0,1.5.6,3,1.7,4.1,1.1,1.1,2.6,1.7,4.1,1.7h23.1c.4,0,.7-.2,1-.4.3-.3.4-.6.4-1s0-.7-.4-1-.6-.4-1-.4h-23.1c-.8,0-1.5-.3-2.1-.9s-.9-1.3-.9-2.1v-1.5h23.2l.2.3ZM52.8,48.6h14.9s0,0,.2,0c0,0,0,0,0-.2v-3.9s0,0-.2-.2l-7.4-4.6h-.6l-7.4,4.6-.2.2v3.7c0,0,0,.3.2.4s.2.2.4.2h0ZM67.4,41.1l5,2.8h.6l5-2.8s.2,0,.2-.2v-6.7s0-.2-.2-.2l-5-2.7h-.6l-5,2.7s-.2,0-.2.2v6.7s0,.2.2.2Z"/>
</svg>