<?xml version="1.0" encoding="UTF-8"?>
<svg id="Layer_1" data-name="Layer 1" xmlns="http://www.w3.org/2000/svg" xmlns:xlink="http://www.w3.org/1999/xlink" version="1.1" viewBox="0 0 120 120">
  <defs>
    <style>
      .cls-1 {
        fill: url(#linear-gradient);
      }

      .cls-1, .cls-2, .cls-3 {
        stroke-width: 0px;
      }

      .cls-2 {
        fill: #2d2d2d;
      }

      .cls-3 {
        fill: #fff;
      }
    </style>
    <linearGradient id="linear-gradient" x1=".5" y1="62" x2="119.5" y2="62" gradientTransform="translate(0 122) scale(1 -1)" gradientUnits="userSpaceOnUse">
      <stop offset="0" stop-color="#80edb6"/>
      <stop offset="1" stop-color="#ac80ed"/>
    </linearGradient>
  </defs>
  <g>
    <circle class="cls-2" cx="60" cy="60" r="59.5"/>
    <path class="cls-1" d="M60,10.5c27.3,0,49.5,22.2,49.5,49.5s-22.2,49.5-49.5,49.5S10.5,87.3,10.5,60,32.7,10.5,60,10.5M60,.5C27.1.5.5,27.1.5,60s26.6,59.5,59.5,59.5,59.5-26.6,59.5-59.5S92.9.5,60,.5h0Z"/>
  </g>
  <g>
    <path class="cls-3" d="M75.2,49h-30.3c-3.8,0-6.9,3.1-6.9,6.9v15.8c0,3.8,3.1,6.9,6.9,6.9h30.3c3.8,0,6.9-3.1,6.9-6.9v-15.8c0-3.8-3.1-6.9-6.9-6.9ZM60,75.9c-6.7,0-12.2-5.5-12.2-12.2s5.5-12.2,12.2-12.2,12.2,5.5,12.2,12.2-5.5,12.2-12.2,12.2Z"/>
    <path class="cls-3" d="M63.1,72.5c-.4.3-.8.5-1.3.6-.4,0-.8,0-1.2,0-1-.3-1.5-1-1.7-1.8,0-.3,0-.7,0-1v-10.8q0-.2-.2-.2h-5q-.3,0-.3-.3c0-.5.2-.9.4-1.4.2-.3.4-.6.7-.8.3-.3.7-.4,1.2-.4,1.2,0,2.4,0,3.7,0h7.5c0,.4,0,.8-.2,1.2s-.4.8-.8,1.2c-.4.3-.9.5-1.5.5h-4.6,0c.6.3,1,.7,1.3,1.3s.3.8.4,1.2v9.2c0,.6.5,1.1,1.2,1.3,0,0,.2,0,.3,0v.2Z"/>
    <polygon class="cls-3" points="35.3 38.4 29.9 40 35.3 41.6 36.8 47 38.4 41.6 43.8 40 38.4 38.4 36.8 33 35.3 38.4"/>
    <polygon class="cls-3" points="45.6 31.9 43 32.6 45.6 33.4 46.3 36 47.1 33.4 49.7 32.6 47.1 31.9 46.3 29.3 45.6 31.9"/>
    <path class="cls-3" d="M44.8,46.9h30.3c2.2,0,4.2.8,5.8,2.2-.4-3.4-3.3-6.1-6.8-6.1h-28.3c-3.5,0-6.5,2.7-6.8,6.1,1.6-1.3,3.6-2.2,5.8-2.2Z"/>
  </g>
</svg>