<svg id="Layer_1" data-name="Layer 1" xmlns="http://www.w3.org/2000/svg" xmlns:xlink="http://www.w3.org/1999/xlink" version="1.1" viewBox="0 0 120 120" width="60" height="60">
  <defs>
    <style>
      .cls-1 {
        fill: #5d6363;
      }

      .cls-1, .cls-2, .cls-3 {
        stroke-width: 0px;
      }

      .cls-2 {
        fill: url(#linear-gradient);
      }

      .cls-3 {
        fill: #80edb6;
      }
    </style>
    <linearGradient id="linear-gradient" x1=".5" y1="60" x2="119.5" y2="60" gradientUnits="userSpaceOnUse">
      <stop offset="0" stop-color="#80edb6"/>
      <stop offset="1" stop-color="#ac80ed"/>
    </linearGradient>
  </defs>
  <g>
    <circle class="cls-1" cx="60" cy="60" r="59.5"/>
    <path class="cls-2" d="M60,10.5c27.3,0,49.5,22.2,49.5,49.5s-22.2,49.5-49.5,49.5S10.5,87.3,10.5,60,32.7,10.5,60,10.5M60,.5C27.1.5.5,27.1.5,60s26.6,59.5,59.5,59.5,59.5-26.6,59.5-59.5S92.9.5,60,.5h0Z"/>
  </g>
  <g>
    <path class="cls-3" d="M54.6,61.6v6.5l5.4,3.3,5.4-3.3v-6.5s-5.4-3.3-5.4-3.3l-5.4,3.3Z"/>
    <path class="cls-3" d="M79,56.8c-1.1-2.5-2.6-4.8-4.5-6.8l-9-9,1.3-1.3c1-1,1.7-2.1,2.3-3.4.5-1.3.8-2.6.8-4h-3.3l-1.4-2.7c-.2-.5-.6-.9-1.1-1.2-.5-.3-1-.4-1.5-.4s-.9.1-1.3.3c-.4.2-.8.5-1 .9l-1,1.4c-.4.5-.9.8-1.5.9-.6.1-1.2,0-1.7-.4l-1.4-.9-1.4.5c-.5.2-1,.5-1.3,1-.3.5-.5,1-.5,1.5,0,1.5.3,2.9.8,4.2.6,1.3,1.4,2.6,2.4,3.6,0-.3.1-.6.3-.8s.5-.3.8-.3h8.7c.3,0,.6.1.8.3s.3.5.3.8-.1.6-.3.8c-.2.2-.5.3-.8.3h-1.7.1c1,1.1,1.6,2.5,1.6,4v2.5h-2.2v-2.5c0-.4,0-.9-.2-1.2-.2-.4-.4-.8-.7-1.1l-1.2-1.2-1.2,1.2c-.3.3-.5.7-.7,1.1-.2.4-.2.8-.2,1.2v2.5h-2.2v-2.5c0-1.4.6-2.8,1.6-3.8h.1c0-.1-1.7-.1-1.7-.1-.3,0-.6-.1-.8-.3-.2-.2-.3-.5-.3-.8l-9,9c-1.9,1.9-3.5,4.3-4.5,6.8-1.1,2.5-1.6,5.3-1.6,8,0,5.5,2.2,10.7,6,14.6,3.9,3.9,9.1,6,14.6,6s5.4-.5,7.9-1.6c2.5-1,4.8-2.6,6.7-4.5,1.9-1.9,3.4-4.2,4.5-6.7,1-2.5,1.6-5.2,1.6-7.9s-.5-5.5-1.6-8ZM60,77.8c-7.2,0-13-5.8-13-13s5.8-13,13-13,13,5.8,13,13-5.8,13-13,13Z"/>
  </g>
</svg>
