<svg viewBox="0 0 338 338" fill="none" xmlns="http://www.w3.org/2000/svg">
<path d="M30.42 153.79L168.155 233.22L307.58 153.79V243.562C307.58 250.764 303.76 257.426 297.545 261.064L179.245 330.313C172.917 334.017 165.083 334.017 158.755 330.313L40.4549 261.064C34.2395 257.426 30.42 250.764 30.42 243.562V153.79Z" fill="url(#paint0_linear_86_4294)"/>
<path d="M30.4199 153.79L168.155 233.22L307.58 153.79V243.562C307.58 250.764 303.76 257.426 297.545 261.064L179.245 330.313C172.917 334.017 165.083 334.017 158.755 330.313L40.4549 261.064C34.2395 257.426 30.4199 250.764 30.4199 243.562V153.79Z" fill="url(#paint1_linear_86_4294)"/>
<g filter="url(#filter0_iii_86_4294)">
<path fill-rule="evenodd" clip-rule="evenodd" d="M29.575 152.327L168.158 232.246L308.425 152.336V243.562C308.425 251.064 304.446 258.003 297.972 261.793L179.672 331.042C173.08 334.9 164.92 334.9 158.328 331.042L40.0281 261.793C33.5537 258.003 29.575 251.064 29.575 243.562V152.327ZM306.735 155.244L168.152 234.194L31.265 155.253V243.562C31.265 250.464 34.9254 256.848 40.8818 260.335L159.182 329.584C165.246 333.133 172.754 333.133 178.818 329.584L297.118 260.335C303.075 256.848 306.735 250.464 306.735 243.562V155.244Z" fill="url(#paint2_linear_86_4294)"/>
</g>
<path d="M30.42 218.01L158.755 293.133C165.083 296.837 172.917 296.837 179.245 293.133L307.58 218.01V224.77L182.66 297.894C174.223 302.833 163.777 302.833 155.34 297.894L30.42 224.77V218.01Z" fill="black" fill-opacity="0.3"/>
<path d="M30.42 223.08L157.047 297.203C164.43 301.525 173.57 301.525 180.953 297.203L307.58 223.08V224.77L180.953 298.893C173.57 303.215 164.43 303.215 157.047 298.893L30.42 224.77V223.08Z" fill="white" fill-opacity="0.2"/>
<path d="M155.48 165.62H182.52V334.62H155.48V165.62Z" fill="url(#paint3_linear_86_4294)"/>
<path d="M161.399 74.908C165.579 72.4777 170.739 72.4648 174.931 74.8741L304.884 149.56C309.428 152.172 309.4 158.738 304.833 161.311L174.828 234.531C170.688 236.863 165.629 236.851 161.5 234.498L33.0198 161.294C28.4913 158.714 28.4629 152.196 32.9686 149.577L161.399 74.908Z" fill="#242433"/>
<g filter="url(#filter1_iii_86_4294)">
<path fill-rule="evenodd" clip-rule="evenodd" d="M160.974 74.1776C165.415 71.5953 170.898 71.5816 175.352 74.1415L305.305 148.827C310.418 151.765 310.385 159.153 305.247 162.047L175.243 235.268C170.844 237.745 165.468 237.732 161.082 235.233L32.6014 162.028C27.507 159.126 27.4749 151.793 32.5439 148.846L160.974 74.1776ZM174.51 75.6068C170.58 73.348 165.742 73.3601 161.823 75.6386L33.3933 150.307C29.4508 152.599 29.4757 158.302 33.4381 160.56L161.919 233.764C165.789 235.969 170.533 235.981 174.414 233.795L304.418 160.574C308.414 158.324 308.439 152.578 304.463 150.292L174.51 75.6068Z" fill="url(#paint4_linear_86_4294)"/>
</g>
<g filter="url(#filter2_iii_86_4294)">
<path d="M54.08 197.347C54.08 194.67 55.9716 193.585 58.305 194.923C60.6384 196.262 62.53 199.517 62.53 202.194L62.53 218.393C62.53 221.07 60.6384 222.155 58.305 220.817C55.9716 219.478 54.08 216.223 54.08 213.547L54.08 197.347Z" fill="url(#paint5_linear_86_4294)"/>
</g>
<path fill-rule="evenodd" clip-rule="evenodd" d="M58.4432 220.817C60.314 221.856 61.9098 221.434 62.53 219.941C61.9543 219.932 61.3079 219.748 60.6248 219.368C58.2151 218.03 56.2616 214.775 56.2616 212.098L56.2616 195.898C56.2616 195.3 56.3593 194.781 56.538 194.35C55.0829 194.328 54.08 195.429 54.08 197.347L54.08 213.546C54.08 216.223 56.0335 219.478 58.4432 220.817Z" fill="black" fill-opacity="0.2"/>
<g filter="url(#filter3_iii_86_4294)">
<path d="M76.05 209.177C76.05 206.5 77.9416 205.415 80.275 206.753C82.6084 208.092 84.5 211.347 84.5 214.024L84.5 230.223C84.5 232.9 82.6084 233.985 80.275 232.647C77.9416 231.308 76.05 228.053 76.05 225.377L76.05 209.177Z" fill="url(#paint6_linear_86_4294)"/>
</g>
<path fill-rule="evenodd" clip-rule="evenodd" d="M80.4132 232.647C82.284 233.686 83.8798 233.264 84.5 231.771C83.9243 231.762 83.2779 231.578 82.5948 231.198C80.1851 229.86 78.2316 226.605 78.2316 223.928L78.2316 207.728C78.2316 207.13 78.3293 206.611 78.508 206.181C77.0529 206.158 76.05 207.259 76.05 209.177L76.05 225.377C76.05 228.053 78.0035 231.308 80.4132 232.647Z" fill="black" fill-opacity="0.2"/>
<g filter="url(#filter4_iii_86_4294)">
<path d="M98.02 222.697C98.02 220.02 99.9116 218.935 102.245 220.273C104.578 221.612 106.47 224.867 106.47 227.544L106.47 243.743C106.47 246.42 104.578 247.505 102.245 246.167C99.9116 244.828 98.02 241.573 98.02 238.897L98.02 222.697Z" fill="url(#paint7_linear_86_4294)"/>
</g>
<path fill-rule="evenodd" clip-rule="evenodd" d="M102.363 246.467C104.234 247.506 105.83 247.084 106.45 245.591C105.874 245.582 105.228 245.398 104.545 245.018C102.135 243.68 100.182 240.425 100.182 237.748L100.182 221.548C100.182 220.949 100.279 220.43 100.458 220C99.0029 219.978 98 221.079 98 222.997L98 239.196C98 241.873 99.9535 245.128 102.363 246.467Z" fill="black" fill-opacity="0.2"/>
<path d="M119.99 234.527C119.99 231.85 121.882 230.765 124.215 232.103C126.548 233.442 128.44 236.697 128.44 239.374L128.44 255.573C128.44 258.25 126.548 259.335 124.215 257.997C121.882 256.658 119.99 253.403 119.99 250.726L119.99 234.527Z" fill="black" fill-opacity="0.2"/>
<path fill-rule="evenodd" clip-rule="evenodd" d="M124.353 257.997C126.224 259.036 127.82 258.614 128.44 257.121C127.864 257.112 127.218 256.928 126.535 256.548C124.125 255.21 122.172 251.955 122.172 249.278L122.172 233.078C122.172 232.48 122.269 231.96 122.448 231.53C120.993 231.508 119.99 232.609 119.99 234.527L119.99 250.726C119.99 253.403 121.943 256.658 124.353 257.997Z" fill="black" fill-opacity="0.2"/>
<g filter="url(#filter5_i_86_4294)">
<path d="M256.88 269.194C256.88 271.136 255.564 273.497 253.941 274.468C252.318 275.439 251.002 274.652 251.002 272.71C251.002 270.768 252.318 268.407 253.941 267.436C255.564 266.465 256.88 267.252 256.88 269.194Z" fill="black" fill-opacity="0.2"/>
</g>
<g filter="url(#filter6_i_86_4294)">
<path d="M248.063 274.468C248.063 276.41 246.747 278.772 245.124 279.743C243.501 280.714 242.185 279.927 242.185 277.985C242.185 276.043 243.501 273.681 245.124 272.71C246.747 271.739 248.063 272.526 248.063 274.468Z" fill="black" fill-opacity="0.2"/>
</g>
<g filter="url(#filter7_i_86_4294)">
<path d="M239.245 279.743C239.245 281.685 237.929 284.046 236.306 285.017C234.683 285.988 233.367 285.201 233.367 283.259C233.367 281.317 234.683 278.955 236.306 277.985C237.929 277.014 239.245 277.801 239.245 279.743Z" fill="white"/>
</g>
<path d="M230.428 285.017C230.428 286.959 229.112 289.32 227.489 290.291C225.866 291.262 224.55 290.475 224.55 288.533C224.55 286.591 225.866 284.23 227.489 283.259C229.112 282.288 230.428 283.075 230.428 285.017Z" fill="#9333EA"/>
<path d="M221.61 290.292C221.61 292.234 220.295 294.595 218.671 295.566C217.048 296.537 215.732 295.75 215.732 293.808C215.732 291.866 217.048 289.505 218.671 288.534C220.295 287.563 221.61 288.35 221.61 290.292Z" fill="#9333EA"/>
<path d="M212.793 295.566C212.793 297.508 211.477 299.87 209.854 300.841C208.231 301.811 206.915 301.024 206.915 299.082C206.915 297.14 208.231 294.779 209.854 293.808C211.477 292.837 212.793 293.624 212.793 295.566Z" fill="#9333EA"/>
<path d="M203.976 300.84C203.976 302.782 202.66 305.144 201.037 306.115C199.413 307.086 198.097 306.299 198.097 304.357C198.097 302.415 199.413 300.053 201.037 299.082C202.66 298.111 203.976 298.898 203.976 300.84Z" fill="#9333EA"/>
<path d="M195.158 306.115C195.158 308.057 193.843 310.418 192.219 311.389C190.596 312.36 189.28 311.573 189.28 309.631C189.28 307.689 190.596 305.328 192.219 304.357C193.843 303.386 195.158 304.173 195.158 306.115Z" fill="#9333EA"/>
<g filter="url(#filter8_i_86_4294)">
<path d="M287.3 209.56C287.3 207.227 288.938 204.389 290.959 203.223C292.98 202.056 294.618 203.002 294.618 205.335V208.715C294.618 211.049 292.98 213.886 290.959 215.053C288.938 216.219 287.3 215.274 287.3 212.94L287.3 209.56Z" fill="black" fill-opacity="0.2"/>
</g>
<g filter="url(#filter9_i_86_4294)">
<path d="M287.3 191.815C287.3 189.482 288.938 186.644 290.959 185.478C292.98 184.311 294.618 185.257 294.618 187.59V190.97C294.618 193.303 292.98 196.141 290.959 197.308C288.938 198.474 287.3 197.528 287.3 195.195L287.3 191.815Z" fill="black" fill-opacity="0.2"/>
</g>
<g filter="url(#filter10_i_86_4294)">
<path d="M211.009 244.464L250.12 220.972V226.192L211.009 249.685V244.464Z" fill="black" fill-opacity="0.2"/>
</g>
<g filter="url(#filter11_i_86_4294)">
<path d="M189.28 257.516L206.663 247.074V252.295L189.28 262.736L189.28 257.516Z" fill="white"/>
</g>
<g filter="url(#filter12_i_86_4294)">
<path d="M234.186 220.102L257.363 206.18V211.401L234.186 225.322V220.102Z" fill="black" fill-opacity="0.2"/>
</g>
<g filter="url(#filter13_iii_86_4294)">
<path d="M189.28 248.341C189.28 247.555 189.692 246.827 190.366 246.423L226.45 224.748C227.942 223.852 229.84 224.926 229.84 226.666C229.84 227.452 229.428 228.18 228.755 228.585L192.67 250.259C191.179 251.155 189.28 250.081 189.28 248.341Z" fill="url(#paint8_linear_86_4294)"/>
</g>
<circle cx="50.7" cy="50.7" r="50.7" transform="matrix(0.866025 0.5 -0.866025 0.5 167.31 103.09)" stroke="black" stroke-opacity="0.2" stroke-width="4" stroke-linecap="round" stroke-linejoin="round" stroke-dasharray="2 8"/>
<g filter="url(#filter14_d_86_4294)">
<path fill-rule="evenodd" clip-rule="evenodd" d="M212.649 125.913C213.153 126.186 213.652 126.465 214.145 126.75C214.637 127.034 215.121 127.322 215.595 127.613C217.161 128.575 217.08 130.088 215.414 130.992C213.748 131.896 211.128 131.849 209.562 130.887C209.147 130.632 208.723 130.379 208.29 130.13C207.858 129.88 207.421 129.635 206.978 129.395C205.313 128.491 205.232 126.979 206.798 126.017C208.363 125.055 210.983 125.009 212.649 125.913ZM219.743 134.422C221.746 133.785 224.264 134.207 225.366 135.363C226.037 136.068 226.667 136.782 227.256 137.504C228.229 138.699 227.341 140.122 225.273 140.684C223.204 141.246 220.738 140.734 219.765 139.539C219.25 138.908 218.699 138.284 218.112 137.668C217.01 136.511 217.74 135.058 219.743 134.422ZM227.538 144.723C229.785 144.477 231.951 145.328 232.377 146.625C232.636 147.413 232.852 148.204 233.025 148.998C233.31 150.308 231.702 151.503 229.434 151.667C227.165 151.832 225.095 150.904 224.81 149.594C224.659 148.899 224.47 148.206 224.243 147.517C223.817 146.22 225.292 144.969 227.538 144.723ZM229.434 155.912C231.702 156.077 233.31 157.272 233.025 158.582C232.852 159.375 232.636 160.167 232.377 160.955C231.951 162.251 229.785 163.103 227.538 162.857C225.292 162.611 223.817 161.36 224.243 160.063C224.47 159.374 224.659 158.681 224.81 157.986C225.095 156.676 227.165 155.748 229.434 155.912ZM225.273 166.895C227.341 167.457 228.229 168.881 227.256 170.076C226.667 170.798 226.037 171.512 225.366 172.216C224.264 173.373 221.746 173.794 219.743 173.158C217.74 172.522 217.01 171.068 218.112 169.912C218.699 169.296 219.25 168.672 219.765 168.041C220.738 166.846 223.204 166.333 225.273 166.895ZM215.414 176.588C217.08 177.492 217.161 179.005 215.595 179.966C215.121 180.258 214.637 180.545 214.145 180.83C213.652 181.114 213.153 181.393 212.649 181.667C210.983 182.571 208.363 182.524 206.798 181.563C205.232 180.601 205.313 179.088 206.978 178.184C207.421 177.944 207.858 177.699 208.29 177.45C208.723 177.2 209.147 176.948 209.562 176.692C211.128 175.731 213.748 175.684 215.414 176.588ZM200.857 184.062C201.959 185.219 201.229 186.672 199.226 187.308C198.006 187.696 196.769 188.06 195.518 188.4C193.449 188.962 190.983 188.449 190.009 187.255C189.036 186.06 189.924 184.636 191.993 184.075C193.087 183.777 194.168 183.459 195.234 183.121C197.237 182.484 199.754 182.906 200.857 184.062ZM183.014 188.563C183.441 189.86 181.966 191.11 179.72 191.357C178.355 191.506 176.984 191.631 175.609 191.73C173.341 191.895 171.271 190.967 170.986 189.657C170.701 188.347 172.309 187.152 174.577 186.988C175.781 186.9 176.981 186.791 178.175 186.66C180.422 186.414 182.588 187.266 183.014 188.563Z" fill="#9333EA"/>
</g>
<g filter="url(#filter15_iii_86_4294)">
<path d="M154.246 158.704L171.309 148.852C173.35 147.659 174.421 146.093 174.29 144.498C174.158 142.902 172.835 141.405 170.607 140.334L143.338 156.077C142.356 156.632 141.596 157.284 141.105 157.996C140.613 158.707 140.401 159.462 140.481 160.215C140.561 160.967 140.931 161.702 141.569 162.373C142.207 163.045 143.1 163.639 144.192 164.121C146.113 165.179 148.689 165.842 151.465 165.991C147.069 163.378 149.276 161.576 154.248 158.705L154.246 158.704Z" fill="url(#paint9_linear_86_4294)"/>
</g>
<g filter="url(#filter16_iii_86_4294)">
<path d="M168.34 131.695C166.282 130.72 163.567 130.218 160.788 130.298C158.008 130.378 155.39 131.034 153.504 132.123L187.937 148.657C189.995 149.632 192.71 150.134 195.49 150.054C198.269 149.974 200.887 149.318 202.773 148.229L168.34 131.695Z" fill="url(#paint10_linear_86_4294)"/>
</g>
<defs>
<filter id="filter0_iii_86_4294" x="-5.4608" y="102.276" width="313.886" height="251.68" filterUnits="userSpaceOnUse" color-interpolation-filters="sRGB">
<feFlood flood-opacity="0" result="BackgroundImageFix"/>
<feBlend mode="normal" in="SourceGraphic" in2="BackgroundImageFix" result="shape"/>
<feColorMatrix in="SourceAlpha" type="matrix" values="0 0 0 0 0 0 0 0 0 0 0 0 0 0 0 0 0 0 127 0" result="hardAlpha"/>
<feOffset dx="-35.0358" dy="-50.0511"/>
<feGaussianBlur stdDeviation="40.05"/>
<feComposite in2="hardAlpha" operator="arithmetic" k2="-1" k3="1"/>
<feColorMatrix type="matrix" values="0 0 0 0 0.676044 0 0 0 0 0.235556 0 0 0 0 0.883333 0 0 0 0.76 0"/>
<feBlend mode="normal" in2="shape" result="effect1_innerShadow_86_4294"/>
<feColorMatrix in="SourceAlpha" type="matrix" values="0 0 0 0 0 0 0 0 0 0 0 0 0 0 0 0 0 0 127 0" result="hardAlpha"/>
<feOffset dy="20.0205"/>
<feGaussianBlur stdDeviation="20"/>
<feComposite in2="hardAlpha" operator="arithmetic" k2="-1" k3="1"/>
<feColorMatrix type="matrix" values="0 0 0 0 0.7625 0 0 0 0 1 0 0 0 0 1 0 0 0 0.25 0"/>
<feBlend mode="normal" in2="effect1_innerShadow_86_4294" result="effect2_innerShadow_86_4294"/>
<feColorMatrix in="SourceAlpha" type="matrix" values="0 0 0 0 0 0 0 0 0 0 0 0 0 0 0 0 0 0 127 0" result="hardAlpha"/>
<feOffset/>
<feGaussianBlur stdDeviation="12"/>
<feComposite in2="hardAlpha" operator="arithmetic" k2="-1" k3="1"/>
<feColorMatrix type="matrix" values="0 0 0 0 1 0 0 0 0 1 0 0 0 0 1 0 0 0 0.26 0"/>
<feBlend mode="normal" in2="effect2_innerShadow_86_4294" result="effect3_innerShadow_86_4294"/>
</filter>
<filter id="filter1_iii_86_4294" x="-6.27448" y="22.1801" width="315.395" height="234.957" filterUnits="userSpaceOnUse" color-interpolation-filters="sRGB">
<feFlood flood-opacity="0" result="BackgroundImageFix"/>
<feBlend mode="normal" in="SourceGraphic" in2="BackgroundImageFix" result="shape"/>
<feColorMatrix in="SourceAlpha" type="matrix" values="0 0 0 0 0 0 0 0 0 0 0 0 0 0 0 0 0 0 127 0" result="hardAlpha"/>
<feOffset dx="-35.0358" dy="-50.0511"/>
<feGaussianBlur stdDeviation="40.05"/>
<feComposite in2="hardAlpha" operator="arithmetic" k2="-1" k3="1"/>
<feColorMatrix type="matrix" values="0 0 0 0 0.676044 0 0 0 0 0.235556 0 0 0 0 0.883333 0 0 0 0.76 0"/>
<feBlend mode="normal" in2="shape" result="effect1_innerShadow_86_4294"/>
<feColorMatrix in="SourceAlpha" type="matrix" values="0 0 0 0 0 0 0 0 0 0 0 0 0 0 0 0 0 0 127 0" result="hardAlpha"/>
<feOffset dy="20.0205"/>
<feGaussianBlur stdDeviation="20"/>
<feComposite in2="hardAlpha" operator="arithmetic" k2="-1" k3="1"/>
<feColorMatrix type="matrix" values="0 0 0 0 0.7625 0 0 0 0 1 0 0 0 0 1 0 0 0 0.25 0"/>
<feBlend mode="normal" in2="effect1_innerShadow_86_4294" result="effect2_innerShadow_86_4294"/>
<feColorMatrix in="SourceAlpha" type="matrix" values="0 0 0 0 0 0 0 0 0 0 0 0 0 0 0 0 0 0 127 0" result="hardAlpha"/>
<feOffset/>
<feGaussianBlur stdDeviation="12"/>
<feComposite in2="hardAlpha" operator="arithmetic" k2="-1" k3="1"/>
<feColorMatrix type="matrix" values="0 0 0 0 1 0 0 0 0 1 0 0 0 0 1 0 0 0 0.26 0"/>
<feBlend mode="normal" in2="effect2_innerShadow_86_4294" result="effect3_innerShadow_86_4294"/>
</filter>
<filter id="filter2_iii_86_4294" x="19.0442" y="144.299" width="43.4858" height="97.1116" filterUnits="userSpaceOnUse" color-interpolation-filters="sRGB">
<feFlood flood-opacity="0" result="BackgroundImageFix"/>
<feBlend mode="normal" in="SourceGraphic" in2="BackgroundImageFix" result="shape"/>
<feColorMatrix in="SourceAlpha" type="matrix" values="0 0 0 0 0 0 0 0 0 0 0 0 0 0 0 0 0 0 127 0" result="hardAlpha"/>
<feOffset dx="-35.0358" dy="-50.0511"/>
<feGaussianBlur stdDeviation="40.05"/>
<feComposite in2="hardAlpha" operator="arithmetic" k2="-1" k3="1"/>
<feColorMatrix type="matrix" values="0 0 0 0 0.676044 0 0 0 0 0.235556 0 0 0 0 0.883333 0 0 0 0.76 0"/>
<feBlend mode="normal" in2="shape" result="effect1_innerShadow_86_4294"/>
<feColorMatrix in="SourceAlpha" type="matrix" values="0 0 0 0 0 0 0 0 0 0 0 0 0 0 0 0 0 0 127 0" result="hardAlpha"/>
<feOffset dy="20.0205"/>
<feGaussianBlur stdDeviation="20"/>
<feComposite in2="hardAlpha" operator="arithmetic" k2="-1" k3="1"/>
<feColorMatrix type="matrix" values="0 0 0 0 0.7625 0 0 0 0 1 0 0 0 0 1 0 0 0 0.25 0"/>
<feBlend mode="normal" in2="effect1_innerShadow_86_4294" result="effect2_innerShadow_86_4294"/>
<feColorMatrix in="SourceAlpha" type="matrix" values="0 0 0 0 0 0 0 0 0 0 0 0 0 0 0 0 0 0 127 0" result="hardAlpha"/>
<feOffset/>
<feGaussianBlur stdDeviation="12"/>
<feComposite in2="hardAlpha" operator="arithmetic" k2="-1" k3="1"/>
<feColorMatrix type="matrix" values="0 0 0 0 1 0 0 0 0 1 0 0 0 0 1 0 0 0 0.26 0"/>
<feBlend mode="normal" in2="effect2_innerShadow_86_4294" result="effect3_innerShadow_86_4294"/>
</filter>
<filter id="filter3_iii_86_4294" x="41.0142" y="156.129" width="43.4858" height="97.1116" filterUnits="userSpaceOnUse" color-interpolation-filters="sRGB">
<feFlood flood-opacity="0" result="BackgroundImageFix"/>
<feBlend mode="normal" in="SourceGraphic" in2="BackgroundImageFix" result="shape"/>
<feColorMatrix in="SourceAlpha" type="matrix" values="0 0 0 0 0 0 0 0 0 0 0 0 0 0 0 0 0 0 127 0" result="hardAlpha"/>
<feOffset dx="-35.0358" dy="-50.0511"/>
<feGaussianBlur stdDeviation="40.05"/>
<feComposite in2="hardAlpha" operator="arithmetic" k2="-1" k3="1"/>
<feColorMatrix type="matrix" values="0 0 0 0 0.676044 0 0 0 0 0.235556 0 0 0 0 0.883333 0 0 0 0.76 0"/>
<feBlend mode="normal" in2="shape" result="effect1_innerShadow_86_4294"/>
<feColorMatrix in="SourceAlpha" type="matrix" values="0 0 0 0 0 0 0 0 0 0 0 0 0 0 0 0 0 0 127 0" result="hardAlpha"/>
<feOffset dy="20.0205"/>
<feGaussianBlur stdDeviation="20"/>
<feComposite in2="hardAlpha" operator="arithmetic" k2="-1" k3="1"/>
<feColorMatrix type="matrix" values="0 0 0 0 0.7625 0 0 0 0 1 0 0 0 0 1 0 0 0 0.25 0"/>
<feBlend mode="normal" in2="effect1_innerShadow_86_4294" result="effect2_innerShadow_86_4294"/>
<feColorMatrix in="SourceAlpha" type="matrix" values="0 0 0 0 0 0 0 0 0 0 0 0 0 0 0 0 0 0 127 0" result="hardAlpha"/>
<feOffset/>
<feGaussianBlur stdDeviation="12"/>
<feComposite in2="hardAlpha" operator="arithmetic" k2="-1" k3="1"/>
<feColorMatrix type="matrix" values="0 0 0 0 1 0 0 0 0 1 0 0 0 0 1 0 0 0 0.26 0"/>
<feBlend mode="normal" in2="effect2_innerShadow_86_4294" result="effect3_innerShadow_86_4294"/>
</filter>
<filter id="filter4_iii_86_4294" x="62.9842" y="169.649" width="43.4858" height="97.1116" filterUnits="userSpaceOnUse" color-interpolation-filters="sRGB">
<feFlood flood-opacity="0" result="BackgroundImageFix"/>
<feBlend mode="normal" in="SourceGraphic" in2="BackgroundImageFix" result="shape"/>
<feColorMatrix in="SourceAlpha" type="matrix" values="0 0 0 0 0 0 0 0 0 0 0 0 0 0 0 0 0 0 127 0" result="hardAlpha"/>
<feOffset dx="-35.0358" dy="-50.0511"/>
<feGaussianBlur stdDeviation="40.05"/>
<feComposite in2="hardAlpha" operator="arithmetic" k2="-1" k3="1"/>
<feColorMatrix type="matrix" values="0 0 0 0 0.676044 0 0 0 0 0.235556 0 0 0 0 0.883333 0 0 0 0.76 0"/>
<feBlend mode="normal" in2="shape" result="effect1_innerShadow_86_4294"/>
<feColorMatrix in="SourceAlpha" type="matrix" values="0 0 0 0 0 0 0 0 0 0 0 0 0 0 0 0 0 0 127 0" result="hardAlpha"/>
<feOffset dy="20.0205"/>
<feGaussianBlur stdDeviation="20"/>
<feComposite in2="hardAlpha" operator="arithmetic" k2="-1" k3="1"/>
<feColorMatrix type="matrix" values="0 0 0 0 0.7625 0 0 0 0 1 0 0 0 0 1 0 0 0 0.25 0"/>
<feBlend mode="normal" in2="effect1_innerShadow_86_4294" result="effect2_innerShadow_86_4294"/>
<feColorMatrix in="SourceAlpha" type="matrix" values="0 0 0 0 0 0 0 0 0 0 0 0 0 0 0 0 0 0 127 0" result="hardAlpha"/>
<feOffset/>
<feGaussianBlur stdDeviation="12"/>
<feComposite in2="hardAlpha" operator="arithmetic" k2="-1" k3="1"/>
<feColorMatrix type="matrix" values="0 0 0 0 1 0 0 0 0 1 0 0 0 0 1 0 0 0 0.26 0"/>
<feBlend mode="normal" in2="effect2_innerShadow_86_4294" result="effect3_innerShadow_86_4294"/>
</filter>
<filter id="filter5_i_86_4294" x="251.002" y="267.02" width="5.87827" height="7.86426" filterUnits="userSpaceOnUse" color-interpolation-filters="sRGB">
<feFlood flood-opacity="0" result="BackgroundImageFix"/>
<feBlend mode="normal" in="SourceGraphic" in2="BackgroundImageFix" result="shape"/>
<feColorMatrix in="SourceAlpha" type="matrix" values="0 0 0 0 0 0 0 0 0 0 0 0 0 0 0 0 0 0 127 0" result="hardAlpha"/>
<feOffset dy="-1"/>
<feComposite in2="hardAlpha" operator="arithmetic" k2="-1" k3="1"/>
<feColorMatrix type="matrix" values="0 0 0 0 0 0 0 0 0 0 0 0 0 0 0 0 0 0 0.2 0"/>
<feBlend mode="normal" in2="shape" result="effect1_innerShadow_86_4294"/>
</filter>
<filter id="filter6_i_86_4294" x="242.185" y="272.294" width="5.87827" height="7.86426" filterUnits="userSpaceOnUse" color-interpolation-filters="sRGB">
<feFlood flood-opacity="0" result="BackgroundImageFix"/>
<feBlend mode="normal" in="SourceGraphic" in2="BackgroundImageFix" result="shape"/>
<feColorMatrix in="SourceAlpha" type="matrix" values="0 0 0 0 0 0 0 0 0 0 0 0 0 0 0 0 0 0 127 0" result="hardAlpha"/>
<feOffset dy="-1"/>
<feComposite in2="hardAlpha" operator="arithmetic" k2="-1" k3="1"/>
<feColorMatrix type="matrix" values="0 0 0 0 0 0 0 0 0 0 0 0 0 0 0 0 0 0 0.2 0"/>
<feBlend mode="normal" in2="shape" result="effect1_innerShadow_86_4294"/>
</filter>
<filter id="filter7_i_86_4294" x="233.367" y="277.569" width="5.87825" height="7.86426" filterUnits="userSpaceOnUse" color-interpolation-filters="sRGB">
<feFlood flood-opacity="0" result="BackgroundImageFix"/>
<feBlend mode="normal" in="SourceGraphic" in2="BackgroundImageFix" result="shape"/>
<feColorMatrix in="SourceAlpha" type="matrix" values="0 0 0 0 0 0 0 0 0 0 0 0 0 0 0 0 0 0 127 0" result="hardAlpha"/>
<feOffset dy="-1"/>
<feComposite in2="hardAlpha" operator="arithmetic" k2="-1" k3="1"/>
<feColorMatrix type="matrix" values="0 0 0 0 0 0 0 0 0 0 0 0 0 0 0 0 0 0 0.2 0"/>
<feBlend mode="normal" in2="shape" result="effect1_innerShadow_86_4294"/>
</filter>
<filter id="filter8_i_86_4294" x="287.3" y="202.723" width="7.31793" height="12.8293" filterUnits="userSpaceOnUse" color-interpolation-filters="sRGB">
<feFlood flood-opacity="0" result="BackgroundImageFix"/>
<feBlend mode="normal" in="SourceGraphic" in2="BackgroundImageFix" result="shape"/>
<feColorMatrix in="SourceAlpha" type="matrix" values="0 0 0 0 0 0 0 0 0 0 0 0 0 0 0 0 0 0 127 0" result="hardAlpha"/>
<feOffset dx="-1" dy="-1"/>
<feComposite in2="hardAlpha" operator="arithmetic" k2="-1" k3="1"/>
<feColorMatrix type="matrix" values="0 0 0 0 0 0 0 0 0 0 0 0 0 0 0 0 0 0 0.2 0"/>
<feBlend mode="normal" in2="shape" result="effect1_innerShadow_86_4294"/>
</filter>
<filter id="filter9_i_86_4294" x="287.3" y="184.978" width="7.31793" height="12.8293" filterUnits="userSpaceOnUse" color-interpolation-filters="sRGB">
<feFlood flood-opacity="0" result="BackgroundImageFix"/>
<feBlend mode="normal" in="SourceGraphic" in2="BackgroundImageFix" result="shape"/>
<feColorMatrix in="SourceAlpha" type="matrix" values="0 0 0 0 0 0 0 0 0 0 0 0 0 0 0 0 0 0 127 0" result="hardAlpha"/>
<feOffset dx="-1" dy="-1"/>
<feComposite in2="hardAlpha" operator="arithmetic" k2="-1" k3="1"/>
<feColorMatrix type="matrix" values="0 0 0 0 0 0 0 0 0 0 0 0 0 0 0 0 0 0 0.2 0"/>
<feBlend mode="normal" in2="shape" result="effect1_innerShadow_86_4294"/>
</filter>
<filter id="filter10_i_86_4294" x="211.009" y="220.972" width="39.1114" height="28.7134" filterUnits="userSpaceOnUse" color-interpolation-filters="sRGB">
<feFlood flood-opacity="0" result="BackgroundImageFix"/>
<feBlend mode="normal" in="SourceGraphic" in2="BackgroundImageFix" result="shape"/>
<feColorMatrix in="SourceAlpha" type="matrix" values="0 0 0 0 0 0 0 0 0 0 0 0 0 0 0 0 0 0 127 0" result="hardAlpha"/>
<feOffset dy="-1"/>
<feComposite in2="hardAlpha" operator="arithmetic" k2="-1" k3="1"/>
<feColorMatrix type="matrix" values="0 0 0 0 0 0 0 0 0 0 0 0 0 0 0 0 0 0 0.2 0"/>
<feBlend mode="normal" in2="shape" result="effect1_innerShadow_86_4294"/>
</filter>
<filter id="filter11_i_86_4294" x="189.28" y="247.074" width="17.3828" height="15.6619" filterUnits="userSpaceOnUse" color-interpolation-filters="sRGB">
<feFlood flood-opacity="0" result="BackgroundImageFix"/>
<feBlend mode="normal" in="SourceGraphic" in2="BackgroundImageFix" result="shape"/>
<feColorMatrix in="SourceAlpha" type="matrix" values="0 0 0 0 0 0 0 0 0 0 0 0 0 0 0 0 0 0 127 0" result="hardAlpha"/>
<feOffset dy="-1"/>
<feComposite in2="hardAlpha" operator="arithmetic" k2="-1" k3="1"/>
<feColorMatrix type="matrix" values="0 0 0 0 0 0 0 0 0 0 0 0 0 0 0 0 0 0 0.2 0"/>
<feBlend mode="normal" in2="shape" result="effect1_innerShadow_86_4294"/>
</filter>
<filter id="filter12_i_86_4294" x="234.186" y="206.18" width="23.1771" height="19.1421" filterUnits="userSpaceOnUse" color-interpolation-filters="sRGB">
<feFlood flood-opacity="0" result="BackgroundImageFix"/>
<feBlend mode="normal" in="SourceGraphic" in2="BackgroundImageFix" result="shape"/>
<feColorMatrix in="SourceAlpha" type="matrix" values="0 0 0 0 0 0 0 0 0 0 0 0 0 0 0 0 0 0 127 0" result="hardAlpha"/>
<feOffset dy="-1"/>
<feComposite in2="hardAlpha" operator="arithmetic" k2="-1" k3="1"/>
<feColorMatrix type="matrix" values="0 0 0 0 0 0 0 0 0 0 0 0 0 0 0 0 0 0 0.2 0"/>
<feBlend mode="normal" in2="shape" result="effect1_innerShadow_86_4294"/>
</filter>
<filter id="filter13_iii_86_4294" x="154.244" y="174.374" width="75.5957" height="96.2286" filterUnits="userSpaceOnUse" color-interpolation-filters="sRGB">
<feFlood flood-opacity="0" result="BackgroundImageFix"/>
<feBlend mode="normal" in="SourceGraphic" in2="BackgroundImageFix" result="shape"/>
<feColorMatrix in="SourceAlpha" type="matrix" values="0 0 0 0 0 0 0 0 0 0 0 0 0 0 0 0 0 0 127 0" result="hardAlpha"/>
<feOffset dx="-35.0358" dy="-50.0511"/>
<feGaussianBlur stdDeviation="40.05"/>
<feComposite in2="hardAlpha" operator="arithmetic" k2="-1" k3="1"/>
<feColorMatrix type="matrix" values="0 0 0 0 0.676044 0 0 0 0 0.235556 0 0 0 0 0.883333 0 0 0 0.76 0"/>
<feBlend mode="normal" in2="shape" result="effect1_innerShadow_86_4294"/>
<feColorMatrix in="SourceAlpha" type="matrix" values="0 0 0 0 0 0 0 0 0 0 0 0 0 0 0 0 0 0 127 0" result="hardAlpha"/>
<feOffset dy="20.0205"/>
<feGaussianBlur stdDeviation="20"/>
<feComposite in2="hardAlpha" operator="arithmetic" k2="-1" k3="1"/>
<feColorMatrix type="matrix" values="0 0 0 0 0.7625 0 0 0 0 1 0 0 0 0 1 0 0 0 0.25 0"/>
<feBlend mode="normal" in2="effect1_innerShadow_86_4294" result="effect2_innerShadow_86_4294"/>
<feColorMatrix in="SourceAlpha" type="matrix" values="0 0 0 0 0 0 0 0 0 0 0 0 0 0 0 0 0 0 127 0" result="hardAlpha"/>
<feOffset/>
<feGaussianBlur stdDeviation="12"/>
<feComposite in2="hardAlpha" operator="arithmetic" k2="-1" k3="1"/>
<feColorMatrix type="matrix" values="0 0 0 0 1 0 0 0 0 1 0 0 0 0 1 0 0 0 0.26 0"/>
<feBlend mode="normal" in2="effect2_innerShadow_86_4294" result="effect3_innerShadow_86_4294"/>
</filter>
<filter id="filter14_d_86_4294" x="166.953" y="121.264" width="70.1045" height="74.4854" filterUnits="userSpaceOnUse" color-interpolation-filters="sRGB">
<feFlood flood-opacity="0" result="BackgroundImageFix"/>
<feColorMatrix in="SourceAlpha" type="matrix" values="0 0 0 0 0 0 0 0 0 0 0 0 0 0 0 0 0 0 127 0" result="hardAlpha"/>
<feOffset/>
<feGaussianBlur stdDeviation="2"/>
<feColorMatrix type="matrix" values="0 0 0 0 0.1 0 0 0 0 0.85 0 0 0 0 1 0 0 0 0.4 0"/>
<feBlend mode="normal" in2="BackgroundImageFix" result="effect1_dropShadow_86_4294"/>
<feBlend mode="normal" in="SourceGraphic" in2="effect1_dropShadow_86_4294" result="shape"/>
</filter>
<filter id="filter15_iii_86_4294" x="105.429" y="90.2824" width="68.8718" height="95.7295" filterUnits="userSpaceOnUse" color-interpolation-filters="sRGB">
<feFlood flood-opacity="0" result="BackgroundImageFix"/>
<feBlend mode="normal" in="SourceGraphic" in2="BackgroundImageFix" result="shape"/>
<feColorMatrix in="SourceAlpha" type="matrix" values="0 0 0 0 0 0 0 0 0 0 0 0 0 0 0 0 0 0 127 0" result="hardAlpha"/>
<feOffset dx="-35.0358" dy="-50.0511"/>
<feGaussianBlur stdDeviation="40.05"/>
<feComposite in2="hardAlpha" operator="arithmetic" k2="-1" k3="1"/>
<feColorMatrix type="matrix" values="0 0 0 0 0.676044 0 0 0 0 0.235556 0 0 0 0 0.883333 0 0 0 0.76 0"/>
<feBlend mode="normal" in2="shape" result="effect1_innerShadow_86_4294"/>
<feColorMatrix in="SourceAlpha" type="matrix" values="0 0 0 0 0 0 0 0 0 0 0 0 0 0 0 0 0 0 127 0" result="hardAlpha"/>
<feOffset dy="20.0205"/>
<feGaussianBlur stdDeviation="20"/>
<feComposite in2="hardAlpha" operator="arithmetic" k2="-1" k3="1"/>
<feColorMatrix type="matrix" values="0 0 0 0 0.7625 0 0 0 0 1 0 0 0 0 1 0 0 0 0.25 0"/>
<feBlend mode="normal" in2="effect1_innerShadow_86_4294" result="effect2_innerShadow_86_4294"/>
<feColorMatrix in="SourceAlpha" type="matrix" values="0 0 0 0 0 0 0 0 0 0 0 0 0 0 0 0 0 0 127 0" result="hardAlpha"/>
<feOffset/>
<feGaussianBlur stdDeviation="12"/>
<feComposite in2="hardAlpha" operator="arithmetic" k2="-1" k3="1"/>
<feColorMatrix type="matrix" values="0 0 0 0 1 0 0 0 0 1 0 0 0 0 1 0 0 0 0.26 0"/>
<feBlend mode="normal" in2="effect2_innerShadow_86_4294" result="effect3_innerShadow_86_4294"/>
</filter>
<filter id="filter16_iii_86_4294" x="118.468" y="80.2384" width="84.3048" height="89.8443" filterUnits="userSpaceOnUse" color-interpolation-filters="sRGB">
<feFlood flood-opacity="0" result="BackgroundImageFix"/>
<feBlend mode="normal" in="SourceGraphic" in2="BackgroundImageFix" result="shape"/>
<feColorMatrix in="SourceAlpha" type="matrix" values="0 0 0 0 0 0 0 0 0 0 0 0 0 0 0 0 0 0 127 0" result="hardAlpha"/>
<feOffset dx="-35.0358" dy="-50.0511"/>
<feGaussianBlur stdDeviation="40.05"/>
<feComposite in2="hardAlpha" operator="arithmetic" k2="-1" k3="1"/>
<feColorMatrix type="matrix" values="0 0 0 0 0.676044 0 0 0 0 0.235556 0 0 0 0 0.883333 0 0 0 0.76 0"/>
<feBlend mode="normal" in2="shape" result="effect1_innerShadow_86_4294"/>
<feColorMatrix in="SourceAlpha" type="matrix" values="0 0 0 0 0 0 0 0 0 0 0 0 0 0 0 0 0 0 127 0" result="hardAlpha"/>
<feOffset dy="20.0205"/>
<feGaussianBlur stdDeviation="20"/>
<feComposite in2="hardAlpha" operator="arithmetic" k2="-1" k3="1"/>
<feColorMatrix type="matrix" values="0 0 0 0 0.7625 0 0 0 0 1 0 0 0 0 1 0 0 0 0.25 0"/>
<feBlend mode="normal" in2="effect1_innerShadow_86_4294" result="effect2_innerShadow_86_4294"/>
<feColorMatrix in="SourceAlpha" type="matrix" values="0 0 0 0 0 0 0 0 0 0 0 0 0 0 0 0 0 0 127 0" result="hardAlpha"/>
<feOffset/>
<feGaussianBlur stdDeviation="12"/>
<feComposite in2="hardAlpha" operator="arithmetic" k2="-1" k3="1"/>
<feColorMatrix type="matrix" values="0 0 0 0 1 0 0 0 0 1 0 0 0 0 1 0 0 0 0.26 0"/>
<feBlend mode="normal" in2="effect2_innerShadow_86_4294" result="effect3_innerShadow_86_4294"/>
</filter>
<linearGradient id="paint0_linear_86_4294" x1="169" y1="236.6" x2="169" y2="333.091" gradientUnits="userSpaceOnUse">
<stop stop-color="#1F2E4D"/>
<stop offset="1" stop-color="#0E081A"/>
</linearGradient>
<linearGradient id="paint1_linear_86_4294" x1="30.4199" y1="322.79" x2="169" y2="313.495" gradientUnits="userSpaceOnUse">
<stop stop-color="#4D403D"/>
<stop offset="1" stop-color="#524766" stop-opacity="0.3"/>
</linearGradient>
<linearGradient id="paint2_linear_86_4294" x1="39.0678" y1="207.969" x2="175.729" y2="295.843" gradientUnits="userSpaceOnUse">
<stop stop-color="#DECAFF"/>
<stop offset="1" stop-color="#691EE2"/>
</linearGradient>
<linearGradient id="paint3_linear_86_4294" x1="155.48" y1="250.12" x2="182.52" y2="250.12" gradientUnits="userSpaceOnUse">
<stop stop-opacity="0"/>
<stop offset="0.499559" stop-opacity="0.1"/>
<stop offset="1" stop-opacity="0"/>
</linearGradient>
<linearGradient id="paint4_linear_86_4294" x1="38.3054" y1="122.749" x2="167.176" y2="214.511" gradientUnits="userSpaceOnUse">
<stop stop-color="#DECAFF"/>
<stop offset="1" stop-color="#691EE2"/>
</linearGradient>
<linearGradient id="paint5_linear_86_4294" x1="54.3677" y1="202.635" x2="60.1226" y2="203.388" gradientUnits="userSpaceOnUse">
<stop stop-color="#DECAFF"/>
<stop offset="1" stop-color="#691EE2"/>
</linearGradient>
<linearGradient id="paint6_linear_86_4294" x1="76.3377" y1="214.465" x2="82.0926" y2="215.218" gradientUnits="userSpaceOnUse">
<stop stop-color="#DECAFF"/>
<stop offset="1" stop-color="#691EE2"/>
</linearGradient>
<linearGradient id="paint7_linear_86_4294" x1="98.3077" y1="227.985" x2="104.063" y2="228.738" gradientUnits="userSpaceOnUse">
<stop stop-color="#DECAFF"/>
<stop offset="1" stop-color="#691EE2"/>
</linearGradient>
<linearGradient id="paint8_linear_86_4294" x1="190.661" y1="231.776" x2="211.792" y2="243.908" gradientUnits="userSpaceOnUse">
<stop stop-color="#DECAFF"/>
<stop offset="1" stop-color="#691EE2"/>
</linearGradient>
<linearGradient id="paint9_linear_86_4294" x1="160.505" y1="146.663" x2="163.627" y2="154" gradientUnits="userSpaceOnUse">
<stop stop-color="#DECAFF"/>
<stop offset="1" stop-color="#691EE2"/>
</linearGradient>
<linearGradient id="paint10_linear_86_4294" x1="159.891" y1="129.952" x2="158.378" y2="138.579" gradientUnits="userSpaceOnUse">
<stop stop-color="#DECAFF"/>
<stop offset="1" stop-color="#691EE2"/>
</linearGradient>
</defs>
</svg>
