<svg viewBox="0 0 245 263" fill="none" xmlns="http://www.w3.org/2000/svg">
<path fill-rule="evenodd" clip-rule="evenodd" d="M172.564 252.281C164.341 256.86 154.933 258.99 145.461 258.343C139.553 258.593 133.656 257.634 128.13 255.524C122.605 253.414 117.565 250.197 113.321 246.07C109.076 241.943 105.715 236.992 103.442 231.519C101.17 226.047 100.033 220.167 100.102 214.24V47.6325H4C4 47.6319 4 47.6313 4 47.6306C4.00003 46.2903 4.06158 44.9564 4.18308 43.6325C5.10609 33.576 9.48901 24.1039 16.6473 16.8807C24.7483 8.70624 35.746 4.07581 47.2403 4H240.739C240.739 4.00066 240.739 4.00131 240.739 4.00197C240.739 5.34224 240.678 6.67618 240.556 8C239.633 18.0565 235.25 27.5286 228.092 34.7518C219.991 42.9263 208.993 47.5567 197.499 47.6325H101.091C102.099 47.6545 103.103 47.7086 104.102 47.7942C109.318 48.2412 114.393 49.5476 119.133 51.6325C124.445 53.9696 129.335 57.2849 133.528 61.4642C142.411 70.3194 147.442 82.3358 147.523 94.8937V199.153H147.535C147.535 227.212 149.928 243.46 171.861 248.069C173.676 248.45 175.625 248.752 177.717 248.974C176.062 250.189 174.341 251.292 172.564 252.281ZM151.523 195.153V94.8807L151.523 94.8677C151.435 81.2572 145.982 68.2317 136.352 58.6314C133.678 55.966 130.742 53.6246 127.606 51.6325H197.512L197.525 51.6324C210.079 51.5497 222.088 46.4924 230.933 37.5674C239.778 28.6428 244.74 16.5756 244.739 3.99991L244.739 0H47.2271L47.2139 8.70228e-05C34.6602 0.0828798 22.6508 5.14017 13.8061 14.0651C4.96171 22.9897 -0.000271309 35.0569 1.11262e-08 47.6326L8.63187e-05 51.6325H96.1021V214.217C96.03 220.678 97.2704 227.087 99.7481 233.053C102.229 239.027 105.898 244.432 110.532 248.937C115.167 253.443 120.669 256.956 126.703 259.261C132.669 261.539 139.031 262.589 145.409 262.349C157.796 263.142 170.068 259.55 180.084 252.198L188.411 246.086L178.139 244.996C171.659 244.309 166.956 242.845 163.489 240.794C160.084 238.779 157.683 236.089 155.942 232.586C152.303 225.266 151.535 214.496 151.535 199.153V195.153H151.523Z" fill="url(#paint0_linear_370_674)"/>
<defs>
<linearGradient id="paint0_linear_370_674" x1="100" y1="27" x2="180.13" y2="299.666" gradientUnits="userSpaceOnUse">
<stop stop-color="#D9AFFF" stop-opacity="0.97"/>
<stop offset="0.22" stop-color="#B474ED" stop-opacity="0.785"/>
<stop offset="0.45" stop-color="#8A37D6" stop-opacity="0.6"/>
<stop offset="0.73" stop-color="#682CB1" stop-opacity="0.3"/>
<stop offset="1" stop-color="#002290" stop-opacity="0"/>
</linearGradient>
</defs>
</svg>
