<?xml version="1.0" encoding="UTF-8"?>
<svg id="Layer_1" data-name="Layer 1" xmlns="http://www.w3.org/2000/svg" xmlns:xlink="http://www.w3.org/1999/xlink" version="1.1" viewBox="0 0 119.5 119.5">
  <defs>
    <style>
      .cls-1 {
        fill: #5d6363;
      }

      .cls-1, .cls-2, .cls-3 {
        stroke-width: 0px;
      }

      .cls-2 {
        fill: url(#linear-gradient);
      }

      .cls-3 {
        fill: #80edb6;
      }
    </style>
    <linearGradient id="linear-gradient" x1=".5" y1="60" x2="119.5" y2="60" gradientUnits="userSpaceOnUse">
      <stop offset="0" stop-color="#80edb6"/>
      <stop offset="1" stop-color="#ac80ed"/>
    </linearGradient>
  </defs>
  <g>
    <circle class="cls-1" cx="60" cy="60" r="59.5"/>
    <path class="cls-2" d="M60,10.5c27.3,0,49.5,22.2,49.5,49.5s-22.2,49.5-49.5,49.5S10.5,87.3,10.5,60,32.7,10.5,60,10.5M60,.5C27.1.5.5,27.1.5,60s26.6,59.5,59.5,59.5,59.5-26.6,59.5-59.5S92.9.5,60,.5h0Z"/>
  </g>
  <g>
    <path class="cls-3" d="M78.2,54.9c.6-.6.3-1.6-.5-1.7l-12-1.1-4.8-11.1c-.3-.8-1.4-.8-1.8,0l-4.8,11.1-12,1.1c-.8,0-1.2,1.1-.5,1.7l9.1,8-2.6,11.8c-.2.8.7,1.5,1.4,1l10.4-6.2,10.4,6.2c.7.4,1.6-.2,1.4-1l-2.6-11.8,9.1-8Z"/>
    <path class="cls-3" d="M51.3,49.3c.1.1.3.2.5.2s.3,0,.4-.1c.3-.2.4-.5.2-.8-.3-.7-3.2-7.1-4.1-8.3-.3-.5-.8-.8-1.4-.9-.6,0-1.2,0-1.6.4-1,.7-1.2,2.1-.5,3.1.9,1.2,6,6,6.6,6.5Z"/>
    <path class="cls-3" d="M68.2,49.5c.2,0,.3,0,.5-.2.6-.5,5.7-5.3,6.6-6.5.7-1,.5-2.4-.5-3.1-.5-.3-1.1-.5-1.6-.4-.6,0-1.1.4-1.4.9-.9,1.2-3.8,7.6-4.1,8.3-.1.3,0,.7.2.8.1,0,.3.1.4.1Z"/>
    <path class="cls-3" d="M83.4,66c-.3-.5-.7-.9-1.3-1.1-1.4-.5-8.4-1.3-9.2-1.4-.3,0-.6.2-.7.5-.1.3,0,.7.3.8.7.4,6.8,3.8,8.2,4.3.2,0,.5.1.7.1.3,0,.7,0,1-.2.5-.3.9-.7,1.1-1.3.2-.6.1-1.2-.1-1.7Z"/>
    <path class="cls-3" d="M47,63.5c-.8,0-7.7.9-9.2,1.4-.6.2-1,.6-1.3,1.1-.3.5-.3,1.1-.1,1.7.2.6.6,1,1.1,1.3.3.2.7.2,1,.2s.5,0,.7-.1c1.4-.5,7.5-3.9,8.2-4.3.3-.2.4-.5.3-.8-.1-.3-.4-.5-.7-.5Z"/>
    <path class="cls-3" d="M60,72.8c-.3,0-.6.2-.7.6-.2.8-1.5,7.6-1.5,9.1s1,2.2,2.2,2.2,2.2-1,2.2-2.2-1.4-8.4-1.5-9.1c0-.3-.3-.6-.7-.6Z"/>
  </g>
</svg>