<svg width="19" height="18" viewBox="0 0 19 18" fill="none" xmlns="http://www.w3.org/2000/svg">
  <g id="icon-wallet">
    <g id="Group">
      <path id="Vector" d="M4.38275 3.4264L11.858 1.38597L11.4621 0.585799C11.2031 0.0656894 10.5714 -0.149093 10.0513 0.109909L3.35937 3.4264L4.38275 3.4264Z" fill="#c8acf2" fill-opacity="1"/>
      <path id="Vector_2" d="M14.1766 1.44495C14.084 1.44495 13.9913 1.45758 13.8987 1.48285L12.1426 1.96295L6.7793 3.42642L12.8669 3.42642L15.5201 3.42642L15.1916 2.22195C15.0653 1.75238 14.6399 1.44495 14.1766 1.44495Z" fill="#c8acf2" fill-opacity="1"/>
      <path id="Vector_3" d="M16.6182 4.16357L16.3782 4.16357L16.0518 4.16357L15.7254 4.16357L13.2344 4.16357L4.08086 4.16357L2.88061 4.16357L1.86987 4.16357L1.68246 4.16357L1.05496 4.16357C0.722258 4.16357 0.425353 4.31729 0.231628 4.55945C0.143188 4.67105 0.0758055 4.7995 0.0379027 4.94058C0.0147399 5.02902 -1.52813e-08 5.12167 -1.67927e-08 5.21643L-1.88078e-08 5.34277L-3.79514e-08 6.54302L-2.03896e-07 16.9473C-2.13166e-07 17.5285 0.471678 18.0002 1.05285 18.0002L16.6161 18.0002C17.1973 18.0002 17.669 17.5285 17.669 16.9473L17.669 14.0099L11.4214 14.0099C10.4338 14.0099 9.63151 13.2076 9.63151 12.22L9.63151 11.2556L9.63151 10.9292L9.63151 10.6028L9.63151 9.87846C9.63151 9.39415 9.82521 8.95408 10.139 8.63191C10.4169 8.34551 10.7896 8.15178 11.2066 8.10335C11.2761 8.09495 11.3477 8.09072 11.4193 8.09072L16.793 8.09072L17.1194 8.09072L17.4458 8.09072L17.669 8.09072L17.669 5.21643C17.6711 4.63525 17.1994 4.16357 16.6182 4.16357Z" fill="#c8acf2" fill-opacity="1"/>
      <path id="Vector_4" d="M18.4087 9.09687C18.3034 9.00001 18.1792 8.92631 18.0402 8.87788C17.9328 8.8421 17.8191 8.82105 17.6991 8.82105L17.6717 8.82105L17.6507 8.82105L17.3243 8.82105L16.1472 8.82105L11.422 8.82104C10.8408 8.82104 10.3691 9.2927 10.3691 9.8739L10.3691 10.3982L10.3691 10.7246L10.3691 11.051L10.3691 12.2175C10.3691 12.7987 10.8408 13.2704 11.422 13.2704L17.6717 13.2704L17.6991 13.2704C17.8191 13.2704 17.9328 13.2493 18.0402 13.2135C18.1792 13.1672 18.3034 13.0914 18.4087 12.9945C18.6193 12.8029 18.752 12.525 18.752 12.2176L18.752 9.8739C18.752 9.56644 18.6193 9.28847 18.4087 9.09687ZM13.6204 11.2552C13.6204 11.5458 13.3845 11.7816 13.0939 11.7816L12.7444 11.7816C12.4538 11.7816 12.218 11.5458 12.218 11.2552L12.218 10.9057C12.218 10.7372 12.2959 10.5877 12.4201 10.4929C12.5106 10.4234 12.6223 10.3792 12.7444 10.3792L12.8328 10.3792L13.0939 10.3792C13.3845 10.3792 13.6204 10.6151 13.6204 10.9057L13.6204 11.2552Z" fill="#c8acf2" fill-opacity="1"/>
    </g>
  </g>
</svg>
